# Blender v2.93.5 OBJ File: ''
# www.blender.org
mtllib aletas_der_1.mtl
o aletas_der_shark.005
v 1.217874 -0.937810 -0.409714
v 0.759327 -0.742162 -1.237438
v 0.874759 -0.447355 -1.088901
v 1.086300 -1.235075 -0.518587
v 0.906561 0.079867 0.019917
v 1.242825 -0.315801 0.481793
v 1.289849 -0.473592 0.107115
v 0.946127 -0.046873 -0.447716
v 0.927185 -0.123707 1.306074
v 0.365026 0.327747 1.447201
v 0.689299 -0.086864 1.685482
v 0.608230 0.275187 0.993203
v 0.400968 -0.097660 1.997179
v 0.046573 0.328587 1.798651
v -0.354989 0.233311 2.090710
v -0.330575 -0.362270 2.444508
v -0.010278 -0.165203 2.320771
v -0.677161 0.003902 2.195093
v -0.270456 -0.969303 1.873716
v -0.756025 -0.374508 1.990963
v -0.677655 -0.732174 1.582636
v -0.372342 -0.669170 2.249443
v -0.012137 -1.389355 0.882862
v -0.380283 -1.224752 0.312862
v 0.207040 -1.550213 0.353455
v -0.115720 -1.384855 -0.373785
v 0.481485 -1.644780 -0.121437
v 0.237839 -1.397992 -0.976162
v 0.584032 -1.072171 -1.257297
v 0.827177 -1.567060 -0.460733
v 0.848433 0.618449 -0.417682
v 0.930127 0.556781 -0.948471
v 0.104448 0.819637 1.326153
v 0.411346 0.774219 0.760456
v -0.269285 0.832569 1.698975
v -0.961450 0.417583 2.013024
v -0.648348 0.693325 1.938027
v -1.072790 -0.461040 1.376255
v -1.099709 -0.043736 1.805413
v -0.711068 -1.065243 -0.255573
v -0.344432 -1.217931 -1.141674
v 0.121970 -1.111905 -1.705420
v 0.476936 -0.716672 -1.963432
v 0.691056 -0.335873 -1.960270
v 0.847284 0.021059 -1.797397
v 1.418835 -1.657666 0.116835
v 1.594719 -1.400067 0.183462
v 1.600101 -0.676900 0.947437
v 1.670967 -0.844694 0.626190
v 1.293611 -0.472401 1.662617
v 1.064870 -0.444622 2.001105
v 0.808189 -0.462589 2.292189
v 0.086953 -0.688152 2.779194
v 0.402030 -0.516476 2.642618
v 0.162761 -1.191044 2.235247
v 0.061490 -0.939526 2.589577
v 0.385740 -1.563412 1.429546
v 0.582987 -1.722409 0.988331
v 0.818802 -1.842686 0.586847
v 1.113901 -1.875973 0.259537
v 1.757591 -1.947583 0.711712
v 1.950144 -1.675900 0.736488
v 2.000863 -0.978085 1.411366
v 2.074627 -1.153196 1.128250
v 1.692124 -0.782276 2.055431
v 1.474867 -0.756733 2.367577
v 1.236061 -0.781811 2.649864
v 0.598320 -0.978566 3.188835
v 0.879959 -0.829510 3.025274
v 0.626073 -1.411175 2.641914
v 0.554553 -1.194881 2.998695
v 0.816883 -1.739933 1.946487
v 0.995657 -1.901479 1.558679
v 1.208360 -2.031087 1.195652
v 1.467102 -2.101269 0.885523
v 2.526291 -2.411977 1.858696
v 2.328618 -1.940419 1.293465
v 2.721734 -2.191258 1.862429
v 2.119167 -2.186383 1.273067
v 2.405285 -1.258472 1.883112
v 2.806863 -1.548360 2.384947
v 2.868579 -1.696050 2.175348
v 2.470267 -1.426823 1.638603
v 2.536584 -1.382231 2.910465
v 1.897819 -1.064641 2.769251
v 2.340586 -1.372960 3.193115
v 2.105965 -1.083210 2.469748
v 1.663504 -1.101277 3.038074
v 2.129895 -1.418927 3.432888
v 1.656529 -1.547406 3.910519
v 1.368023 -1.163304 3.374176
v 1.131229 -1.301152 3.524166
v 1.865785 -1.446340 3.753294
v 1.646739 -1.903867 3.480236
v 1.078009 -1.471151 3.365704
v 1.119406 -1.641094 3.065372
v 1.605546 -1.719869 3.766548
v 1.770151 -2.156430 2.938814
v 1.273762 -1.937550 2.448814
v 1.918335 -2.311100 2.607142
v 1.436058 -2.099126 2.088848
v 2.095695 -2.452252 2.285181
v 1.631903 -2.230992 1.741806
v 2.308541 -2.522183 2.009712
v 1.866498 -2.305676 1.448768
v 2.983855 -2.657254 2.506891
v 3.139092 -2.449780 2.482567
v 3.202953 -1.877919 2.916229
v 3.253941 -1.986424 2.759258
v 2.971049 -1.707106 3.382282
v 2.789944 -1.702391 3.632095
v 2.611876 -1.739241 3.846809
v 2.218462 -1.868085 4.255474
v 2.392850 -1.773786 4.122941
v 2.217733 -2.157796 3.888393
v 2.181570 -2.008329 4.128227
v 2.324351 -2.424910 3.445347
v 2.450915 -2.556584 3.173774
v 2.600091 -2.683820 2.894258
v 2.785717 -2.756041 2.654233
v -0.938151 -0.807012 0.593498
v -0.569627 -1.004949 0.977234
v -0.172095 -1.194355 1.413048
v 0.241832 -1.384075 1.863400
v 0.689794 -1.569607 2.321871
v 1.699191 -2.034847 3.229134
v 1.181240 -1.792745 2.770977
v 2.254744 -2.293645 3.686476
v 3.110844 -1.783261 3.120361
v 2.694851 -1.451429 2.623425
v 2.279600 -1.147770 2.161777
v 1.871838 -0.853687 1.724884
v 1.473687 -0.550541 1.301464
v 1.120783 -0.196935 0.893059
v 0.805603 0.183978 0.500605
v 0.688077 0.687724 0.147004
v 0.925565 0.338062 -1.468883
v 0.916990 -0.189648 -0.844581
v 1.280074 -0.677732 -0.199718
v 1.677937 -1.079542 0.357334
v 2.064220 -1.397397 0.891758
v 2.447970 -1.671117 1.430725
v 2.846331 -1.933492 1.981653
v 3.246734 -2.210180 2.575253
v 3.611029 -2.493909 3.228667
v 3.538484 -2.701535 3.153878
v 3.581496 -2.233090 3.479728
v 3.606501 -2.299963 3.382229
v 3.371398 -2.075635 3.843380
v 3.219792 -2.070982 4.058101
v 3.065507 -2.103224 4.243883
v 2.777526 -2.218366 4.531439
v 2.904684 -2.137800 4.440323
v 2.801862 -2.526647 4.126070
v 2.772312 -2.411535 4.296126
v 2.861433 -2.658163 3.930358
v 2.959347 -2.780691 3.717621
v 3.087951 -2.891973 3.505400
v 3.407552 -2.888356 3.175381
v 3.231903 -2.961690 3.303116
v 2.750267 -2.310300 4.448527
v 3.510802 -2.145185 3.626186
v 3.890225 -2.748335 3.830215
v 3.837312 -2.905302 3.782609
v 3.865980 -2.538069 4.004109
v 3.898549 -2.605337 3.945571
v 3.685808 -2.452170 4.268704
v 3.575570 -2.445265 4.433883
v 3.481616 -2.452376 4.585238
v 3.285878 -2.526334 4.817957
v 3.377579 -2.471006 4.739551
v 3.293010 -2.751662 4.520930
v 3.265517 -2.661893 4.662899
v 3.323856 -2.852911 4.358233
v 3.387175 -2.954451 4.184546
v 3.478814 -3.049460 4.025093
v 3.743076 -3.055456 3.812885
v 3.609433 -3.105627 3.888950
v 3.260760 -2.592984 4.766189
v 3.790070 -2.479964 4.109443
v 4.088799 -2.928854 4.314929
v 4.045772 -3.049109 4.309276
v 4.060272 -2.769133 4.426536
v 4.093513 -2.810843 4.365932
v 3.937181 -2.743780 4.627369
v 3.859017 -2.746123 4.741371
v 3.796525 -2.748579 4.846245
v 3.678483 -2.790258 4.998029
v 3.730201 -2.753264 4.945735
v 3.689856 -2.926024 4.822418
v 3.675085 -2.863987 4.928686
v 3.704929 -2.997214 4.699665
v 3.722677 -3.070624 4.560856
v 3.773372 -3.132933 4.437107
v 3.848874 -3.163077 4.322452
v 3.963063 -3.134062 4.304210
v 3.669712 -2.824834 4.977497
v 4.010189 -2.757651 4.514754
v 4.186028 -3.063620 4.747499
v 4.153544 -3.132864 4.739226
v 4.172896 -2.945006 4.750723
v 4.189602 -2.963309 4.692183
v 4.109932 -2.947821 4.900271
v 4.066737 -2.940848 4.961345
v 4.033051 -2.936301 5.021658
v 3.988977 -2.938643 5.087227
v 3.945535 -2.956991 5.119833
v 3.958882 -3.044494 5.006099
v 3.928781 -2.995817 5.062573
v 3.971459 -3.092787 4.927828
v 3.978370 -3.134100 4.855716
v 3.991754 -3.182249 4.758721
v 4.093706 -3.194556 4.698118
v 4.000554 -3.204459 4.621086
v 3.930115 -2.972891 5.098285
v 4.148653 -2.947653 4.824363
v 4.143903 -3.112395 5.091100
vn 0.8641 -0.0039 -0.5033
vn 0.8619 -0.2989 -0.4097
vn 0.9541 -0.0835 -0.2876
vn 0.7207 -0.3927 -0.5714
vn 0.9023 0.4295 0.0367
vn 0.7731 0.6312 -0.0621
vn 0.8469 0.4867 -0.2140
vn 0.9608 0.2665 -0.0768
vn 0.6193 0.7528 0.2231
vn 0.6599 0.6111 0.4371
vn 0.5299 0.7578 0.3807
vn 0.7508 0.6040 0.2672
vn 0.4192 0.7423 0.5228
vn 0.5104 0.5819 0.6332
vn 0.1738 0.5088 0.8432
vn -0.4764 0.1529 0.8658
vn 0.1509 0.6726 0.7244
vn -0.4215 0.1269 0.8979
vn -0.6382 -0.7073 0.3040
vn -0.7011 -0.4444 0.5577
vn -0.6418 -0.6957 0.3227
vn -0.7100 -0.5091 0.4866
vn -0.5220 -0.8471 0.0996
vn -0.5211 -0.8506 0.0709
vn -0.4513 -0.8923 0.0070
vn -0.4065 -0.9112 -0.0668
vn -0.2631 -0.9482 -0.1778
vn -0.0015 -0.9369 -0.3497
vn 0.6073 -0.6271 -0.4877
vn 0.3157 -0.8248 -0.4691
vn 0.9708 0.1898 0.1466
vn 0.9988 0.0353 0.0345
vn 0.7053 0.4937 0.5087
vn 0.8204 0.4628 0.3357
vn 0.5026 0.4837 0.7165
vn -0.3001 0.1666 0.9393
vn 0.1645 0.4036 0.9000
vn -0.6682 -0.6637 0.3361
vn -0.7043 -0.3331 0.6269
vn -0.5028 -0.8640 0.0244
vn -0.2925 -0.9361 -0.1951
vn 0.3069 -0.8530 -0.4220
vn 0.7359 -0.5587 -0.3825
vn 0.8897 -0.3622 -0.2780
vn 0.9604 -0.2139 -0.1786
vn 0.5143 -0.6007 -0.6121
vn 0.8008 -0.1521 -0.5793
vn 0.7207 0.6867 -0.0949
vn 0.8122 0.5216 -0.2611
vn 0.5330 0.8258 0.1841
vn 0.4343 0.8400 0.3253
vn 0.3437 0.8379 0.4241
vn -0.5142 0.1847 0.8375
vn 0.1096 0.7893 0.6042
vn -0.6193 -0.7275 0.2953
vn -0.6887 -0.5584 0.4625
vn -0.5222 -0.8435 0.1261
vn -0.4715 -0.8804 0.0504
vn -0.3673 -0.9274 -0.0708
vn 0.0439 -0.9226 -0.3832
vn 0.4394 -0.6840 -0.5822
vn 0.7582 -0.2329 -0.6090
vn 0.6829 0.7178 -0.1358
vn 0.7936 0.5148 -0.3241
vn 0.4805 0.8609 0.1671
vn 0.3806 0.8770 0.2933
vn 0.3141 0.8698 0.3805
vn -0.4617 0.2297 0.8568
vn 0.1449 0.8226 0.5498
vn -0.6045 -0.7421 0.2895
vn -0.6658 -0.5712 0.4802
vn -0.5277 -0.8354 0.1536
vn -0.4865 -0.8698 0.0820
vn -0.4076 -0.9130 -0.0171
vn -0.0809 -0.9517 -0.2961
vn 0.3881 -0.7348 -0.5563
vn 0.7308 -0.2792 -0.6229
vn 0.7122 -0.3153 -0.6272
vn 0.3905 -0.7250 -0.5673
vn 0.6819 0.7175 -0.1421
vn 0.6980 0.7063 -0.1184
vn 0.8155 0.4672 -0.3417
vn 0.7988 0.4841 -0.3572
vn 0.4661 0.8698 0.1620
vn 0.3495 0.8878 0.2993
vn 0.3287 0.8886 0.3199
vn 0.4603 0.8724 0.1645
vn 0.2791 0.8816 0.3806
vn 0.2877 0.8847 0.3668
vn -0.4058 0.3064 0.8611
vn 0.1219 0.8427 0.5244
vn -0.4663 0.2272 0.8550
vn 0.1788 0.8608 0.4764
vn -0.5948 -0.7353 0.3248
vn -0.6530 -0.5727 0.4956
vn -0.6012 -0.7420 0.2966
vn -0.6391 -0.5530 0.5346
vn -0.5466 -0.8187 0.1762
vn -0.5386 -0.8247 0.1727
vn -0.5163 -0.8470 0.1263
vn -0.5020 -0.8586 0.1040
vn -0.4401 -0.8977 0.0200
vn -0.4262 -0.9046 0.0004
vn -0.1207 -0.9574 -0.2623
vn -0.1311 -0.9556 -0.2639
vn 0.3939 -0.7473 -0.5351
vn 0.7279 -0.3382 -0.5965
vn 0.7317 0.6743 -0.0998
vn 0.8410 0.4594 -0.2858
vn 0.5008 0.8466 0.1801
vn 0.3543 0.8710 0.3403
vn 0.3091 0.8706 0.3827
vn -0.3617 0.2330 0.9027
vn 0.2099 0.8269 0.5217
vn -0.5922 -0.7171 0.3674
vn -0.6169 -0.5873 0.5239
vn -0.5555 -0.8059 0.2049
vn -0.5240 -0.8410 0.1344
vn -0.4533 -0.8902 0.0454
vn -0.1298 -0.9630 -0.2363
vn -0.5888 -0.7942 0.1504
vn -0.5889 -0.7894 0.1732
vn -0.5803 -0.7919 0.1902
vn -0.5718 -0.7920 0.2139
vn -0.5689 -0.7904 0.2274
vn -0.5765 -0.7810 0.2402
vn -0.5725 -0.7852 0.2358
vn -0.5839 -0.7490 0.3132
vn 0.6315 0.7751 0.0209
vn 0.5822 0.8123 0.0342
vn 0.5639 0.8251 0.0342
vn 0.5784 0.8154 0.0251
vn 0.6269 0.7778 0.0457
vn 0.6931 0.7153 0.0892
vn 0.8222 0.5488 0.1508
vn 0.9061 0.3473 0.2415
vn 0.9950 -0.0766 -0.0644
vn 0.9833 0.0776 -0.1647
vn 0.8881 0.2753 -0.3680
vn 0.8611 0.2509 -0.4422
vn 0.8444 0.1892 -0.5013
vn 0.8361 0.1336 -0.5320
vn 0.8364 0.0953 -0.5397
vn 0.8657 0.0738 -0.4951
vn 0.9000 0.0800 -0.4284
vn 0.7781 -0.3294 -0.5348
vn 0.7823 0.6138 -0.1062
vn 0.8705 0.4225 -0.2523
vn 0.5413 0.8080 0.2327
vn 0.4120 0.8311 0.3734
vn 0.3439 0.8412 0.4173
vn -0.3714 0.1915 0.9085
vn 0.1987 0.7984 0.5684
vn -0.5986 -0.7225 0.3459
vn -0.6071 -0.7028 0.3708
vn -0.5706 -0.7775 0.2642
vn -0.5331 -0.8287 0.1705
vn -0.4602 -0.8845 0.0768
vn 0.4250 -0.7706 -0.4749
vn -0.1395 -0.9746 -0.1752
vn -0.6242 -0.5697 0.5347
vn 0.6787 0.7330 0.0463
vn 0.9181 0.0278 -0.3953
vn 0.8069 -0.3604 -0.4680
vn 0.7744 0.6321 -0.0274
vn 0.8972 0.3701 -0.2410
vn 0.5423 0.7934 0.2765
vn 0.4811 0.8136 0.3265
vn 0.4428 0.8238 0.3539
vn -0.3039 0.2575 0.9172
vn 0.2799 0.7939 0.5398
vn -0.5973 -0.7250 0.3429
vn -0.6082 -0.6977 0.3785
vn -0.5804 -0.7572 0.2996
vn -0.5435 -0.8098 0.2208
vn -0.4439 -0.8894 0.1094
vn 0.4706 -0.7865 -0.4001
vn -0.0882 -0.9867 -0.1365
vn -0.6241 -0.5115 0.5906
vn 0.6338 0.7554 0.1664
vn 0.9331 -0.1022 -0.3447
vn 0.8015 -0.4721 -0.3671
vn 0.7021 0.7028 0.1151
vn 0.9153 0.3672 -0.1655
vn 0.5099 0.8081 0.2949
vn 0.4766 0.8182 0.3214
vn 0.4621 0.8267 0.3210
vn -0.2596 0.2546 0.9316
vn 0.3104 0.7971 0.5180
vn -0.5784 -0.7356 0.3527
vn -0.5889 -0.6986 0.4064
vn -0.5755 -0.7432 0.3411
vn -0.5428 -0.7961 0.2675
vn -0.4242 -0.8967 0.1263
vn -0.0602 -0.9925 -0.1063
vn 0.4692 -0.8236 -0.3186
vn -0.5925 -0.4981 0.6331
vn 0.5634 0.7909 0.2388
vn 0.9733 -0.2222 -0.0583
vn 0.8299 -0.5484 -0.1024
vn 0.8154 0.5438 0.1987
vn 0.9770 0.2045 -0.0608
vn 0.6208 0.7086 0.3353
vn 0.6019 0.7324 0.3183
vn 0.5871 0.7314 0.3470
vn 0.4388 0.6701 0.5987
vn -0.1153 0.0438 0.9924
vn -0.5188 -0.7630 0.3855
vn -0.5140 -0.7262 0.4565
vn -0.5225 -0.7609 0.3848
vn -0.4954 -0.7912 0.3585
vn -0.2922 -0.9248 0.2437
vn 0.4488 -0.8918 -0.0573
vn -0.0377 -0.9985 -0.0385
vn -0.3060 -0.7156 0.6279
vn 0.7034 0.6488 0.2903
vn 0.5075 -0.4156 0.7548
usemtl Material.011
s 1
f 1//1 2//2 3//3
f 2//2 1//1 4//4
f 5//5 6//6 7//7
f 7//7 8//8 5//5
f 9//9 10//10 11//11
f 10//10 9//9 12//12
f 11//11 10//10 13//13
f 13//13 10//10 14//14
f 15//15 16//16 17//17
f 16//16 15//15 18//18
f 19//19 20//20 21//21
f 20//20 19//19 22//22
f 23//23 24//24 25//25
f 25//25 24//24 26//26
f 25//25 26//26 27//27
f 26//26 28//28 27//27
f 29//29 4//4 30//30
f 4//4 29//29 2//2
f 5//5 8//8 31//31
f 8//8 32//32 31//31
f 12//12 33//33 10//10
f 33//33 12//12 34//34
f 10//10 35//35 14//14
f 35//35 10//10 33//33
f 15//15 36//36 18//18
f 36//36 15//15 37//37
f 20//20 38//38 21//21
f 38//38 20//20 39//39
f 24//24 40//40 26//26
f 26//26 40//40 41//41
f 26//26 41//41 28//28
f 41//41 42//42 28//28
f 2//2 43//43 44//44
f 43//43 2//2 29//29
f 3//3 44//44 45//45
f 44//44 3//3 2//2
f 46//46 4//4 47//47
f 4//4 1//1 47//47
f 6//6 48//48 49//49
f 49//49 7//7 6//6
f 50//50 11//11 51//51
f 11//11 50//50 9//9
f 52//52 51//51 11//11
f 52//52 11//11 13//13
f 17//17 53//53 54//54
f 53//53 17//17 16//16
f 55//55 22//22 19//19
f 22//22 55//55 56//56
f 57//57 23//23 58//58
f 23//23 25//25 58//58
f 58//58 25//25 59//59
f 25//25 27//27 59//59
f 60//60 30//30 4//4
f 60//60 4//4 46//46
f 61//61 47//47 62//62
f 47//47 61//61 46//46
f 48//48 63//63 64//64
f 64//64 49//49 48//48
f 65//65 51//51 66//66
f 51//51 65//65 50//50
f 67//67 66//66 51//51
f 67//67 51//51 52//52
f 68//68 54//54 53//53
f 54//54 68//68 69//69
f 70//70 56//56 55//55
f 56//56 70//70 71//71
f 72//72 57//57 73//73
f 57//57 58//58 73//73
f 73//73 58//58 74//74
f 58//58 59//59 74//74
f 75//75 60//60 46//46
f 75//75 46//46 61//61
f 76//76 77//77 78//78
f 77//77 76//76 79//79
f 80//80 81//81 82//82
f 82//82 83//83 80//80
f 84//84 85//85 86//86
f 85//85 84//84 87//87
f 86//86 88//88 89//89
f 88//88 86//86 85//85
f 90//90 91//91 92//92
f 91//91 90//90 93//93
f 94//94 95//95 96//96
f 95//95 94//94 97//97
f 98//98 99//99 100//100
f 99//99 101//101 100//100
f 100//100 101//101 102//102
f 101//101 103//103 102//102
f 104//104 105//105 79//79
f 104//104 79//79 76//76
f 106//106 78//78 107//107
f 78//78 106//106 76//76
f 81//81 108//108 109//109
f 109//109 82//82 81//81
f 110//110 86//86 111//111
f 86//86 110//110 84//84
f 111//111 89//89 112//112
f 89//89 111//111 86//86
f 113//113 93//93 90//90
f 93//93 113//113 114//114
f 115//115 97//97 94//94
f 97//97 115//115 116//116
f 117//117 98//98 118//118
f 98//98 100//100 118//118
f 118//118 100//100 119//119
f 100//100 102//102 119//119
f 120//120 104//104 76//76
f 120//120 76//76 106//106
f 121//121 122//122 38//38
f 122//122 21//21 38//38
f 19//19 21//21 123//123
f 122//122 123//123 21//21
f 124//124 19//19 123//123
f 19//19 124//124 55//55
f 125//125 55//55 124//124
f 55//55 125//125 70//70
f 126//126 96//96 127//127
f 96//96 126//126 94//94
f 128//128 94//94 126//126
f 94//94 128//128 115//115
f 117//117 126//126 98//98
f 128//128 126//126 117//117
f 126//126 127//127 98//98
f 127//127 99//99 98//98
f 72//72 125//125 124//124
f 124//124 57//57 72//72
f 57//57 124//124 123//123
f 123//123 23//23 57//57
f 122//122 23//23 123//123
f 23//23 122//122 24//24
f 121//121 24//24 122//122
f 24//24 121//121 40//40
f 129//129 84//84 110//110
f 84//84 129//129 130//130
f 130//130 87//87 84//84
f 87//87 130//130 131//131
f 132//132 50//50 65//65
f 50//50 132//132 133//133
f 133//133 9//9 50//50
f 9//9 133//133 134//134
f 134//134 12//12 9//9
f 12//12 134//134 135//135
f 135//135 34//34 12//12
f 34//34 135//135 136//136
f 112//112 89//89 114//114
f 114//114 89//89 93//93
f 93//93 89//89 88//88
f 93//93 88//88 91//91
f 69//69 67//67 52//52
f 69//69 52//52 54//54
f 54//54 52//52 13//13
f 54//54 13//13 17//17
f 17//17 14//14 15//15
f 14//14 17//17 13//13
f 35//35 15//15 14//14
f 15//15 35//35 37//37
f 3//3 137//137 138//138
f 137//137 3//3 45//45
f 138//138 139//139 1//1
f 1//1 3//3 138//138
f 140//140 1//1 139//139
f 1//1 140//140 47//47
f 141//141 47//47 140//140
f 47//47 141//141 62//62
f 142//142 143//143 78//78
f 78//78 77//77 142//142
f 143//143 144//144 107//107
f 107//107 78//78 143//143
f 145//145 107//107 144//144
f 107//107 145//145 146//146
f 108//108 147//147 148//148
f 148//148 109//109 108//108
f 149//149 111//111 150//150
f 111//111 149//149 110//110
f 150//150 112//112 151//151
f 112//112 150//150 111//111
f 152//152 114//114 113//113
f 114//114 152//152 153//153
f 154//154 115//115 128//128
f 155//155 115//115 154//154
f 156//156 117//117 157//157
f 117//117 118//118 157//157
f 157//157 118//118 158//158
f 118//118 119//119 158//158
f 120//120 159//159 160//160
f 159//159 120//120 106//106
f 155//155 116//116 115//115
f 116//116 155//155 161//161
f 156//156 128//128 117//117
f 154//154 128//128 156//156
f 162//162 110//110 149//149
f 110//110 162//162 129//129
f 151//151 112//112 153//153
f 112//112 114//114 153//153
f 159//159 107//107 146//146
f 107//107 159//159 106//106
f 163//163 146//146 145//145
f 146//146 163//163 164//164
f 147//147 165//165 166//166
f 166//166 148//148 147//147
f 167//167 150//150 168//168
f 150//150 167//167 149//149
f 168//168 151//151 169//169
f 151//151 168//168 150//150
f 170//170 153//153 152//152
f 153//153 170//170 171//171
f 172//172 155//155 154//154
f 173//173 155//155 172//172
f 174//174 156//156 175//175
f 156//156 157//157 175//175
f 175//175 157//157 176//176
f 157//157 158//158 176//176
f 160//160 177//177 178//178
f 177//177 160//160 159//159
f 173//173 161//161 155//155
f 161//161 173//173 179//179
f 172//172 154//154 174//174
f 154//154 156//156 174//174
f 180//180 149//149 167//167
f 149//149 180//180 162//162
f 169//169 151//151 171//171
f 151//151 153//153 171//171
f 177//177 146//146 164//164
f 146//146 177//177 159//159
f 181//181 164//164 163//163
f 164//164 181//181 182//182
f 165//165 183//183 184//184
f 184//184 166//166 165//165
f 185//185 168//168 186//186
f 168//168 185//185 167//167
f 186//186 169//169 187//187
f 169//169 186//186 168//168
f 188//188 171//171 170//170
f 171//171 188//188 189//189
f 190//190 173//173 172//172
f 191//191 173//173 190//190
f 192//192 174//174 193//193
f 174//174 175//175 193//193
f 193//193 175//175 194//194
f 175//175 176//176 194//194
f 195//195 178//178 177//177
f 195//195 177//177 196//196
f 191//191 179//179 173//173
f 179//179 191//191 197//197
f 192//192 172//172 174//174
f 190//190 172//172 192//192
f 198//198 167//167 185//185
f 167//167 198//198 180//180
f 187//187 171//171 189//189
f 171//171 187//187 169//169
f 164//164 182//182 177//177
f 177//177 182//182 196//196
f 181//181 199//199 182//182
f 182//182 199//199 200//200
f 183//183 201//201 202//202
f 202//202 184//184 183//183
f 203//203 186//186 204//204
f 186//186 203//203 185//185
f 204//204 187//187 205//205
f 187//187 204//204 186//186
f 206//206 189//189 207//207
f 207//207 189//189 188//188
f 208//208 191//191 190//190
f 209//209 191//191 208//208
f 210//210 192//192 211//211
f 192//192 193//193 211//211
f 211//211 193//193 212//212
f 193//193 194//194 212//212
f 196//196 213//213 214//214
f 214//214 195//195 196//196
f 209//209 197//197 191//191
f 197//197 209//209 215//215
f 210//210 190//190 192//192
f 208//208 190//190 210//210
f 216//216 185//185 203//203
f 185//185 216//216 198//198
f 205//205 189//189 206//206
f 189//189 205//205 187//187
f 182//182 213//213 196//196
f 213//213 182//182 200//200
f 200//200 199//199 217//217
f 217//217 202//202 201//201
f 203//203 204//204 217//217
f 204//204 205//205 217//217
f 206//206 207//207 217//217
f 209//209 208//208 217//217
f 210//210 211//211 217//217
f 211//211 212//212 217//217
f 213//213 212//212 214//214
f 213//213 217//217 212//212
f 217//217 207//207 209//209
f 209//209 207//207 215//215
f 208//208 210//210 217//217
f 216//216 203//203 217//217
f 205//205 206//206 217//217
f 213//213 200//200 217//217
f 188//188 215//215 207//207
f 215//215 188//188 197//197
f 179//179 188//188 170//170
f 188//188 179//179 197//197
f 161//161 170//170 152//152
f 170//170 161//161 179//179
f 116//116 152//152 113//113
f 152//152 116//116 161//161
f 113//113 97//97 116//116
f 97//97 113//113 90//90
f 97//97 92//92 95//95
f 92//92 97//97 90//90
f 68//68 56//56 71//71
f 56//56 68//68 53//53
f 22//22 53//53 16//16
f 53//53 22//22 56//56
f 20//20 16//16 18//18
f 16//16 20//20 22//22
f 39//39 18//18 36//36
f 18//18 39//39 20//20
f 202//202 181//181 184//184
f 199//199 181//181 202//202
f 166//166 181//181 163//163
f 181//181 166//166 184//184
f 148//148 163//163 145//145
f 163//163 148//148 166//166
f 109//109 145//145 144//144
f 145//145 109//109 148//148
f 82//82 144//144 143//143
f 144//144 82//82 109//109
f 143//143 83//83 82//82
f 83//83 143//143 142//142
f 141//141 49//49 64//64
f 49//49 141//141 140//140
f 140//140 7//7 49//49
f 7//7 140//140 139//139
f 139//139 8//8 7//7
f 8//8 139//139 138//138
f 138//138 32//32 8//8
f 32//32 138//138 137//137
f 212//212 194//194 214//214
f 194//194 195//195 214//214
f 194//194 176//176 195//195
f 176//176 178//178 195//195
f 176//176 158//158 178//178
f 158//158 160//160 178//178
f 158//158 119//119 160//160
f 119//119 120//120 160//160
f 119//119 102//102 120//120
f 102//102 104//104 120//120
f 102//102 103//103 104//104
f 103//103 105//105 104//104
f 74//74 59//59 75//75
f 59//59 60//60 75//75
f 59//59 27//27 60//60
f 27//27 30//30 60//60
f 29//29 30//30 28//28
f 27//27 28//28 30//30
f 43//43 29//29 42//42
f 28//28 42//42 29//29
f 142//142 64//64 83//83
f 64//64 142//142 141//141
f 83//83 63//63 80//80
f 63//63 83//83 64//64
f 131//131 65//65 87//87
f 65//65 131//131 132//132
f 87//87 66//66 85//85
f 66//66 87//87 65//65
f 85//85 67//67 88//88
f 67//67 85//85 66//66
f 91//91 88//88 67//67
f 91//91 67//67 69//69
f 92//92 69//69 68//68
f 69//69 92//92 91//91
f 71//71 92//92 68//68
f 92//92 71//71 95//95
f 95//95 71//71 96//96
f 70//70 96//96 71//71
f 96//96 70//70 127//127
f 125//125 127//127 70//70
f 127//127 125//125 99//99
f 125//125 72//72 99//99
f 99//99 72//72 101//101
f 72//72 73//73 101//101
f 101//101 73//73 103//103
f 73//73 74//74 103//103
f 103//103 74//74 105//105
f 74//74 75//75 105//105
f 105//105 61//61 79//79
f 61//61 105//105 75//75
f 79//79 62//62 77//77
f 62//62 79//79 61//61
f 77//77 62//62 142//142
f 142//142 62//62 141//141
f 135//135 5//5 136//136
f 5//5 31//31 136//136
f 134//134 6//6 135//135
f 6//6 5//5 135//135
f 133//133 48//48 134//134
f 48//48 6//6 134//134
f 133//133 132//132 63//63
f 63//63 48//48 133//133
f 80//80 132//132 131//131
f 132//132 80//80 63//63
f 131//131 130//130 81//81
f 81//81 80//80 131//131
f 130//130 129//129 108//108
f 108//108 81//81 130//130
f 129//129 162//162 147//147
f 147//147 108//108 129//129
f 162//162 180//180 165//165
f 165//165 147//147 162//162
f 180//180 198//198 183//183
f 183//183 165//165 180//180
f 198//198 216//216 201//201
f 201//201 183//183 198//198
f 217//217 201//201 216//216
f 217//217 199//199 202//202
