# Blender v2.93.5 OBJ File: ''
# www.blender.org
mtllib aletas_izq_1.mtl
o aletas_Izq_shark.001
v -1.043456 -0.843695 -0.609802
v -0.520754 -0.387984 -1.117117
v -0.393334 -0.642065 -1.193771
v -0.929809 -1.123595 -0.634758
v -1.411748 -0.175421 0.298058
v -0.960651 0.204965 0.013775
v -1.320111 -0.349524 -0.132804
v -0.838933 0.044977 -0.482597
v -1.379287 0.012018 1.195218
v -0.890734 0.431276 1.501748
v -0.973927 0.385126 1.013882
v -1.278717 0.032816 1.634018
v -1.113031 -0.002569 2.031636
v -0.723312 0.416620 1.918625
v -0.449882 0.291498 2.340954
v -0.859725 -0.113706 2.476567
v -0.614056 -0.329747 2.693385
v -0.177141 0.038051 2.547982
v -0.442297 -0.865835 2.094765
v -0.024686 -0.313085 2.371293
v -0.494238 -0.599111 2.506993
v 0.050231 -0.642683 1.943718
v -0.365298 -1.285757 1.061516
v -0.403034 -1.443274 0.491120
v 0.173173 -1.130675 0.646878
v 0.144538 -1.289275 -0.089252
v -0.506518 -1.535239 -0.047573
v 0.010300 -1.295935 -0.788090
v -0.714055 0.692690 -0.320861
v -0.616359 0.556749 -0.882390
v -0.593950 0.883547 1.453353
v -0.684838 0.849863 0.872403
v -0.375109 0.898119 1.916791
v 0.176994 0.518007 2.441124
v -0.096143 0.775866 2.264680
v 0.498145 -0.398778 1.877140
v 0.379795 0.038179 2.305130
v 0.685055 -0.968123 0.208950
v 0.663856 -1.098746 -0.834366
v 0.568332 -0.915236 -1.831749
v 0.218652 -0.570646 -1.994663
v -0.050236 -0.233542 -1.924886
v -0.267895 0.066973 -1.714759
v -1.616754 -1.261153 -0.162622
v -1.465976 -1.525603 -0.141166
v -1.904842 -0.522787 0.582524
v -1.863222 -0.715483 0.223204
v -1.844442 -0.311796 1.399727
v -1.733617 -0.297926 1.819027
v -1.569166 -0.340322 2.223458
v -1.115432 -0.618123 2.877881
v -1.340448 -0.432530 2.661992
v -0.973295 -1.070471 2.307751
v -1.012267 -0.840871 2.696026
v -0.968009 -1.600852 0.964878
v -0.924792 -1.447317 1.446652
v -1.064717 -1.719138 0.509636
v -1.232290 -1.748717 0.104216
v -0.719347 -1.454856 -0.483488
v -2.137586 -1.574370 0.246935
v -1.986601 -1.813620 0.310999
v -2.431240 -0.809423 0.873524
v -2.404611 -1.002325 0.561144
v -2.345555 -0.602827 1.624302
v -2.228223 -0.591268 2.032889
v -2.064996 -0.640562 2.430008
v -1.859078 -0.723180 2.864756
v -1.657076 -0.885266 3.079251
v -1.532433 -1.258740 2.549073
v -1.566830 -1.068440 2.907244
v -1.549806 -1.771613 1.369749
v -1.504155 -1.615324 1.795410
v -1.634844 -1.897345 0.956469
v -1.779202 -1.962264 0.578322
v -2.700440 -1.791785 0.647656
v -3.109415 -2.257962 1.136419
v -3.271847 -2.020774 1.056267
v -2.525131 -2.040679 0.720463
v -3.518486 -1.345663 1.522972
v -2.970703 -1.065893 1.188424
v -3.510729 -1.467291 1.327994
v -2.954556 -1.231321 0.940398
v -2.746090 -0.877470 2.259373
v -3.419194 -1.175260 2.134466
v -3.301592 -1.177397 2.512398
v -2.867581 -0.884420 1.861884
v -2.584953 -0.945187 2.639538
v -3.148397 -1.242505 2.870035
v -2.404383 -1.015530 3.030030
v -3.000078 -1.302815 3.215092
v -2.854714 -1.415145 3.392069
v -2.224576 -1.151639 3.224447
v -2.747105 -1.682904 3.026922
v -2.148880 -1.300069 3.085537
v -2.782258 -1.542799 3.273939
v -2.120737 -1.458318 2.794827
v -2.773269 -2.160207 2.056000
v -2.102702 -1.796826 2.117279
v -2.735917 -2.005635 2.419005
v -2.144641 -1.955755 1.725216
v -2.838612 -2.291226 1.693146
v -2.216765 -2.084127 1.332945
v -2.951077 -2.363873 1.362730
v -2.344099 -2.158736 0.978815
v -3.758064 -2.486478 1.597954
v -3.900128 -2.270459 1.521120
v -4.086775 -1.672047 1.905592
v -4.086460 -1.768407 1.756642
v -4.011370 -1.500699 2.435322
v -3.901047 -1.511701 2.771927
v -3.791434 -1.559544 3.068112
v -3.674992 -1.609794 3.365450
v -3.555817 -1.712318 3.516867
v -3.462368 -1.936375 3.224999
v -3.494241 -1.819137 3.422943
v -3.470142 -2.382665 2.412861
v -3.434789 -2.243963 2.730659
v -3.522919 -2.507275 2.101629
v -3.618688 -2.582776 1.811712
v 0.618882 -0.726012 1.094506
v 0.139969 -0.912886 1.335240
v -0.381351 -1.092649 1.618348
v -0.926696 -1.269834 1.904469
v -1.502956 -1.444349 2.192456
v -2.732075 -1.848149 2.757517
v -2.101941 -1.637128 2.474138
v -3.435469 -2.092803 2.997692
v -4.062875 -1.585683 2.105707
v -3.489218 -1.248175 1.775885
v -2.942096 -0.952519 1.488434
v -2.413965 -0.675451 1.228297
v -1.900241 -0.386740 0.984635
v -1.428816 -0.055731 0.743536
v -0.997453 0.310564 0.505297
v -0.745852 0.785837 0.265671
v -0.667282 -0.176619 -0.902603
v -0.452267 0.331140 -1.369663
v -1.166516 -0.597212 -0.461784
v -1.757123 -0.997916 -0.050403
v -2.290394 -1.303717 0.321766
v -2.863686 -1.497832 0.730282
v -3.427583 -1.740704 1.121243
v -4.019015 -2.011533 1.561554
v -4.604964 -2.292248 2.066344
v -4.510448 -2.513669 2.019670
v -4.651927 -2.017346 2.323975
v -4.647897 -2.081640 2.225310
v -4.590566 -1.889143 2.752115
v -4.521669 -1.896726 3.013413
v -4.438519 -1.932104 3.243971
v -4.358779 -1.965063 3.466912
v -4.272463 -2.041432 3.591725
v -4.158810 -2.346457 3.229728
v -4.187872 -2.219831 3.411731
v -4.155482 -2.598302 2.771693
v -4.145452 -2.481915 3.014410
v -4.192181 -2.709646 2.519804
v -4.391044 -2.708485 2.092808
v -4.263183 -2.781194 2.278847
v -4.222156 -2.125218 3.538452
v -4.641055 -1.944363 2.474678
v -5.075494 -2.536939 2.546080
v -5.009089 -2.709378 2.516174
v -5.121592 -2.331198 2.737457
v -5.121657 -2.381711 2.664112
v -5.055841 -2.271802 3.050486
v -5.017625 -2.269171 3.243057
v -4.989839 -2.280171 3.412596
v -4.948689 -2.291373 3.586740
v -4.891456 -2.343994 3.690304
v -4.797402 -2.575330 3.436176
v -4.819084 -2.476408 3.586266
v -4.747035 -2.770483 3.080681
v -4.763059 -2.671926 3.267050
v -4.760674 -2.859365 2.889359
v -4.923986 -2.866597 2.586107
v -4.820864 -2.910642 2.711605
v -4.850492 -2.404678 3.666224
v -5.096512 -2.288337 2.857403
v -5.420625 -2.717481 2.957855
v -5.371242 -2.836582 2.963112
v -5.443500 -2.562536 3.077471
v -5.442189 -2.592216 3.011539
v -5.391768 -2.541754 3.303066
v -5.352775 -2.547935 3.434483
v -5.331656 -2.551414 3.546386
v -5.301752 -2.555030 3.662132
v -5.269080 -2.590827 3.731033
v -5.238946 -2.719960 3.570410
v -5.260978 -2.657859 3.677809
v -5.172843 -2.860296 3.307430
v -5.208978 -2.791287 3.443110
v -5.175680 -2.928916 3.179302
v -5.293285 -2.928258 2.982759
v -5.198694 -2.960095 3.048002
v -5.264851 -2.623291 3.717417
v -5.426377 -2.551899 3.172302
v -5.648953 -2.845578 3.323730
v -5.615417 -2.915709 3.328959
v -5.637199 -2.722554 3.319412
v -5.620708 -2.729138 3.249110
v -5.638133 -2.738004 3.505268
v -5.617147 -2.727216 3.577202
v -5.603498 -2.723325 3.650192
v -5.562002 -2.750198 3.751270
v -5.586127 -2.728706 3.714348
v -5.544393 -2.828598 3.654809
v -5.545157 -2.784973 3.718565
v -5.502740 -2.918408 3.498734
v -5.526494 -2.879247 3.572714
v -5.472524 -2.964422 3.399884
v -5.540114 -2.979162 3.310650
v -5.430497 -2.984799 3.274930
v -5.551103 -2.766502 3.741235
v -5.648248 -2.737119 3.411684
v -5.712058 -2.891784 3.666167
v -0.929809 -1.123595 -0.634758
v -0.232084 -0.985869 -1.142770
v -0.719347 -1.454856 -0.483488
v -0.393334 -0.642065 -1.193771
v 0.218652 -0.570646 -1.994663
v 0.010300 -1.295935 -0.788090
v 0.568332 -0.915236 -1.831749
vn -0.6377 -0.0306 -0.7697
vn -0.7944 -0.0888 -0.6009
vn -0.7349 -0.2169 -0.6426
vn -0.5149 -0.3356 -0.7888
vn -0.6902 0.6560 -0.3054
vn -0.8339 0.4877 -0.2585
vn -0.7136 0.4846 -0.5059
vn -0.8573 0.3133 -0.4085
vn -0.6288 0.7773 0.0188
vn -0.7391 0.6433 0.1997
vn -0.7636 0.6456 0.0095
vn -0.5918 0.7793 0.2060
vn -0.5311 0.7598 0.3750
vn -0.6679 0.6098 0.4266
vn -0.4125 0.5341 0.7379
vn -0.3305 0.6883 0.6458
vn 0.2094 0.1342 0.9686
vn 0.1419 0.1231 0.9822
vn 0.4884 -0.7287 0.4801
vn 0.4845 -0.4689 0.7385
vn 0.5094 -0.5467 0.6646
vn 0.4765 -0.7218 0.5020
vn 0.4398 -0.8594 0.2608
vn 0.4025 -0.9024 0.1536
vn 0.4534 -0.8605 0.2325
vn 0.3951 -0.9163 0.0659
vn 0.2868 -0.9547 -0.0792
vn 0.2721 -0.9553 -0.1152
vn -0.9322 0.2982 -0.2052
vn -0.9381 0.1362 -0.3186
vn -0.8032 0.5494 0.2301
vn -0.8512 0.5227 0.0470
vn -0.6876 0.5279 0.4985
vn -0.0137 0.2030 0.9791
vn -0.4350 0.4413 0.7849
vn 0.5006 -0.6874 0.5262
vn 0.4701 -0.3161 0.8241
vn 0.4613 -0.8695 0.1765
vn 0.3217 -0.9424 -0.0915
vn 0.2701 -0.9420 -0.1992
vn -0.6956 -0.4367 -0.5705
vn -0.7569 -0.3485 -0.5529
vn -0.8583 -0.1623 -0.4867
vn -0.5465 -0.1621 -0.8216
vn -0.2709 -0.5939 -0.7575
vn -0.6284 0.7010 -0.3373
vn -0.6667 0.5069 -0.5463
vn -0.5342 0.8452 0.0134
vn -0.4816 0.8555 0.1902
vn -0.4232 0.8452 0.3263
vn 0.2418 0.1703 0.9553
vn -0.2587 0.7838 0.5645
vn 0.4708 -0.7507 0.4635
vn 0.4948 -0.5920 0.6361
vn 0.4086 -0.8909 0.1984
vn 0.4326 -0.8554 0.2848
vn 0.3492 -0.9355 0.0538
vn 0.0944 -0.9251 -0.3679
vn -0.0895 -0.8822 -0.4623
vn -0.4953 -0.2881 -0.8196
vn -0.2301 -0.7116 -0.6638
vn -0.5807 0.7262 -0.3680
vn -0.6257 0.5011 -0.5979
vn -0.4826 0.8757 0.0172
vn -0.4250 0.8854 0.1884
vn -0.3836 0.8700 0.3097
vn -0.2619 0.8082 0.5274
vn 0.2107 0.1551 0.9652
vn 0.4583 -0.7661 0.4506
vn 0.4691 -0.6329 0.6159
vn 0.4133 -0.8808 0.2309
vn 0.4295 -0.8467 0.3140
vn 0.3719 -0.9213 0.1133
vn 0.1610 -0.9603 -0.2279
vn -0.4779 -0.2944 -0.8276
vn -0.1829 -0.7459 -0.6405
vn -0.4676 -0.3178 -0.8248
vn -0.1781 -0.7404 -0.6481
vn -0.6061 0.7212 -0.3355
vn -0.5774 0.7307 -0.3643
vn -0.6480 0.5023 -0.5725
vn -0.6234 0.5051 -0.5969
vn -0.3976 0.8931 0.2105
vn -0.4725 0.8810 0.0248
vn -0.3857 0.8951 0.2239
vn -0.4654 0.8848 0.0242
vn -0.3585 0.8786 0.3154
vn -0.3428 0.8887 0.3044
vn -0.2622 0.8243 0.5017
vn -0.2668 0.8348 0.4816
vn 0.1395 0.1712 0.9753
vn 0.1808 0.1499 0.9720
vn 0.4310 -0.7571 0.4909
vn 0.4422 -0.6432 0.6251
vn 0.4130 -0.6375 0.6504
vn 0.4505 -0.7659 0.4588
vn 0.4241 -0.8614 0.2796
vn 0.4344 -0.8365 0.3339
vn 0.4371 -0.8307 0.3449
vn 0.4201 -0.8702 0.2575
vn 0.3893 -0.9068 0.1618
vn 0.3833 -0.9126 0.1422
vn 0.1968 -0.9624 -0.1871
vn 0.2007 -0.9602 -0.1943
vn -0.2003 -0.7551 -0.6242
vn -0.4930 -0.3362 -0.8025
vn -0.6414 0.6925 -0.3302
vn -0.6870 0.4878 -0.5386
vn -0.5078 0.8611 0.0260
vn -0.4231 0.8763 0.2303
vn -0.3843 0.8756 0.2925
vn -0.3059 0.8156 0.4911
vn 0.0788 0.1502 0.9855
vn 0.4158 -0.7392 0.5297
vn 0.3821 -0.6325 0.6738
vn 0.4282 -0.8529 0.2987
vn 0.4336 -0.8163 0.3817
vn 0.3965 -0.8968 0.1962
vn 0.1952 -0.9677 -0.1594
vn 0.4877 -0.8109 0.3234
vn 0.4785 -0.8055 0.3496
vn 0.4665 -0.8050 0.3667
vn 0.4526 -0.8050 0.3836
vn 0.4451 -0.8015 0.3993
vn 0.4425 -0.7844 0.4347
vn 0.4485 -0.7941 0.4101
vn 0.4268 -0.7558 0.4966
vn -0.5854 0.7891 -0.1862
vn -0.5485 0.8217 -0.1549
vn -0.5261 0.8359 -0.1563
vn -0.5329 0.8285 -0.1721
vn -0.5817 0.7969 -0.1631
vn -0.6566 0.7414 -0.1386
vn -0.7974 0.5934 -0.1096
vn -0.9001 0.4312 -0.0619
vn -0.8441 0.1058 -0.5257
vn -0.9121 -0.0132 -0.4098
vn -0.6990 0.2440 -0.6722
vn -0.6481 0.2058 -0.7332
vn -0.6110 0.1238 -0.7819
vn -0.6072 0.1353 -0.7829
vn -0.6119 0.1121 -0.7830
vn -0.6516 0.0965 -0.7524
vn -0.7031 0.0976 -0.7043
vn -0.5529 -0.3343 -0.7632
vn -0.6844 0.6408 -0.3478
vn -0.7254 0.4538 -0.5176
vn -0.5616 0.8251 0.0619
vn -0.4884 0.8436 0.2231
vn -0.4403 0.8546 0.2752
vn -0.3536 0.8140 0.4608
vn 0.0285 0.2353 0.9715
vn 0.4294 -0.7309 0.5306
vn 0.4212 -0.6953 0.5823
vn 0.4295 -0.8356 0.3425
vn 0.4313 -0.7884 0.4387
vn 0.3952 -0.8877 0.2360
vn -0.2407 -0.7802 -0.5773
vn 0.1835 -0.9774 -0.1055
vn 0.3711 -0.5301 0.7624
vn -0.6366 0.7517 -0.1725
vn -0.7453 0.0448 -0.6652
vn -0.6149 -0.3704 -0.6962
vn -0.7133 0.6501 -0.2620
vn -0.7686 0.3938 -0.5041
vn -0.5841 0.8072 0.0855
vn -0.5513 0.8232 0.1359
vn -0.5352 0.8296 0.1594
vn -0.4505 0.8050 0.3862
vn -0.0735 0.3421 0.9368
vn 0.4206 -0.7377 0.5281
vn 0.4144 -0.6685 0.6176
vn 0.4153 -0.8149 0.4044
vn 0.4187 -0.7681 0.4845
vn 0.3632 -0.8949 0.2594
vn -0.3063 -0.8100 -0.5001
vn 0.1296 -0.9893 -0.0676
vn 0.3335 -0.4170 0.8455
vn -0.6358 0.7709 -0.0376
vn -0.7766 -0.1058 -0.6211
vn -0.6508 -0.4679 -0.5980
vn -0.7080 0.6930 -0.1360
vn -0.8092 0.3657 -0.4598
vn -0.5617 0.8159 0.1368
vn -0.5438 0.8241 0.1585
vn -0.5369 0.8313 0.1440
vn -0.4678 0.7989 0.3781
vn -0.0679 0.2435 0.9675
vn 0.4116 -0.7482 0.5203
vn 0.4097 -0.7076 0.5758
vn 0.4083 -0.7881 0.4606
vn 0.4122 -0.7560 0.5085
vn 0.3433 -0.8896 0.3014
vn -0.3752 -0.8142 -0.4431
vn 0.0715 -0.9962 -0.0487
vn 0.3471 -0.5181 0.7817
vn -0.5992 0.7987 0.0551
vn -0.9171 -0.1864 -0.3523
vn -0.7444 -0.5679 -0.3513
vn -0.8908 0.4388 -0.1182
vn -0.8938 0.2095 -0.3965
vn -0.7263 0.6806 0.0959
vn -0.6863 0.7207 0.0973
vn -0.6740 0.7199 0.1656
vn -0.2404 0.0625 0.9687
vn -0.6003 0.6465 0.4708
vn 0.3674 -0.7600 0.5361
vn 0.2968 -0.7152 0.6328
vn 0.3512 -0.7925 0.4986
vn 0.3662 -0.7636 0.5317
vn 0.1978 -0.9199 0.3385
vn -0.3841 -0.9045 -0.1854
vn 0.0702 -0.9973 0.0191
vn -0.1366 -0.6945 0.7064
vn -0.8193 0.5732 0.0109
vn -0.7116 -0.4431 0.5452
vn -0.4272 -0.5321 -0.7310
vn -0.4411 -0.6264 -0.6428
vn -0.3019 -0.6572 -0.6906
vn -0.6194 -0.3915 -0.6805
vn -0.4945 -0.6491 -0.5780
vn -0.1904 -0.7999 -0.5691
vn -0.4064 -0.7317 -0.5472
usemtl Material.005
s 1
f 1//1 2//2 3//3
f 3//3 4//4 1//1
f 5//5 6//6 7//7
f 7//7 6//6 8//8
f 9//9 10//10 11//11
f 10//10 9//9 12//12
f 12//12 13//13 10//10
f 13//13 14//14 10//10
f 15//15 16//16 17//17
f 15//15 17//17 18//18
f 19//19 20//20 21//21
f 20//20 19//19 22//22
f 23//23 24//24 25//25
f 24//24 26//26 25//25
f 24//24 27//27 26//26
f 26//26 27//27 28//28
f 6//6 29//29 8//8
f 8//8 29//29 30//30
f 11//11 31//31 32//32
f 31//31 11//11 10//10
f 10//10 33//33 31//31
f 33//33 10//10 14//14
f 15//15 34//34 35//35
f 34//34 15//15 18//18
f 20//20 22//22 36//36
f 36//36 37//37 20//20
f 25//25 26//26 38//38
f 26//26 39//39 38//38
f 26//26 28//28 39//39
f 39//39 28//28 40//40
f 41//41 3//3 42//42
f 42//42 2//2 43//43
f 2//2 42//42 3//3
f 44//44 4//4 45//45
f 4//4 44//44 1//1
f 46//46 5//5 47//47
f 47//47 5//5 7//7
f 48//48 12//12 9//9
f 12//12 48//48 49//49
f 49//49 13//13 12//12
f 13//13 49//49 50//50
f 16//16 51//51 17//17
f 16//16 52//52 51//51
f 53//53 21//21 54//54
f 21//21 53//53 19//19
f 55//55 23//23 56//56
f 23//23 55//55 24//24
f 57//57 24//24 55//55
f 24//24 57//57 27//27
f 45//45 4//4 58//58
f 59//59 58//58 4//4
f 60//60 45//45 61//61
f 45//45 60//60 44//44
f 62//62 46//46 63//63
f 63//63 46//46 47//47
f 64//64 49//49 48//48
f 49//49 64//64 65//65
f 65//65 50//50 49//49
f 50//50 65//65 66//66
f 67//67 68//68 52//52
f 68//68 51//51 52//52
f 69//69 54//54 70//70
f 54//54 69//69 53//53
f 71//71 56//56 72//72
f 56//56 71//71 55//55
f 73//73 55//55 71//71
f 55//55 73//73 57//57
f 61//61 58//58 74//74
f 58//58 61//61 45//45
f 75//75 76//76 77//77
f 76//76 75//75 78//78
f 79//79 80//80 81//81
f 81//81 80//80 82//82
f 83//83 84//84 85//85
f 84//84 83//83 86//86
f 85//85 87//87 83//83
f 87//87 85//85 88//88
f 89//89 90//90 91//91
f 91//91 92//92 89//89
f 93//93 94//94 95//95
f 94//94 93//93 96//96
f 97//97 98//98 99//99
f 98//98 97//97 100//100
f 101//101 100//100 97//97
f 100//100 101//101 102//102
f 76//76 78//78 103//103
f 103//103 78//78 104//104
f 77//77 105//105 106//106
f 105//105 77//77 76//76
f 107//107 79//79 108//108
f 108//108 79//79 81//81
f 85//85 109//109 110//110
f 109//109 85//85 84//84
f 111//111 85//85 110//110
f 85//85 111//111 88//88
f 90//90 112//112 113//113
f 113//113 91//91 90//90
f 114//114 95//95 115//115
f 95//95 114//114 93//93
f 116//116 99//99 117//117
f 99//99 116//116 97//97
f 118//118 97//97 116//116
f 97//97 118//118 101//101
f 105//105 103//103 119//119
f 103//103 105//105 76//76
f 120//120 36//36 121//121
f 121//121 36//36 22//22
f 19//19 122//122 22//22
f 122//122 121//121 22//22
f 123//123 19//19 53//53
f 19//19 123//123 122//122
f 124//124 53//53 69//69
f 53//53 124//124 123//123
f 125//125 96//96 93//93
f 96//96 125//125 126//126
f 127//127 93//93 114//114
f 93//93 127//127 125//125
f 117//117 125//125 127//127
f 117//117 99//99 125//125
f 99//99 126//126 125//125
f 126//126 99//99 98//98
f 72//72 123//123 124//124
f 123//123 72//72 56//56
f 56//56 122//122 123//123
f 122//122 56//56 23//23
f 23//23 121//121 122//122
f 121//121 23//23 25//25
f 25//25 120//120 121//121
f 120//120 25//25 38//38
f 84//84 128//128 109//109
f 128//128 84//84 129//129
f 86//86 129//129 84//84
f 129//129 86//86 130//130
f 131//131 48//48 132//132
f 48//48 131//131 64//64
f 9//9 132//132 48//48
f 132//132 9//9 133//133
f 133//133 9//9 11//11
f 11//11 134//134 133//133
f 134//134 32//32 135//135
f 134//134 11//11 32//32
f 112//112 88//88 111//111
f 88//88 112//112 90//90
f 90//90 87//87 88//88
f 87//87 90//90 89//89
f 67//67 50//50 66//66
f 50//50 67//67 52//52
f 52//52 13//13 50//50
f 13//13 52//52 16//16
f 16//16 14//14 13//13
f 14//14 16//16 15//15
f 15//15 33//33 14//14
f 33//33 15//15 35//35
f 136//136 137//137 2//2
f 137//137 43//43 2//2
f 136//136 1//1 138//138
f 1//1 136//136 2//2
f 139//139 1//1 44//44
f 1//1 139//139 138//138
f 44//44 140//140 139//139
f 140//140 44//44 60//60
f 141//141 77//77 142//142
f 77//77 141//141 75//75
f 143//143 77//77 106//106
f 77//77 143//143 142//142
f 144//144 143//143 106//106
f 106//106 145//145 144//144
f 146//146 107//107 147//147
f 147//147 107//107 108//108
f 110//110 148//148 149//149
f 148//148 110//110 109//109
f 150//150 110//110 149//149
f 110//110 150//150 111//111
f 112//112 151//151 152//152
f 152//152 113//113 112//112
f 153//153 127//127 114//114
f 153//153 114//114 154//154
f 155//155 117//117 156//156
f 117//117 155//155 116//116
f 157//157 116//116 155//155
f 116//116 157//157 118//118
f 158//158 119//119 159//159
f 119//119 158//158 105//105
f 154//154 115//115 160//160
f 115//115 154//154 114//114
f 156//156 127//127 153//153
f 156//156 117//117 127//127
f 109//109 161//161 148//148
f 161//161 109//109 128//128
f 151//151 111//111 150//150
f 111//111 151//151 112//112
f 106//106 158//158 145//145
f 158//158 106//106 105//105
f 162//162 144//144 145//145
f 145//145 163//163 162//162
f 164//164 146//146 165//165
f 165//165 146//146 147//147
f 149//149 166//166 167//167
f 166//166 149//149 148//148
f 150//150 167//167 168//168
f 167//167 150//150 149//149
f 151//151 169//169 170//170
f 170//170 152//152 151//151
f 171//171 153//153 154//154
f 171//171 154//154 172//172
f 173//173 156//156 174//174
f 156//156 173//173 155//155
f 175//175 155//155 173//173
f 155//155 175//175 157//157
f 176//176 159//159 177//177
f 159//159 176//176 158//158
f 160//160 172//172 154//154
f 172//172 160//160 178//178
f 174//174 153//153 171//171
f 174//174 156//156 153//153
f 148//148 179//179 166//166
f 179//179 148//148 161//161
f 169//169 150//150 168//168
f 150//150 169//169 151//151
f 145//145 176//176 163//163
f 176//176 145//145 158//158
f 180//180 162//162 163//163
f 163//163 181//181 180//180
f 182//182 164//164 183//183
f 183//183 164//164 165//165
f 167//167 184//184 185//185
f 184//184 167//167 166//166
f 168//168 185//185 186//186
f 185//185 168//168 167//167
f 169//169 187//187 188//188
f 188//188 170//170 169//169
f 189//189 171//171 172//172
f 189//189 172//172 190//190
f 191//191 174//174 192//192
f 191//191 173//173 174//174
f 193//193 173//173 191//191
f 173//173 193//193 175//175
f 194//194 176//176 195//195
f 177//177 195//195 176//176
f 190//190 178//178 196//196
f 178//178 190//190 172//172
f 192//192 171//171 189//189
f 192//192 174//174 171//171
f 166//166 197//197 184//184
f 197//197 166//166 179//179
f 186//186 169//169 168//168
f 169//169 186//186 187//187
f 181//181 163//163 176//176
f 176//176 194//194 181//181
f 198//198 180//180 181//181
f 181//181 199//199 198//198
f 200//200 182//182 201//201
f 201//201 182//182 183//183
f 185//185 202//202 203//203
f 202//202 185//185 184//184
f 186//186 203//203 204//204
f 203//203 186//186 185//185
f 205//205 187//187 206//206
f 187//187 205//205 188//188
f 207//207 189//189 190//190
f 207//207 190//190 208//208
f 209//209 191//191 192//192
f 192//192 210//210 209//209
f 211//211 191//191 209//209
f 191//191 211//211 193//193
f 212//212 194//194 213//213
f 195//195 213//213 194//194
f 208//208 196//196 214//214
f 196//196 208//208 190//190
f 210//210 192//192 189//189
f 210//210 189//189 207//207
f 184//184 215//215 202//202
f 215//215 184//184 197//197
f 204//204 187//187 186//186
f 187//187 204//204 206//206
f 181//181 212//212 199//199
f 212//212 181//181 194//194
f 199//199 216//216 198//198
f 216//216 200//200 201//201
f 202//202 216//216 203//203
f 203//203 216//216 204//204
f 206//206 216//216 205//205
f 208//208 216//216 207//207
f 210//210 216//216 209//209
f 209//209 216//216 211//211
f 216//216 212//212 211//211
f 212//212 213//213 211//211
f 208//208 205//205 216//216
f 205//205 208//208 214//214
f 207//207 216//216 210//210
f 215//215 216//216 202//202
f 204//204 216//216 206//206
f 212//212 216//216 199//199
f 196//196 205//205 214//214
f 205//205 196//196 188//188
f 178//178 188//188 196//196
f 188//188 178//178 170//170
f 152//152 178//178 160//160
f 178//178 152//152 170//170
f 115//115 152//152 160//160
f 152//152 115//115 113//113
f 95//95 113//113 115//115
f 113//113 95//95 91//91
f 94//94 91//91 95//95
f 91//91 94//94 92//92
f 54//54 68//68 70//70
f 68//68 54//54 51//51
f 21//21 51//51 54//54
f 51//51 21//21 17//17
f 20//20 17//17 21//21
f 17//17 20//20 18//18
f 18//18 37//37 34//34
f 37//37 18//18 20//20
f 201//201 183//183 180//180
f 180//180 198//198 201//201
f 165//165 180//180 183//183
f 180//180 165//165 162//162
f 147//147 162//162 165//165
f 162//162 147//147 144//144
f 108//108 144//144 147//147
f 144//144 108//108 143//143
f 81//81 143//143 108//108
f 143//143 81//81 142//142
f 82//82 142//142 81//81
f 142//142 82//82 141//141
f 47//47 140//140 63//63
f 140//140 47//47 139//139
f 7//7 139//139 47//47
f 139//139 7//7 138//138
f 8//8 138//138 7//7
f 138//138 8//8 136//136
f 30//30 136//136 8//8
f 136//136 30//30 137//137
f 193//193 211//211 213//213
f 193//193 213//213 195//195
f 195//195 175//175 193//193
f 175//175 195//195 177//177
f 177//177 157//157 175//175
f 157//157 177//177 159//159
f 159//159 118//118 157//157
f 118//118 159//159 119//119
f 119//119 101//101 118//118
f 101//101 119//119 103//103
f 103//103 102//102 101//101
f 102//102 103//103 104//104
f 74//74 57//57 73//73
f 57//57 74//74 58//58
f 58//58 27//27 57//57
f 27//27 58//58 59//59
f 28//28 27//27 59//59
f 63//63 141//141 82//82
f 141//141 63//63 140//140
f 80//80 62//62 82//82
f 62//62 63//63 82//82
f 64//64 130//130 86//86
f 130//130 64//64 131//131
f 86//86 65//65 64//64
f 65//65 86//86 83//83
f 83//83 66//66 65//65
f 66//66 83//83 87//87
f 89//89 66//66 87//87
f 66//66 89//89 67//67
f 67//67 89//89 92//92
f 92//92 68//68 67//67
f 70//70 92//92 94//94
f 92//92 70//70 68//68
f 94//94 96//96 70//70
f 96//96 69//69 70//70
f 69//69 96//96 126//126
f 126//126 124//124 69//69
f 98//98 124//124 126//126
f 124//124 98//98 72//72
f 100//100 72//72 98//98
f 72//72 100//100 71//71
f 102//102 71//71 100//100
f 71//71 102//102 73//73
f 104//104 73//73 102//102
f 73//73 104//104 74//74
f 104//104 61//61 74//74
f 61//61 104//104 78//78
f 78//78 60//60 61//61
f 60//60 78//78 75//75
f 140//140 75//75 141//141
f 75//75 140//140 60//60
f 134//134 135//135 6//6
f 6//6 135//135 29//29
f 133//133 134//134 5//5
f 5//5 134//134 6//6
f 132//132 133//133 46//46
f 5//5 46//46 133//133
f 131//131 132//132 62//62
f 62//62 132//132 46//46
f 80//80 131//131 62//62
f 131//131 80//80 130//130
f 129//129 130//130 79//79
f 79//79 130//130 80//80
f 128//128 129//129 107//107
f 107//107 129//129 79//79
f 161//161 128//128 146//146
f 146//146 128//128 107//107
f 179//179 161//161 164//164
f 164//164 161//161 146//146
f 197//197 179//179 182//182
f 182//182 179//179 164//164
f 215//215 197//197 200//200
f 200//200 197//197 182//182
f 216//216 215//215 200//200
f 216//216 201//201 198//198
f 217//217 218//218 219//219
f 218//218 217//217 220//220
f 220//220 221//221 218//218
f 222//222 219//219 218//218
f 223//223 222//222 218//218
f 223//223 218//218 221//221
l 40 41
