# 3ds Max Wavefront OBJ Exporter v0.99 - (c)2007 guruware
# File Created: 26.12.2022 13:21:28

mtllib Pinguino_imagen.mtl

#
# object Cube
#

v  0.4086 2.8761 -1.8195
v  0.4086 2.8761 0.1805
v  0.5486 2.8761 0.1805
v  0.5486 2.8761 -1.8195
v  0.4086 0.0000 0.1805
v  0.5486 0.0000 0.1805
v  0.4086 0.0000 -1.8195
v  0.5486 0.0000 -1.8195
# 8 vertices

vn 0.0000 1.0000 -0.0000
vn 0.0000 0.0000 1.0000
vn -1.0000 0.0000 -0.0000
vn 0.0000 -1.0000 -0.0000
vn 1.0000 0.0000 -0.0000
vn 0.0000 0.0000 -1.0000
# 6 vertex normals

vt 0.0312 0.9492 0.0000
vt 0.0312 0.9026 0.0000
vt 0.0626 0.9026 0.0000
vt 0.0626 0.9492 0.0000
vt 0.0721 0.9417 0.0000
vt 0.0373 0.9417 0.0000
vt 0.0373 0.9213 0.0000
vt 0.0721 0.9213 0.0000
vt 0.0605 0.9414 0.0000
vt 0.0313 0.9414 0.0000
vt 0.0313 0.9122 0.0000
vt 0.0605 0.9122 0.0000
vt 0.0619 0.9064 0.0000
vt 0.0619 0.9478 0.0000
vt 0.0358 0.9478 0.0000
vt 0.0358 0.9064 0.0000
vt 1.0014 0.9942 0.0000
vt 0.0106 1.0027 0.0000
vt 0.0020 0.0063 0.0000
vt 0.9929 -0.0022 0.0000
vt 0.0760 0.9467 0.0000
vt 0.0368 0.9467 0.0000
vt 0.0368 0.9170 0.0000
vt 0.0760 0.9170 0.0000
# 24 texture coords

o Cube
g Cube
usemtl 07___Default
s off
f 1/1/1 2/2/1 3/3/1 
f 3/3/1 4/4/1 1/1/1 
f 3/5/2 2/6/2 5/7/2 
f 5/7/2 6/8/2 3/5/2 
f 2/9/3 1/10/3 7/11/3 
f 7/11/3 5/12/3 2/9/3 
f 8/13/4 6/14/4 5/15/4 
f 5/15/4 7/16/4 8/13/4 
f 4/17/5 3/18/5 6/19/5 
f 6/19/5 8/20/5 4/17/5 
f 1/21/6 4/22/6 8/23/6 
f 8/23/6 7/24/6 1/21/6 
# 12 faces

