# Blender v2.93.5 OBJ File: ''
# www.blender.org
mtllib nero_antebrazo_2.mtl
o antebrazo2_Body_TDA_Saber_Nero.004
v -0.382676 -0.211044 -0.064750
v -0.164183 -0.047250 -0.056422
v -0.334797 -0.264538 -0.080140
v -0.137088 -0.081916 -0.085908
v -0.314885 -0.310542 0.025523
v -0.083545 -0.152870 0.024471
v -0.095639 -0.137124 0.069841
v -0.339767 -0.319425 -0.030700
v -0.097698 -0.137886 -0.059893
v -0.380034 -0.180002 -0.003666
v -0.134848 -0.073950 0.087101
v -0.163836 -0.041977 0.045692
v -0.326378 -0.157883 0.037697
v -0.329060 -0.159320 0.037721
v -0.169556 -0.037255 0.047973
v -0.387061 -0.201026 0.026168
v -0.382614 -0.230820 0.063525
v -0.388494 -0.201317 0.025907
v -0.347372 -0.260551 0.075277
v -0.096720 -0.002789 0.000372
v -0.157026 -0.059105 -0.070501
v -0.177873 -0.027293 0.033929
v -0.044054 0.045213 0.069110
v -0.121773 -0.097702 0.095986
v 0.030513 -0.041173 -0.023720
v 0.032454 -0.060088 0.018221
v -0.088629 -0.147753 -0.035747
v -0.086352 -0.149398 0.057756
v 0.029775 -0.041133 -0.022290
v -0.113149 -0.118754 -0.079759
v 0.012309 0.017005 -0.068608
v -0.019410 0.046730 -0.070673
v -0.060917 0.068101 0.007035
v 0.016468 -0.009179 0.096181
v -0.175833 -0.030912 0.003101
v -0.174451 -0.031448 0.023985
vt 0.363818 0.622487
vt 0.365537 0.601101
vt 0.369078 0.622089
vt 0.368388 0.600886
vt 0.569102 0.628260
vt 0.570122 0.608784
vt 0.573965 0.609400
vt 0.564760 0.630555
vt 0.563919 0.610177
vt 0.153828 0.617287
vt 0.149672 0.635502
vt 0.148703 0.616342
vt 0.170688 0.642059
vt 0.166860 0.642059
vt 0.165903 0.626327
vt 0.156916 0.621767
vt 0.157980 0.635809
vt 0.374120 0.601547
vt 0.165446 0.620510
vt 0.167892 0.619112
vt 0.155939 0.616532
vt 0.171573 0.619786
vt 0.176308 0.641518
vt 0.573964 0.630190
vt 0.372923 0.625631
vt 0.084926 0.708384
vt 0.079798 0.702004
vt 0.088514 0.702265
vt 0.089919 0.714033
vt 0.661828 0.504486
vt 0.664087 0.516200
vt 0.656342 0.516350
vt 0.640860 0.719836
vt 0.638014 0.720567
vt 0.640860 0.709371
vt 0.633891 0.711278
vt 0.202685 0.713591
vt 0.201992 0.701220
vt 0.205747 0.701393
vt 0.207932 0.715585
vt 0.211277 0.701274
vt 0.211277 0.714956
vt 0.078784 0.714033
vt 0.703685 0.114768
vt 0.703685 0.119931
vt 0.698537 0.116170
vt 0.655249 0.503396
vt 0.631084 0.721353
vt 0.651835 0.516350
vn -0.3476 0.5038 -0.7908
vn -0.4969 0.6665 -0.5557
vn 0.1869 -0.2967 -0.9365
vn -0.1146 0.0928 -0.9891
vn 0.5111 -0.8102 0.2869
vn 0.5694 -0.8166 0.0950
vn 0.3455 -0.5309 0.7738
vn 0.5095 -0.7676 -0.3888
vn 0.4476 -0.6118 -0.6522
vn -0.6024 0.7981 0.0120
vn -0.1768 0.1997 0.9638
vn -0.4257 0.5473 0.7206
vn -0.4510 0.5837 0.6752
vn -0.5834 0.7315 0.3530
vn -0.5502 0.8329 -0.0600
vn -0.5480 0.6210 0.5605
vn -0.3784 0.4160 0.8269
vn -0.5853 0.7279 0.3572
vn 0.0434 -0.1980 0.9792
vn -0.5490 0.8184 -0.1697
vn -0.3218 0.5644 -0.7602
vn -0.5159 0.8323 0.2030
vn -0.5276 0.5128 0.6772
vn -0.0535 -0.0332 0.9980
vn 0.6461 -0.6841 -0.3384
vn 0.6821 -0.7262 0.0857
vn 0.6098 -0.7875 -0.0890
vn 0.5387 -0.7046 0.4619
vn 0.5316 -0.4457 -0.7202
vn 0.5473 -0.5256 -0.6513
vn 0.3058 -0.2397 -0.9214
vn 0.2497 -0.1958 -0.9483
vn -0.1858 0.2401 -0.9528
vn -0.8420 0.3902 0.3726
vn 0.2355 -0.1978 0.9515
usemtl AtlasBakedMat9755704425
s 1
f 1/1/1 2/2/2 3/3/3
f 2/2/2 4/4/4 3/3/3
f 5/5/5 6/6/6 7/7/7
f 8/8/8 9/9/9 6/6/6
f 10/10/10 2/11/2 1/12/1
f 11/13/11 12/14/12 13/15/13
f 14/16/14 15/17/15 10/10/10
f 3/3/3 4/4/4 9/18/9
f 13/15/13 16/19/16 17/20/17
f 10/10/10 18/21/18 14/16/14
f 17/20/17 19/22/19 11/13/11
f 7/23/7 11/13/11 19/22/19
f 19/24/19 5/5/5 7/7/7
f 6/6/6 5/5/5 8/8/8
f 9/18/9 8/25/8 3/3/3
f 13/15/13 17/20/17 11/13/11
f 20/26/20 21/27/21 22/28/22
f 22/28/22 23/29/23 20/26/20
f 23/30/23 22/31/22 24/32/24
f 25/33/25 26/34/26 27/35/27
f 26/34/26 28/36/28 27/35/27
f 29/37/29 27/38/30 30/39/31
f 15/17/15 2/11/2 10/10/10
f 31/40/32 30/39/31 21/41/21
f 32/42/33 31/40/32 21/41/21
f 32/43/33 21/27/21 20/26/20
f 33/44/34 20/45/20 23/46/23
f 34/47/35 23/30/23 24/32/24
f 26/34/26 34/48/35 28/36/28
f 34/47/35 24/32/24 28/49/28
f 31/40/32 29/37/29 30/39/31
l 35 36
