# Blender v2.93.5 OBJ File: ''
# www.blender.org
mtllib Koharu_Antebrazo_1.mtl
o Antebrazo_1_Body_íë¸Œ.005
v 0.114238 -0.008330 -0.026875
v 0.103293 -0.015833 -0.023860
v 0.102173 -0.009552 -0.027814
v 0.042545 -0.012368 -0.028553
v 0.020826 -0.019925 -0.019948
v 0.016827 -0.014036 -0.026702
v 0.071936 -0.003897 0.018957
v 0.095252 0.003777 0.015227
v 0.071337 0.003518 0.016517
v 0.066737 -0.018363 -0.023485
v 0.066209 -0.011704 -0.029799
v 0.001581 0.007656 -0.030016
v -0.010915 0.005098 -0.031889
v -0.005156 0.018531 -0.026259
v 0.128065 -0.015969 -0.023892
v 0.134812 -0.011326 -0.028216
v 0.136091 -0.014277 -0.026328
v 0.100233 0.004631 -0.028699
v 0.113125 -0.002262 -0.028895
v 0.100352 -0.002500 -0.029181
v 0.116567 -0.020005 0.008090
v 0.130655 -0.011720 0.012501
v 0.117304 -0.011161 0.013808
v 0.020936 0.006675 -0.027740
v 0.042363 -0.003389 -0.030836
v 0.019093 -0.003622 -0.029913
v 0.026333 -0.019228 0.011387
v 0.048300 -0.011952 0.015873
v 0.024390 -0.013228 0.015167
v 0.071158 -0.023108 0.001998
v 0.048559 -0.018278 0.011012
v 0.048601 -0.022568 0.003341
v 0.094905 -0.011848 0.015127
v 0.072115 -0.011642 0.016638
v 0.117630 -0.002761 0.015871
v 0.130792 0.002857 0.012387
v 0.117358 0.003507 0.013717
v 0.124913 -0.022133 -0.005609
v 0.113295 -0.022466 -0.002661
v 0.143391 0.016193 -0.004140
v 0.126992 0.018936 -0.012799
v 0.129766 0.017489 -0.003786
v 0.026104 -0.022313 0.003656
v 0.068898 0.016584 0.007885
v 0.091502 0.020533 -0.000623
v 0.068223 0.021110 0.000487
v 0.087841 -0.021516 -0.016369
v 0.069615 -0.024419 -0.006901
v 0.067980 -0.022989 -0.015498
v 0.112281 0.019229 -0.001905
v 0.092899 0.016531 0.006729
v 0.114335 0.015677 0.005308
v 0.083364 0.005478 -0.029703
v 0.065461 -0.003184 -0.031318
v 0.065041 0.006008 -0.029593
v 0.105357 0.018779 -0.018895
v 0.089857 0.022155 -0.009200
v 0.109435 0.020518 -0.010360
v 0.066747 0.021219 -0.017803
v 0.044264 0.023777 -0.007203
v 0.067575 0.022487 -0.008412
v 0.044919 -0.022799 -0.013605
v 0.025452 -0.024558 -0.003903
v 0.022541 -0.023495 -0.011799
v 0.119262 -0.018827 -0.020636
v 0.109854 -0.023236 -0.010737
v 0.106080 -0.020128 -0.017703
v 0.012593 0.024006 -0.016560
v -0.005403 0.028547 -0.007616
v 0.012093 0.027644 -0.006535
v 0.007688 -0.002010 -0.029504
v 0.005038 -0.015238 -0.026675
v -0.006643 -0.011202 -0.029320
v 0.011277 0.026202 0.002076
v 0.019178 0.018780 0.007641
v 0.021572 0.023298 0.001331
v 0.126034 -0.022885 -0.014071
v 0.144073 -0.021665 -0.006999
v 0.143772 -0.003188 0.012771
v 0.143707 0.002273 0.010871
v 0.143424 -0.017780 0.007049
v 0.143698 -0.010986 0.011194
v 0.126881 0.009153 -0.026607
v 0.134083 0.002894 -0.030201
v 0.124619 0.003987 -0.028956
v 0.143621 0.010503 -0.027113
v 0.137828 0.012837 -0.023099
v 0.143663 0.012542 -0.022989
v 0.143775 -0.013681 -0.027266
v 0.137719 -0.016163 -0.024183
v 0.143696 -0.002101 -0.031439
v 0.133855 -0.002142 -0.030387
v 0.134071 -0.007118 -0.029700
v 0.143729 -0.010507 -0.029380
v 0.143796 0.014845 -0.016977
v 0.133914 0.015051 -0.019341
v 0.143848 -0.018629 -0.019267
v 0.143827 -0.016058 -0.024005
v 0.123996 -0.007684 -0.028120
v 0.136099 0.011094 -0.026097
v 0.128485 0.013285 -0.023362
v 0.120883 0.016396 -0.020089
v 0.123612 -0.002076 -0.028968
v 0.133351 -0.018410 -0.020912
v 0.116707 0.009594 -0.025952
v 0.113626 0.003855 -0.028084
v 0.125353 -0.012592 -0.026514
v 0.132184 0.015292 0.003102
v 0.143216 0.013837 0.003698
v 0.132158 -0.020481 0.004832
v 0.011326 0.011333 -0.028090
v 0.021969 0.015159 -0.024193
v -0.005566 0.010734 0.020567
v 0.003974 0.016494 0.015141
v -0.008736 0.014646 0.019004
v 0.012248 -0.026739 -0.011949
v 0.007541 -0.022670 -0.020060
v 0.006676 -0.016866 0.017170
v 0.021322 -0.004727 0.016967
v 0.002578 -0.003134 0.019171
v 0.043701 0.021641 -0.017155
v 0.024857 0.024988 -0.006974
v 0.013598 -0.026908 -0.002937
v -0.010248 0.018067 0.015889
v 0.072039 -0.018834 0.010559
v 0.130801 -0.003672 0.014555
v 0.130592 0.009290 0.009831
v 0.042244 0.016401 0.009336
v 0.042905 0.021757 0.001663
v 0.070203 0.010585 0.013099
v 0.048190 -0.004458 0.017981
v 0.143675 -0.006654 -0.030714
v 0.115930 -0.014718 -0.025518
v 0.143646 0.007031 -0.030008
v 0.134732 0.007473 -0.028771
v 0.065132 0.014667 -0.025779
v 0.102353 0.011954 -0.025907
v 0.043140 -0.018782 -0.021749
v 0.085899 -0.017215 -0.023498
v 0.009872 -0.026317 0.002788
v 0.047391 -0.024537 -0.005302
v 0.042238 0.014301 -0.025763
v 0.023404 0.022454 -0.016192
v 0.012889 0.016776 -0.023966
v 0.087530 0.020713 -0.018446
v 0.016285 0.012362 0.013365
v 0.007044 0.009147 0.016527
v 0.008510 0.006069 0.016250
v 0.018996 0.004287 0.015591
v 0.044664 0.010711 0.013359
v 0.084790 0.014028 -0.026125
v 0.090241 -0.023354 -0.008506
v 0.083633 -0.002966 -0.030772
v 0.041866 0.005745 -0.028797
v 0.092407 -0.022070 -0.000047
v 0.084759 -0.010861 -0.028763
v 0.046657 0.003491 0.016382
v 0.095502 -0.003519 0.017502
v 0.094178 0.010551 0.012047
v 0.094203 -0.018914 0.008891
v 0.008952 -0.022763 0.010856
v -0.009372 0.023187 0.009822
v 0.007979 0.022444 0.009216
v 0.000906 -0.000869 0.021539
v -0.002493 0.007750 0.021208
v 0.006830 0.010351 0.016498
v 0.006538 0.012118 0.016205
v 0.116075 0.009913 0.010945
v 0.143727 0.007734 0.009017
v -0.000475 0.004170 0.021517
v -0.006724 0.027250 0.001728
v -0.005334 0.025872 -0.017762
v 0.143702 0.002616 -0.031330
vt 0.555261 0.533489
vt 0.560999 0.527936
vt 0.562252 0.532148
vt 0.595888 0.526631
vt 0.608398 0.517204
vt 0.612225 0.522941
vt 0.319494 0.492504
vt 0.330213 0.499742
vt 0.318151 0.496384
vt 0.581696 0.523845
vt 0.582734 0.528984
vt 0.623432 0.537699
vt 0.631454 0.535821
vt 0.627213 0.545257
vt 0.546729 0.529432
vt 0.543251 0.533344
vt 0.542345 0.531477
vt 0.564286 0.540326
vt 0.556324 0.537154
vt 0.563779 0.536198
vt 0.344700 0.489715
vt 0.350317 0.496509
vt 0.343440 0.495005
vt 0.610604 0.537853
vt 0.596596 0.532318
vt 0.611346 0.530611
vt 0.298765 0.475784
vt 0.309159 0.484666
vt 0.296002 0.479542
vt 0.323366 0.478866
vt 0.310745 0.480418
vt 0.312480 0.475825
vt 0.332298 0.491489
vt 0.320742 0.488463
vt 0.342330 0.499363
vt 0.348288 0.504317
vt 0.341358 0.502676
vt 0.351097 0.484350
vt 0.344889 0.483809
vt 0.352099 0.517609
vt 0.342790 0.520641
vt 0.345068 0.516199
vt 0.300803 0.471206
vt 0.314991 0.504214
vt 0.325607 0.511401
vt 0.313766 0.508643
vt 0.569122 0.521280
vt 0.578434 0.514031
vt 0.580178 0.518764
vt 0.336149 0.513826
vt 0.327189 0.507294
vt 0.338033 0.509944
vt 0.573984 0.539765
vt 0.583699 0.533863
vt 0.584399 0.539204
vt 0.562248 0.550694
vt 0.571295 0.556192
vt 0.560132 0.555750
vt 0.584186 0.550656
vt 0.596623 0.556625
vt 0.583910 0.556101
vt 0.592540 0.515738
vt 0.602562 0.507293
vt 0.605821 0.511625
vt 0.551503 0.526452
vt 0.556150 0.519715
vt 0.558845 0.523782
vt 0.616057 0.551583
vt 0.625749 0.558358
vt 0.615883 0.558119
vt 0.619280 0.531159
vt 0.620481 0.521347
vt 0.628771 0.524482
vt 0.283133 0.505161
vt 0.288183 0.500331
vt 0.289131 0.505110
vt 0.353074 0.480341
vt 0.360823 0.486885
vt 0.356009 0.502910
vt 0.355152 0.506018
vt 0.358267 0.494320
vt 0.357177 0.498608
vt 0.549065 0.544915
vt 0.544503 0.541341
vt 0.549969 0.541482
vt 0.539778 0.546446
vt 0.543206 0.548675
vt 0.539943 0.548948
vt 0.538220 0.532498
vt 0.541283 0.529989
vt 0.538998 0.539146
vt 0.544343 0.538534
vt 0.543921 0.535766
vt 0.538483 0.534534
vt 0.540109 0.552603
vt 0.545675 0.550892
vt 0.537514 0.527348
vt 0.537916 0.530326
vt 0.549617 0.534646
vt 0.543960 0.546632
vt 0.548510 0.548050
vt 0.550040 0.554799
vt 0.553191 0.550112
vt 0.550196 0.537905
vt 0.536410 0.520305
vt 0.543509 0.527518
vt 0.555033 0.544616
vt 0.556423 0.540808
vt 0.548531 0.531737
vt 0.347058 0.512702
vt 0.353036 0.513365
vt 0.352887 0.490844
vt 0.617154 0.540435
vt 0.610147 0.544051
vt 0.273564 0.491009
vt 0.279048 0.495720
vt 0.271787 0.493599
vt 0.612463 0.508979
vt 0.617354 0.514424
vt 0.547191 0.522494
vt 0.285025 0.473784
vt 0.292473 0.484368
vt 0.280095 0.482595
vt 0.596900 0.550523
vt 0.608131 0.557024
vt 0.609117 0.504193
vt 0.271109 0.496401
vt 0.322192 0.483752
vt 0.349158 0.500768
vt 0.347282 0.507856
vt 0.301550 0.500753
vt 0.301121 0.505988
vt 0.316584 0.500264
vt 0.307781 0.488882
vt 0.538750 0.536702
vt 0.553814 0.529861
vt 0.539546 0.544054
vt 0.544410 0.544039
vt 0.584748 0.544658
vt 0.563522 0.544955
vt 0.594597 0.520998
vt 0.570916 0.525828
vt 0.296831 0.463672
vt 0.293002 0.464892
vt 0.313670 0.471089
vt 0.302628 0.466955
vt 0.344552 0.479254
vt 0.324211 0.474198
vt 0.597470 0.543617
vt 0.609251 0.551098
vt 0.616117 0.544944
vt 0.572415 0.550855
vt 0.290745 0.510054
vt 0.301225 0.511055
vt 0.274872 0.510718
vt 0.283703 0.509907
vt 0.333930 0.517951
vt 0.323951 0.515701
vt 0.312668 0.513252
vt 0.287029 0.494702
vt 0.281433 0.491294
vt 0.282785 0.489511
vt 0.289707 0.489816
vt 0.303582 0.497161
vt 0.573600 0.545047
vt 0.334542 0.477084
vt 0.573384 0.534967
vt 0.597310 0.538040
vt 0.590124 0.511009
vt 0.334151 0.481668
vt 0.572223 0.530420
vt 0.305709 0.493107
vt 0.331317 0.495914
vt 0.328753 0.503391
vt 0.567056 0.516942
vt 0.333471 0.486677
vt 0.289059 0.469142
vt 0.271961 0.500930
vt 0.281303 0.500650
vt 0.278128 0.483886
vt 0.275429 0.489162
vt 0.281158 0.492031
vt 0.280824 0.493134
vt 0.339834 0.506042
vt 0.354367 0.509099
vt 0.276861 0.487003
vt 0.273821 0.505794
vt 0.626485 0.552190
vt 0.539257 0.541637
vt 0.540665 0.559961
vn -0.0189 -0.2851 -0.9583
vn 0.0265 -0.6739 -0.7383
vn 0.0684 -0.3749 -0.9245
vn -0.0290 -0.5029 -0.8639
vn 0.0961 -0.8167 -0.5690
vn 0.0192 -0.5040 -0.8635
vn 0.0090 0.0139 0.9999
vn 0.0566 0.3659 0.9289
vn 0.0113 0.3691 0.9293
vn 0.0116 -0.7851 -0.6192
vn 0.0123 -0.4516 -0.8921
vn 0.1251 0.2255 -0.9662
vn 0.0884 0.0992 -0.9911
vn 0.1245 0.5576 -0.8207
vn -0.0393 -0.7248 -0.6878
vn -0.0949 -0.4641 -0.8807
vn -0.0648 -0.6684 -0.7410
vn 0.0600 0.2186 -0.9740
vn 0.0312 -0.0847 -0.9959
vn 0.0560 -0.0596 -0.9966
vn 0.0427 -0.8299 0.5563
vn 0.0919 -0.4408 0.8929
vn 0.0718 -0.3974 0.9148
vn 0.0312 0.2624 -0.9644
vn -0.0325 -0.0181 -0.9993
vn -0.0429 -0.0465 -0.9980
vn 0.0661 -0.7532 0.6545
vn -0.0070 -0.4421 0.8969
vn 0.0567 -0.3760 0.9249
vn 0.0324 -0.9536 0.2992
vn 0.0187 -0.7581 0.6519
vn 0.0120 -0.9370 0.3492
vn 0.0491 -0.4743 0.8790
vn 0.0182 -0.4695 0.8828
vn 0.0860 0.0531 0.9949
vn 0.1125 0.3402 0.9336
vn 0.0829 0.3642 0.9276
vn 0.0359 -0.9918 0.1228
vn 0.0244 -0.9866 0.1611
vn 0.1449 0.9815 0.1251
vn 0.1142 0.9797 -0.1647
vn 0.0948 0.9728 0.2113
vn 0.0987 -0.9413 0.3227
vn 0.0340 0.7627 0.6459
vn 0.0589 0.9436 0.3257
vn 0.0434 0.9369 0.3468
vn 0.0459 -0.9213 -0.3861
vn 0.0268 -0.9996 -0.0133
vn 0.0135 -0.9387 -0.3444
vn 0.0954 0.9560 0.2774
vn 0.0546 0.7890 0.6119
vn 0.0842 0.8219 0.5634
vn 0.0378 0.2622 -0.9643
vn -0.0066 -0.0046 -1.0000
vn -0.0087 0.2943 -0.9557
vn 0.0886 0.8651 -0.4937
vn 0.0578 0.9983 -0.0019
vn 0.0889 0.9939 -0.0651
vn 0.0170 0.9131 -0.4073
vn 0.0464 0.9989 0.0116
vn 0.0372 0.9993 0.0045
vn -0.0150 -0.9462 -0.3232
vn 0.1012 -0.9935 0.0519
vn 0.1412 -0.9475 -0.2870
vn -0.0078 -0.8149 -0.5796
vn -0.0061 -0.9877 -0.1561
vn -0.0066 -0.8778 -0.4789
vn 0.1347 0.8527 -0.5048
vn 0.0774 0.9949 -0.0644
vn 0.1413 0.9880 -0.0616
vn 0.0685 -0.0701 -0.9952
vn 0.0775 -0.3810 -0.9213
vn 0.1013 -0.1776 -0.9789
vn 0.1823 0.9116 0.3685
vn 0.1596 0.7072 0.6888
vn 0.1550 0.8890 0.4309
vn 0.0462 -0.9659 -0.2547
vn 0.1000 -0.9949 -0.0096
vn 0.1362 0.0723 0.9880
vn 0.1247 0.3230 0.9381
vn 0.1181 -0.7787 0.6162
vn 0.1239 -0.3696 0.9209
vn -0.0712 0.5399 -0.8387
vn -0.1233 0.1855 -0.9749
vn -0.0844 0.2365 -0.9680
vn -0.0141 0.7656 -0.6432
vn 0.0419 0.8882 -0.4575
vn 0.0538 0.9146 -0.4007
vn -0.0248 -0.6736 -0.7387
vn -0.0025 -0.8123 -0.5833
vn -0.1092 -0.0630 -0.9920
vn -0.1204 -0.0540 -0.9913
vn -0.1148 -0.2429 -0.9632
vn -0.0734 -0.4377 -0.8961
vn 0.1435 0.9510 -0.2739
vn 0.0870 0.8910 -0.4455
vn 0.0289 -0.9342 -0.3556
vn 0.0301 -0.8454 -0.5333
vn -0.1085 -0.2335 -0.9663
vn -0.0328 0.7470 -0.6640
vn 0.0056 0.7706 -0.6373
vn 0.0595 0.8239 -0.5636
vn -0.0991 -0.0737 -0.9923
vn 0.0374 -0.8651 -0.5002
vn 0.0049 0.5186 -0.8550
vn 0.0078 0.2298 -0.9732
vn -0.0535 -0.5055 -0.8611
vn 0.0830 0.8751 0.4767
vn 0.1082 0.8363 0.5376
vn 0.0708 -0.8889 0.4525
vn 0.0577 0.3906 -0.9188
vn 0.0516 0.5854 -0.8091
vn 0.2233 0.4619 0.8584
vn 0.2024 0.5517 0.8091
vn 0.1465 0.6138 0.7758
vn 0.2582 -0.9133 -0.3151
vn 0.1341 -0.7471 -0.6511
vn 0.1713 -0.3916 0.9041
vn 0.0496 -0.0045 0.9988
vn 0.1206 0.0468 0.9916
vn 0.0127 0.8940 -0.4479
vn 0.1117 0.9936 -0.0195
vn 0.2349 -0.9676 0.0920
vn 0.1160 0.7267 0.6771
vn 0.0271 -0.7918 0.6102
vn 0.1133 0.0297 0.9931
vn 0.0986 0.5625 0.8209
vn 0.0360 0.7090 0.7043
vn 0.0460 0.9111 0.4097
vn 0.0212 0.5506 0.8345
vn -0.0248 -0.0328 0.9992
vn -0.0937 -0.2364 -0.9671
vn -0.0407 -0.5448 -0.8375
vn -0.0881 0.4566 -0.8853
vn -0.1217 0.4607 -0.8792
vn 0.0005 0.6049 -0.7963
vn 0.0740 0.5358 -0.8411
vn -0.0185 -0.8232 -0.5675
vn 0.0533 -0.7469 -0.6628
vn 0.2076 -0.9160 0.3434
vn -0.0040 -0.9998 0.0174
vn -0.0226 0.5666 -0.8237
vn 0.0723 0.8696 -0.4884
vn 0.1067 0.6401 -0.7609
vn 0.0507 0.8998 -0.4334
vn 0.1548 0.4321 0.8884
vn 0.3813 0.1089 0.9180
vn 0.4350 0.0790 0.8969
vn 0.0467 0.2254 0.9731
vn 0.0166 0.4869 0.8733
vn 0.0395 0.5809 -0.8130
vn 0.0387 -0.9974 -0.0605
vn 0.0639 -0.0546 -0.9965
vn -0.0363 0.2750 -0.9608
vn 0.0336 -0.9698 0.2416
vn 0.0743 -0.4459 -0.8920
vn -0.0123 0.2899 0.9570
vn 0.0660 0.0130 0.9977
vn 0.0526 0.5600 0.8268
vn 0.0190 -0.8353 0.5494
vn 0.1927 -0.7826 0.5919
vn 0.1180 0.2358 0.9646
vn 0.0789 0.8041 0.5892
vn 0.1837 0.7443 0.6421
vn 0.6846 -0.2208 0.6946
vn 0.6052 -0.0580 0.7940
vn 0.3206 0.3691 0.8723
vn 0.3492 0.1491 0.9251
vn 0.2904 0.3049 0.9070
vn 0.0747 0.5691 0.8189
vn 0.1227 0.4946 0.8604
vn 0.4397 0.2075 0.8738
vn 0.0532 0.9432 0.3281
vn 0.1224 0.8787 -0.4615
vn -0.1109 0.1506 -0.9824
usemtl Koharu_Body
s 1
f 1/1/1 2/2/2 3/3/3
f 4/4/4 5/5/5 6/6/6
f 7/7/7 8/8/8 9/9/9
f 10/10/10 4/4/4 11/11/11
f 12/12/12 13/13/13 14/14/14
f 15/15/15 16/16/16 17/17/17
f 18/18/18 19/19/19 20/20/20
f 21/21/21 22/22/22 23/23/23
f 24/24/24 25/25/25 26/26/26
f 27/27/27 28/28/28 29/29/29
f 30/30/30 31/31/31 32/32/32
f 33/33/33 7/7/7 34/34/34
f 35/35/35 36/36/36 37/37/37
f 38/38/38 21/21/21 39/39/39
f 40/40/40 41/41/41 42/42/42
f 32/32/32 27/27/27 43/43/43
f 44/44/44 45/45/45 46/46/46
f 47/47/47 48/48/48 49/49/49
f 50/50/50 51/51/51 52/52/52
f 53/53/53 54/54/54 55/55/55
f 56/56/56 57/57/57 58/58/58
f 59/59/59 60/60/60 61/61/61
f 62/62/62 63/63/63 64/64/64
f 65/65/65 66/66/66 67/67/67
f 68/68/68 69/69/69 70/70/70
f 71/71/71 72/72/72 73/73/73
f 74/74/74 75/75/75 76/76/76
f 77/77/77 78/78/78 38/38/38
f 36/36/36 79/79/79 80/80/80
f 22/22/22 81/81/81 82/82/82
f 83/83/83 84/84/84 85/85/85
f 86/86/86 87/87/87 88/88/88
f 89/89/89 90/90/90 17/17/17
f 84/84/84 91/91/91 92/92/92
f 93/93/93 94/94/94 16/16/16
f 95/95/95 87/87/87 96/96/96
f 97/97/97 90/90/90 98/98/98
f 99/99/99 92/92/92 93/93/93
f 96/96/96 100/100/100 101/101/101
f 41/102/41 101/101/101 102/103/102
f 1/1/1 103/104/103 99/99/99
f 78/105/78 104/106/104 97/97/97
f 41/102/41 95/95/95 96/96/96
f 105/107/105 85/85/85 106/108/106
f 65/65/65 107/109/107 15/15/15
f 108/110/108 109/111/109 40/40/40
f 110/112/110 78/78/78 81/81/81
f 111/113/111 112/114/112 24/24/24
f 13/13/13 12/12/12 71/71/71
f 113/115/113 114/116/114 115/117/115
f 71/71/71 6/6/6 72/72/72
f 5/5/5 116/118/116 117/119/117
f 77/120/77 15/15/15 104/106/104
f 118/121/118 119/122/119 120/123/120
f 121/124/121 122/125/122 60/60/60
f 64/64/64 123/126/123 116/118/116
f 124/127/124 115/117/115 114/116/114
f 6/6/6 117/119/117 72/72/72
f 71/71/71 111/113/111 24/24/24
f 125/128/125 33/33/33 34/34/34
f 126/129/126 82/82/82 79/79/79
f 127/130/127 109/111/109 108/110/108
f 52/52/52 127/130/127 108/110/108
f 76/76/76 128/131/128 129/132/129
f 130/133/130 51/51/51 44/44/44
f 29/29/29 131/134/131 119/122/119
f 23/23/23 126/129/126 35/35/35
f 92/92/92 132/135/132 93/93/93
f 107/109/107 93/93/93 16/16/16
f 133/136/133 99/99/99 107/109/107
f 106/108/106 103/104/103 19/19/19
f 134/137/134 84/84/84 135/138/135
f 85/85/85 92/92/92 103/104/103
f 136/139/136 53/53/53 55/55/55
f 137/140/137 106/108/106 18/18/18
f 54/54/54 4/4/4 25/25/25
f 26/26/26 4/4/4 6/6/6
f 19/19/19 3/3/3 20/20/20
f 94/94/94 17/17/17 16/16/16
f 133/136/133 67/67/67 2/2/2
f 138/141/138 64/64/64 5/5/5
f 139/142/139 49/49/49 10/10/10
f 104/106/104 17/17/17 90/90/90
f 123/143/123 43/43/43 140/144/140
f 141/145/141 43/43/43 63/146/63
f 66/147/66 38/38/38 39/39/39
f 48/148/48 32/32/32 141/145/141
f 38/38/38 78/78/78 110/112/110
f 24/24/24 112/114/112 142/149/142
f 142/149/142 143/150/143 121/124/121
f 102/103/102 83/83/83 105/107/105
f 83/83/83 100/100/100 135/138/135
f 134/137/134 100/100/100 86/86/86
f 14/14/14 68/68/68 144/151/144
f 136/139/136 121/124/121 59/59/59
f 137/140/137 145/152/145 56/56/56
f 122/153/122 129/132/129 60/154/60
f 69/155/69 74/74/74 70/156/70
f 58/157/58 45/45/45 50/50/50
f 46/46/46 57/158/57 61/159/61
f 40/40/40 42/42/42 108/110/108
f 73/73/73 13/13/13 71/71/71
f 146/160/146 147/161/147 148/162/148
f 149/163/149 150/164/150 146/160/146
f 60/154/60 46/46/46 61/159/61
f 151/165/151 59/59/59 145/152/145
f 152/166/152 30/30/30 48/148/48
f 10/10/10 62/62/62 138/141/138
f 153/167/153 11/11/11 54/54/54
f 142/149/142 55/55/55 154/168/154
f 75/75/75 146/160/146 128/131/128
f 31/31/31 34/34/34 28/28/28
f 145/152/145 61/61/61 57/57/57
f 55/55/55 25/25/25 154/168/154
f 49/49/49 141/169/141 62/62/62
f 150/164/150 44/44/44 128/131/128
f 34/34/34 131/134/131 28/28/28
f 155/170/155 125/128/125 30/30/30
f 156/171/156 10/10/10 11/11/11
f 131/134/131 9/9/9 157/172/157
f 41/41/41 50/50/50 42/42/42
f 105/107/105 56/56/56 102/103/102
f 66/147/66 155/170/155 152/166/152
f 2/2/2 47/47/47 139/142/139
f 20/20/20 156/171/156 153/167/153
f 151/165/151 18/18/18 53/53/53
f 158/173/158 23/23/23 35/35/35
f 159/174/159 52/52/52 51/51/51
f 67/67/67 152/175/152 47/47/47
f 102/103/102 58/58/58 41/102/41
f 42/42/42 52/52/52 108/110/108
f 39/39/39 160/176/160 155/170/155
f 158/173/158 37/37/37 8/8/8
f 33/33/33 21/21/21 23/23/23
f 18/18/18 153/167/153 53/53/53
f 3/3/3 139/142/139 156/171/156
f 161/177/161 29/29/29 118/121/118
f 129/132/129 44/44/44 46/46/46
f 146/160/146 148/162/162 149/163/149
f 71/71/71 24/24/24 26/26/26
f 142/149/142 154/168/154 24/24/24
f 162/178/163 114/116/114 163/179/164
f 120/123/165 148/162/148 164/180/166
f 128/131/128 146/160/146 150/164/150
f 165/181/167 147/161/147 166/182/168
f 146/160/146 167/183/169 166/182/168
f 8/8/8 168/184/170 159/174/159
f 157/172/157 130/133/130 150/164/150
f 119/122/119 157/172/157 149/163/149
f 36/36/36 169/185/171 127/130/127
f 37/37/37 127/130/127 168/184/170
f 9/9/9 159/174/159 130/133/130
f 70/156/70 76/76/76 122/153/122
f 114/116/114 167/183/169 146/160/146
f 148/162/148 170/186/172 164/180/166
f 166/182/168 147/161/147 146/160/146
f 163/179/164 146/160/146 75/75/75
f 148/162/162 119/122/119 149/163/149
f 167/183/169 165/181/167 166/182/168
f 144/151/144 143/150/143 112/114/112
f 12/12/12 144/151/144 111/113/111
f 68/68/68 122/125/122 143/150/143
f 163/179/164 171/187/173 162/178/163
f 161/177/161 43/43/43 27/27/27
f 1/1/1 133/136/133 2/2/2
f 4/4/4 138/141/138 5/5/5
f 7/7/7 158/173/158 8/8/8
f 10/10/10 138/141/138 4/4/4
f 15/15/15 107/109/107 16/16/16
f 18/18/18 106/108/106 19/19/19
f 21/21/21 110/112/110 22/22/22
f 24/24/24 154/168/154 25/25/25
f 27/27/27 31/31/31 28/28/28
f 30/30/30 125/128/125 31/31/31
f 33/33/33 158/173/158 7/7/7
f 35/35/35 126/129/126 36/36/36
f 38/38/38 110/112/110 21/21/21
f 32/32/32 31/31/31 27/27/27
f 44/44/44 51/51/51 45/45/45
f 47/47/47 152/175/152 48/48/48
f 50/50/50 45/45/45 51/51/51
f 53/53/53 153/167/153 54/54/54
f 56/56/56 145/152/145 57/57/57
f 59/59/59 121/124/121 60/60/60
f 62/62/62 141/169/141 63/63/63
f 65/65/65 77/120/77 66/66/66
f 68/68/68 172/188/174 69/69/69
f 74/74/74 163/179/164 75/75/75
f 36/36/36 126/129/126 79/79/79
f 22/22/22 110/112/110 81/81/81
f 83/83/83 135/138/135 84/84/84
f 86/86/86 100/100/100 87/87/87
f 89/89/89 98/98/98 90/90/90
f 84/84/84 173/189/175 91/91/91
f 93/93/93 132/135/132 94/94/94
f 95/95/95 88/88/88 87/87/87
f 97/97/97 104/106/104 90/90/90
f 99/99/99 103/104/103 92/92/92
f 96/96/96 87/87/87 100/100/100
f 41/102/41 96/96/96 101/101/101
f 1/1/1 19/19/19 103/104/103
f 78/105/78 77/120/77 104/106/104
f 41/102/41 40/190/40 95/95/95
f 105/107/105 83/83/83 85/85/85
f 65/65/65 133/136/133 107/109/107
f 111/113/111 144/151/144 112/114/112
f 113/115/113 167/183/169 114/116/114
f 71/71/71 26/26/26 6/6/6
f 5/5/5 64/64/64 116/118/116
f 77/120/77 65/65/65 15/15/15
f 118/121/118 29/29/29 119/122/119
f 121/124/121 143/150/143 122/125/122
f 64/64/64 63/63/63 123/126/123
f 6/6/6 5/5/5 117/119/117
f 71/71/71 12/12/12 111/113/111
f 125/128/125 160/176/160 33/33/33
f 126/129/126 22/22/22 82/82/82
f 127/130/127 169/185/171 109/111/109
f 52/52/52 168/184/170 127/130/127
f 76/76/76 75/75/75 128/131/128
f 130/133/130 159/174/159 51/51/51
f 29/29/29 28/28/28 131/134/131
f 23/23/23 22/22/22 126/129/126
f 92/92/92 91/91/91 132/135/132
f 107/109/107 99/99/99 93/93/93
f 133/136/133 1/1/1 99/99/99
f 106/108/106 85/85/85 103/104/103
f 134/137/134 173/189/175 84/84/84
f 85/85/85 84/84/84 92/92/92
f 136/139/136 151/165/151 53/53/53
f 137/140/137 105/107/105 106/108/106
f 54/54/54 11/11/11 4/4/4
f 26/26/26 25/25/25 4/4/4
f 19/19/19 1/1/1 3/3/3
f 94/94/94 89/89/89 17/17/17
f 133/136/133 65/65/65 67/67/67
f 138/141/138 62/62/62 64/64/64
f 139/142/139 47/47/47 49/49/49
f 104/106/104 15/15/15 17/17/17
f 123/143/123 63/146/63 43/43/43
f 141/145/141 32/32/32 43/43/43
f 66/147/66 77/77/77 38/38/38
f 48/148/48 30/30/30 32/32/32
f 142/149/142 112/114/112 143/150/143
f 102/103/102 101/101/101 83/83/83
f 83/83/83 101/101/101 100/100/100
f 134/137/134 135/138/135 100/100/100
f 14/14/14 172/188/174 68/68/68
f 136/139/136 142/149/142 121/124/121
f 137/140/137 151/165/151 145/152/145
f 122/153/122 76/76/76 129/132/129
f 69/155/69 171/187/173 74/74/74
f 58/157/58 57/158/57 45/45/45
f 46/46/46 45/45/45 57/158/57
f 149/163/149 157/172/157 150/164/150
f 60/154/60 129/132/129 46/46/46
f 151/165/151 136/139/136 59/59/59
f 152/166/152 155/170/155 30/30/30
f 10/10/10 49/49/49 62/62/62
f 153/167/153 156/171/156 11/11/11
f 142/149/142 136/139/136 55/55/55
f 31/31/31 125/128/125 34/34/34
f 145/152/145 59/59/59 61/61/61
f 55/55/55 54/54/54 25/25/25
f 49/49/49 48/48/48 141/169/141
f 150/164/150 130/133/130 44/44/44
f 34/34/34 7/7/7 131/134/131
f 155/170/155 160/176/160 125/128/125
f 156/171/156 139/142/139 10/10/10
f 131/134/131 7/7/7 9/9/9
f 41/41/41 58/157/58 50/50/50
f 105/107/105 137/140/137 56/56/56
f 66/147/66 39/39/39 155/170/155
f 2/2/2 67/67/67 47/47/47
f 20/20/20 3/3/3 156/171/156
f 151/165/151 137/140/137 18/18/18
f 158/173/158 33/33/33 23/23/23
f 159/174/159 168/184/170 52/52/52
f 67/67/67 66/66/66 152/175/152
f 102/103/102 56/56/56 58/58/58
f 42/42/42 50/50/50 52/52/52
f 39/39/39 21/21/21 160/176/160
f 158/173/158 35/35/35 37/37/37
f 33/33/33 160/176/160 21/21/21
f 18/18/18 20/20/20 153/167/153
f 3/3/3 2/2/2 139/142/139
f 161/177/161 27/27/27 29/29/29
f 129/132/129 128/131/128 44/44/44
f 162/178/163 124/127/124 114/116/114
f 165/181/167 170/186/172 147/161/147
f 8/8/8 37/37/37 168/184/170
f 157/172/157 9/9/9 130/133/130
f 119/122/119 131/134/131 157/172/157
f 36/36/36 80/80/80 169/185/171
f 37/37/37 36/36/36 127/130/127
f 9/9/9 8/8/8 159/174/159
f 70/156/70 74/74/74 76/76/76
f 148/162/148 147/161/147 170/186/172
f 163/179/164 114/116/114 146/160/146
f 148/162/162 120/123/120 119/122/119
f 167/183/169 113/115/113 165/181/167
f 144/151/144 68/68/68 143/150/143
f 12/12/12 14/14/14 144/151/144
f 68/68/68 70/70/70 122/125/122
f 163/179/164 74/74/74 171/187/173
f 161/177/161 140/144/140 43/43/43
