# Blender v2.93.5 OBJ File: ''
# www.blender.org
mtllib Pengu_Aleta_izq.mtl
o Pingu.001_Box003.002
v -0.733200 -2.471350 -0.125601
v -0.819600 -2.442550 -0.150001
v -0.699200 -2.295350 -0.239900
v -0.645100 -2.315150 -0.224401
v -0.062400 0.017850 -0.085600
v -0.198700 -0.423950 -0.033100
v -0.268900 -0.256850 0.333100
v 0.000200 0.231050 0.150000
v -0.062000 -0.389850 -0.405001
v -0.028600 -0.221250 -0.191200
v 0.023200 -0.237150 -0.118700
v 0.044700 -0.421750 -0.375200
v 0.034000 -0.010250 0.047300
v -0.015800 -0.476850 0.017900
v -0.153200 -0.291550 0.365400
v 0.033600 0.219750 0.198200
v -0.622200 -1.534150 -0.087801
v -0.655100 -1.525750 0.238799
v -0.500100 -0.958850 0.293100
v -0.456900 -1.001950 -0.018000
v -0.447000 -1.479850 -0.247000
v -0.287300 -0.991350 -0.285200
v -0.181000 -1.024050 -0.255301
v -0.340700 -1.513150 -0.217001
v -0.197300 -1.075850 0.054300
v -0.362900 -1.608750 -0.015501
v -0.539700 -1.561750 0.270999
v -0.384500 -0.994050 0.325300
v -0.809400 -2.318950 0.020799
v -0.765200 -1.991450 0.120700
v -0.732000 -2.028450 -0.113601
v -0.592300 -1.950250 -0.242601
v -0.486200 -1.984050 -0.212701
v -0.551500 -2.082450 -0.063101
v -0.750500 -2.340350 0.037399
v -0.650000 -2.028050 0.153000
vt 0.213700 0.769400
vt 0.213400 0.771200
vt 0.223700 0.770000
vt 0.223600 0.767900
vt 0.375200 0.792800
vt 0.344200 0.790300
vt 0.350100 0.816800
vt 0.377300 0.818500
vt 0.350600 0.765400
vt 0.370900 0.767800
vt 0.372000 0.760000
vt 0.351200 0.759100
vt 0.368400 0.705500
vt 0.372000 0.728800
vt 0.341600 0.726000
vt 0.348300 0.700400
vt 0.349200 0.825600
vt 0.377100 0.824200
vt 0.266600 0.786400
vt 0.261900 0.807600
vt 0.301200 0.813100
vt 0.302300 0.791000
vt 0.275100 0.771300
vt 0.308200 0.769100
vt 0.308300 0.759900
vt 0.275200 0.762300
vt 0.300600 0.725100
vt 0.264500 0.718400
vt 0.271600 0.705700
vt 0.305500 0.705200
vt 0.257000 0.815000
vt 0.298500 0.822100
vt 0.214600 0.781400
vt 0.232200 0.794900
vt 0.235100 0.781800
vt 0.244600 0.772000
vt 0.244700 0.764100
vt 0.231300 0.713800
vt 0.203300 0.708900
vt 0.215200 0.702700
vt 0.239300 0.704200
vt 0.212600 0.779900
vt 0.225000 0.799200
vt 0.348700 0.752400
vt 0.300400 0.747200
vt 0.262100 0.740500
vt 0.231300 0.729900
vt 0.375700 0.752200
vt 0.210200 0.721000
vn 0.2677 -0.9633 -0.0180
vn -0.7321 -0.5883 -0.3434
vn -0.2850 -0.1101 -0.9522
vn 0.6386 -0.4833 -0.5988
vn -0.9334 0.2388 -0.2677
vn -0.8817 0.3371 -0.3301
vn -0.7822 0.3795 0.4940
vn -0.8479 0.4354 0.3026
vn -0.2061 0.3581 -0.9107
vn -0.3417 0.5727 -0.7451
vn 0.8159 -0.4677 -0.3399
vn 0.8175 0.0511 -0.5736
vn 0.8146 0.0613 0.5768
vn 0.9337 -0.2249 0.2785
vn 0.3558 0.0354 0.9339
vn -0.3640 0.3936 0.8442
vn -0.8771 0.2551 -0.4070
vn -0.8198 0.1130 0.5614
vn -0.8201 0.2276 0.5250
vn -0.8875 0.3072 -0.3435
vn -0.3126 0.0766 -0.9468
vn -0.4122 0.0625 -0.9090
vn 0.7439 -0.3282 -0.5821
vn 0.7529 -0.2734 -0.5987
vn 0.9010 -0.3022 0.3112
vn 0.8989 -0.3315 0.2864
vn 0.2864 -0.2460 0.9260
vn 0.3115 -0.1603 0.9366
vn -0.8381 -0.2510 0.4843
vn -0.8523 0.0186 0.5227
vn -0.8843 0.2233 -0.4101
vn -0.2746 0.0715 -0.9589
vn 0.7713 -0.2956 -0.5637
vn 0.8675 -0.4046 0.2894
vn 0.1651 -0.5950 0.7866
vn 0.2994 -0.3605 0.8834
usemtl 02___Default.001
s 1
f 1/1/1 2/2/2 3/3/3
f 3/3/3 4/4/4 1/1/1
f 5/5/5 6/6/6 7/7/7
f 7/7/7 8/8/8 5/5/5
f 9/9/9 10/10/10 11/11/11
f 11/11/11 12/12/12 9/9/9
f 11/13/11 13/14/13 14/15/14
f 14/15/14 12/16/12 11/13/11
f 15/17/15 16/18/16 8/8/8
f 8/8/8 7/7/7 15/17/15
f 17/19/17 18/20/18 19/21/19
f 19/21/19 20/22/20 17/19/17
f 21/23/21 22/24/22 23/25/23
f 23/25/23 24/26/24 21/23/21
f 25/27/25 26/28/26 24/29/24
f 24/29/24 23/30/23 25/27/25
f 18/20/18 27/31/27 28/32/28
f 28/32/28 19/21/19 18/20/18
f 2/2/2 29/33/29 30/34/30
f 30/34/30 31/35/31 2/2/2
f 4/4/4 3/3/3 32/36/32
f 32/36/32 33/37/33 4/4/4
f 34/38/34 1/39/1 4/40/4
f 4/40/4 33/41/33 34/38/34
f 29/33/29 35/42/35 36/43/36
f 36/43/36 30/34/30 29/33/29
f 22/24/22 20/22/20 6/6/6
f 6/6/6 9/9/9 22/24/22
f 9/9/9 12/12/12 23/25/23
f 23/25/23 22/24/22 9/9/9
f 25/27/25 14/15/14 15/44/15
f 15/44/15 28/45/28 25/27/25
f 15/17/15 7/7/7 19/21/19
f 19/21/19 28/32/28 15/17/15
f 32/36/32 31/35/31 17/19/17
f 17/19/17 21/23/21 32/36/32
f 32/36/32 21/23/21 24/26/24
f 24/26/24 33/37/33 32/36/32
f 34/38/34 26/28/26 27/46/27
f 27/46/27 36/47/36 34/38/34
f 27/31/27 18/20/18 30/34/30
f 30/34/30 36/43/36 27/31/27
f 35/42/35 29/33/29 2/2/2
f 2/2/2 1/1/1 35/42/35
f 10/10/10 9/9/9 6/6/6
f 6/6/6 5/5/5 10/10/10
f 13/14/13 16/48/16 15/44/15
f 15/44/15 14/15/14 13/14/13
f 20/22/20 22/24/22 21/23/21
f 21/23/21 17/19/17 20/22/20
f 28/45/28 27/46/27 26/28/26
f 26/28/26 25/27/25 28/45/28
f 31/35/31 32/36/32 3/3/3
f 3/3/3 2/2/2 31/35/31
f 36/47/36 35/49/35 1/39/1
f 1/39/1 34/38/34 36/47/36
f 20/22/20 19/21/19 7/7/7
f 7/7/7 6/6/6 20/22/20
f 23/30/23 12/16/12 14/15/14
f 14/15/14 25/27/25 23/30/23
f 31/35/31 30/34/30 18/20/18
f 18/20/18 17/19/17 31/35/31
f 33/41/33 24/29/24 26/28/26
f 26/28/26 34/38/34 33/41/33
