# Blender v2.93.5 OBJ File: ''
# www.blender.org
mtllib Pengu_Aleta_der.mtl
o Aleta_pingu_Box003.001
v 0.733200 -2.471367 -0.125601
v 0.645100 -2.315167 -0.224401
v 0.699200 -2.295367 -0.239900
v 0.819600 -2.442567 -0.150001
v 0.062399 0.017833 -0.085600
v -0.000200 0.231133 0.150000
v 0.269000 -0.256867 0.333100
v 0.198700 -0.423967 -0.033100
v 0.062000 -0.389867 -0.405001
v -0.044701 -0.421767 -0.375200
v -0.023200 -0.237167 -0.118700
v 0.028600 -0.221267 -0.191200
v 0.015800 -0.476867 0.017900
v -0.034000 -0.010267 0.047300
v 0.153200 -0.291567 0.365400
v -0.033600 0.219733 0.198200
v 0.622300 -1.534167 -0.087801
v 0.456900 -1.001967 -0.018000
v 0.500200 -0.958867 0.293100
v 0.655100 -1.525767 0.238799
v 0.447000 -1.479867 -0.247000
v 0.340700 -1.513167 -0.217001
v 0.181000 -1.024067 -0.255301
v 0.287400 -0.991367 -0.285200
v 0.197300 -1.075867 0.054300
v 0.362900 -1.608767 -0.015501
v 0.384500 -0.994067 0.325300
v 0.539700 -1.561767 0.270999
v 0.732000 -2.028467 -0.113601
v 0.765300 -1.991467 0.120700
v 0.809500 -2.318967 0.020799
v 0.486200 -1.983967 -0.212701
v 0.592300 -1.950167 -0.242601
v 0.551500 -2.082467 -0.063101
v 0.650000 -2.028067 0.153000
v 0.750600 -2.340267 0.037399
vt 0.831800 0.828000
vt 0.828700 0.817000
vt 0.825200 0.816600
vt 0.829900 0.826100
vt 0.666000 0.816900
vt 0.660600 0.841800
vt 0.687900 0.841100
vt 0.697300 0.816100
vt 0.694000 0.791500
vt 0.694700 0.784800
vt 0.673500 0.785100
vt 0.673700 0.792900
vt 0.681100 0.732300
vt 0.701000 0.728000
vt 0.707100 0.754300
vt 0.676800 0.755700
vt 0.687100 0.848600
vt 0.660200 0.847300
vt 0.775600 0.814000
vt 0.739200 0.817300
vt 0.735400 0.838800
vt 0.772500 0.836500
vt 0.772700 0.797300
vt 0.776100 0.789000
vt 0.739300 0.786200
vt 0.737400 0.795200
vt 0.747600 0.754100
vt 0.742800 0.733800
vt 0.775600 0.734100
vt 0.783000 0.746700
vt 0.735200 0.847500
vt 0.772900 0.845200
vt 0.807000 0.817700
vt 0.801800 0.832600
vt 0.821700 0.831300
vt 0.810600 0.799000
vt 0.805700 0.804500
vt 0.815400 0.740400
vt 0.807100 0.731400
vt 0.830700 0.728400
vt 0.842900 0.733400
vt 0.803200 0.840800
vt 0.822700 0.833900
vt 0.748200 0.776500
vt 0.699400 0.781200
vt 0.816300 0.756100
vt 0.786400 0.768600
vt 0.672000 0.779300
vt 0.836800 0.745800
vn -0.2677 -0.9633 -0.0180
vn -0.6386 -0.4833 -0.5988
vn 0.2849 -0.1101 -0.9522
vn 0.7321 -0.5883 -0.3434
vn 0.9188 0.2260 -0.3237
vn 0.8479 0.4353 0.3027
vn 0.7822 0.3796 0.4940
vn 0.8817 0.3371 -0.3301
vn 0.2061 0.3581 -0.9107
vn -0.8175 0.0511 -0.5736
vn -0.8223 -0.5187 -0.2340
vn 0.2952 0.5442 -0.7853
vn -0.9337 -0.2249 0.2785
vn -0.8825 -0.4603 0.0963
vn -0.3558 0.0354 0.9339
vn 0.3635 0.3936 0.8444
vn 0.8771 0.2551 -0.4070
vn 0.8875 0.3072 -0.3435
vn 0.8201 0.2276 0.5250
vn 0.8198 0.1130 0.5614
vn 0.3126 0.0766 -0.9468
vn -0.7529 -0.2734 -0.5987
vn -0.7439 -0.3282 -0.5821
vn 0.4122 0.0625 -0.9089
vn -0.9010 -0.3022 0.3112
vn -0.8989 -0.3315 0.2864
vn -0.3115 -0.1603 0.9366
vn -0.2864 -0.2460 0.9260
vn 0.8843 0.2233 -0.4101
vn 0.8523 0.0186 0.5227
vn 0.8381 -0.2510 0.4843
vn -0.7713 -0.2956 -0.5637
vn 0.2746 0.0715 -0.9589
vn -0.8675 -0.4046 0.2894
vn -0.2994 -0.3605 0.8834
vn -0.1651 -0.5951 0.7866
usemtl 02___Default
s 1
f 1/1/1 2/2/2 3/3/3
f 3/3/3 4/4/4 1/1/1
f 5/5/5 6/6/6 7/7/7
f 7/7/7 8/8/8 5/5/5
f 9/9/9 10/10/10 11/11/11
f 11/11/11 12/12/12 9/9/9
f 11/13/11 10/14/10 13/15/13
f 13/15/13 14/16/14 11/13/11
f 15/17/15 7/7/7 6/6/6
f 6/6/6 16/18/16 15/17/15
f 17/19/17 18/20/18 19/21/19
f 19/21/19 20/22/20 17/19/17
f 21/23/21 22/24/22 23/25/23
f 23/25/23 24/26/24 21/23/21
f 25/27/25 23/28/23 22/29/22
f 22/29/22 26/30/26 25/27/25
f 20/22/20 19/21/19 27/31/27
f 27/31/27 28/32/28 20/22/20
f 4/4/4 29/33/29 30/34/30
f 30/34/30 31/35/31 4/4/4
f 2/2/2 32/36/32 33/37/33
f 33/37/33 3/3/3 2/2/2
f 34/38/34 32/39/32 2/40/2
f 2/40/2 1/41/1 34/38/34
f 31/35/31 30/34/30 35/42/35
f 35/42/35 36/43/36 31/35/31
f 24/26/24 9/9/9 8/8/8
f 8/8/8 18/20/18 24/26/24
f 9/9/9 24/26/24 23/25/23
f 23/25/23 10/10/10 9/9/9
f 25/27/25 27/44/27 15/45/15
f 15/45/15 13/15/13 25/27/25
f 15/17/15 27/31/27 19/21/19
f 19/21/19 7/7/7 15/17/15
f 33/37/33 21/23/21 17/19/17
f 17/19/17 29/33/29 33/37/33
f 33/37/33 32/36/32 22/24/22
f 22/24/22 21/23/21 33/37/33
f 34/38/34 35/46/35 28/47/28
f 28/47/28 26/30/26 34/38/34
f 28/32/28 35/42/35 30/34/30
f 30/34/30 20/22/20 28/32/28
f 36/43/36 1/1/1 4/4/4
f 4/4/4 31/35/31 36/43/36
f 12/12/12 5/5/5 8/8/8
f 8/8/8 9/9/9 12/12/12
f 14/16/14 13/15/13 15/45/15
f 15/45/15 16/48/16 14/16/14
f 18/20/18 17/19/17 21/23/21
f 21/23/21 24/26/24 18/20/18
f 27/44/27 25/27/25 26/30/26
f 26/30/26 28/47/28 27/44/27
f 29/33/29 4/4/4 3/3/3
f 3/3/3 33/37/33 29/33/29
f 35/46/35 34/38/34 1/41/1
f 1/41/1 36/49/36 35/46/35
f 18/20/18 8/8/8 7/7/7
f 7/7/7 19/21/19 18/20/18
f 23/28/23 25/27/25 13/15/13
f 13/15/13 10/14/10 23/28/23
f 29/33/29 17/19/17 20/22/20
f 20/22/20 30/34/30 29/33/29
f 32/39/32 34/38/34 26/30/26
f 26/30/26 22/29/22 32/39/32
