# 3ds Max Wavefront OBJ Exporter v0.99 - (c)2007 guruware
# File Created: 01.01.2023 18:16:36

mtllib graper.mtl

#
# object Box004
#

v  -3.3028 6.7141 11.6393
v  -2.9263 3.7690 11.0760
v  -1.8413 3.0429 9.9011
v  -0.9918 5.4452 10.2175
v  -2.3849 4.9925 0.0730
v  -0.9139 5.5028 1.8696
v  -1.4371 3.3950 2.0043
v  -2.5571 3.3390 1.2180
v  -1.5645 -0.7733 5.8483
v  -1.7236 -1.0497 9.5309
v  -2.5282 -0.8317 9.7685
v  -2.5336 -0.7700 5.8386
v  -8.7409 2.2635 5.9257
v  -7.1889 2.8391 9.8138
v  -7.5544 4.9957 9.3489
v  -8.3424 4.9362 5.9074
v  -4.7108 7.0377 5.5774
v  -5.5646 6.7733 9.9624
v  -4.7943 7.2486 10.7406
v  -3.5500 7.3537 5.5436
v  -0.7460 6.5898 5.8293
v  -1.4176 7.0298 5.5742
v  -1.4030 6.8265 9.9794
v  -0.6716 6.5644 9.7250
v  -3.6865 -0.7540 3.2928
v  -4.5859 -0.7689 3.3422
v  -4.9328 -0.6533 0.9668
v  -4.2943 -0.5815 0.6675
v  -8.5625 6.0704 4.2305
v  -8.1489 6.4537 3.9565
v  -8.2022 6.2721 2.9969
v  -8.8781 5.5313 2.3038
v  -1.8801 7.6274 1.3190
v  -2.4597 8.0682 -0.1506
v  -2.4945 7.5975 2.0303
v  -1.3314 7.3341 2.3845
v  0.8796 5.4798 3.2769
v  1.0704 3.2403 3.7214
v  0.2141 3.3353 2.3806
v  0.7310 5.3175 2.2243
v  -4.9247 6.1142 10.8268
v  -5.4798 5.9426 10.0723
v  -4.8192 5.0709 1.3379
v  -3.8208 5.0542 0.6844
v  -3.4241 3.4436 0.9515
v  -4.1412 3.5778 0.5736
v  -3.6307 -0.7700 5.8909
v  -3.5869 -0.8487 10.1634
v  -4.5177 -0.9205 9.7857
v  -4.5791 -0.7707 5.8674
v  -2.4557 7.1944 5.5419
v  -3.3028 7.1512 10.4374
v  -2.5456 -0.7563 3.2976
v  -2.9862 -0.6416 0.8751
v  -1.2696 -0.6245 1.5782
v  -1.2948 -0.7419 3.1454
v  -3.9561 7.5430 1.9901
v  -3.8147 7.9792 -0.1111
v  -5.3169 6.4821 1.0754
v  -5.2206 6.5992 2.1626
v  -3.2613 6.8276 11.1043
v  -0.5175 6.6112 1.8731
v  -2.2214 5.8048 -0.4530
v  -8.7438 5.8921 5.8471
v  -7.6248 5.8920 9.5126
v  -7.2128 6.1605 9.7995
v  -8.6501 6.1551 5.5790
v  2.0766 5.0570 6.1590
v  2.3222 6.2592 6.0231
v  0.7436 6.4200 9.5419
v  1.2280 5.5684 9.1951
v  -8.4287 5.2666 3.9135
v  -8.7638 5.0055 1.9442
v  -0.4481 6.9786 3.1223
v  -5.1190 5.2118 9.6768
v  -4.4722 5.3353 10.3749
v  -3.8351 5.6789 0.2597
v  -5.0043 5.4145 1.3116
v  0.0857 5.4409 9.8079
v  0.0141 6.4605 9.8223
v  -0.8739 -1.2280 9.6121
v  -0.0596 -0.8584 6.0986
v  -0.1885 -0.6334 1.6559
v  0.2334 -0.8156 3.1353
v  -0.6118 3.3772 2.1723
v  -0.0727 5.4191 2.1462
v  0.2655 6.3541 2.0231
v  0.3760 6.7063 3.1910
v  0.3158 6.8369 5.7547
v  1.5028 2.7862 6.0704
v  -4.0718 7.4206 10.5791
v  -4.2262 6.5809 11.0880
v  -3.1192 4.9695 0.3007
v  -3.0415 3.3534 1.1858
v  -3.0476 -0.8173 10.0501
v  -3.0821 -0.7700 5.8558
v  -2.9984 7.4367 5.5345
v  -3.7132 -0.5908 0.6997
v  -3.1339 -0.7553 3.2971
v  -3.1595 8.1353 -0.2469
v  -3.2299 7.6484 1.9159
v  -4.1915 6.1070 11.1372
v  -3.0427 5.6468 -0.2399
v  0.9163 6.1275 2.0469
v  0.8555 6.5017 3.1953
v  0.7000 3.1225 8.7879
v  -8.3294 2.7122 3.1554
v  -8.5874 3.6016 1.2014
v  -4.7602 2.8130 10.3275
v  -3.9423 3.1512 10.4538
v  -0.4845 2.7907 9.4257
v  -3.4662 3.4550 10.9337
v  -0.0188 -1.1127 9.1298
v  1.1533 -0.8928 6.2239
v  0.8741 -0.7433 2.0762
v  0.7306 -0.8972 3.3583
v  -6.7120 6.5871 10.0270
v  -6.8054 6.3896 10.3316
v  -6.9968 6.6997 5.5719
v  -6.8488 6.4529 2.1951
v  -6.8246 6.0551 1.4865
v  -7.1533 5.1779 1.8563
v  -7.2730 4.9955 1.6468
v  -6.9413 3.5116 1.2685
v  -6.6351 -0.7186 3.6177
v  -5.8105 -0.0163 1.5396
v  -6.8842 -0.8382 6.4916
v  -5.8304 -1.1351 9.2075
v  -6.7732 5.6108 10.2633
v  -6.1911 2.6703 10.8155
v  -8.1907 -0.5442 4.0626
v  -7.6478 0.5066 2.7900
v  -8.3130 -0.8576 6.5213
v  -6.6905 -1.1028 9.0547
v  -4.3208 0.4961 9.5075
v  -3.4060 0.5424 9.5733
v  -5.7744 0.5121 9.1445
v  -6.7343 0.6491 8.8339
v  -7.9818 0.9094 5.9793
v  -8.3548 1.2825 3.9623
v  -8.6938 2.2922 1.7990
v  -6.1585 1.9376 1.2461
v  -4.1527 1.3955 -0.1011
v  -3.6137 1.3485 -0.1012
v  -3.2866 1.1946 0.3551
v  -2.8248 1.0493 0.8242
v  -1.1748 1.3192 0.8393
v  -0.2967 1.2929 0.9708
v  0.4107 1.0828 1.7361
v  0.8725 0.8944 3.2225
v  2.0372 -0.0128 5.8603
v  0.1727 0.6406 8.9276
v  -0.8661 0.4712 9.3918
v  -1.7099 0.6210 9.1416
v  -2.4687 0.7310 8.9685
v  -2.9292 0.6387 9.3173
# 156 vertices

vn 0.0482 0.2682 0.9622
vn 0.2074 -0.2842 0.9361
vn 0.3016 -0.2791 0.9117
vn 0.4290 0.0329 0.9027
vn 0.3293 -0.5148 -0.7915
vn 0.5425 -0.2580 -0.7994
vn 0.3938 0.0870 -0.9151
vn 0.3716 -0.1009 -0.9229
vn -0.0661 -0.9969 -0.0419
vn -0.1346 -0.6876 0.7136
vn 0.2294 -0.5786 0.7827
vn -0.0355 -0.9992 -0.0184
vn -0.9780 -0.1550 0.1396
vn -0.7985 -0.2103 0.5640
vn -0.8738 -0.0850 0.4787
vn -0.9878 -0.1022 0.1172
vn -0.2931 0.9559 -0.0187
vn -0.3955 0.8010 0.4495
vn -0.4550 0.6721 0.5842
vn -0.2834 0.9590 0.0058
vn 0.2047 0.9770 0.0590
vn 0.2920 0.9530 0.0810
vn 0.3138 0.9056 0.2853
vn 0.3179 0.8094 0.4938
vn 0.0089 -0.9994 -0.0349
vn -0.0570 -0.9956 -0.0744
vn -0.3066 -0.7879 -0.5340
vn 0.0142 -0.7680 -0.6402
vn -0.9656 0.2568 -0.0408
vn -0.4616 0.8830 -0.0848
vn -0.5205 0.7710 -0.3669
vn -0.8850 0.2715 -0.3782
vn 0.5435 0.8279 -0.1387
vn 0.3187 0.7528 -0.5759
vn 0.1600 0.9756 0.1503
vn 0.3991 0.9169 -0.0054
vn 0.9496 -0.1154 -0.2913
vn 0.9394 -0.0101 -0.3426
vn 0.6964 0.0759 -0.7136
vn 0.6694 -0.1517 -0.7272
vn -0.5536 -0.2115 0.8055
vn -0.2696 -0.1986 0.9423
vn -0.3142 0.0284 -0.9489
vn -0.3557 -0.3091 -0.8820
vn 0.2046 0.0461 -0.9778
vn -0.1034 0.2054 -0.9732
vn 0.0200 -0.9997 -0.0135
vn 0.0214 -0.5120 0.8587
vn -0.1975 -0.6373 0.7449
vn 0.0289 -0.9991 -0.0312
vn 0.2278 0.9709 0.0744
vn 0.2545 0.8947 0.3671
vn -0.0007 -0.9995 -0.0301
vn 0.2089 -0.7548 -0.6217
vn 0.0886 -0.8062 -0.5850
vn -0.0139 -0.9988 -0.0463
vn -0.3781 0.9214 0.0902
vn -0.5722 0.6182 -0.5388
vn -0.6079 0.4010 -0.6853
vn -0.3669 0.9279 -0.0659
vn 0.1637 0.6754 0.7190
vn 0.6530 0.4415 -0.6153
vn 0.4240 -0.1450 -0.8940
vn -0.9713 0.1969 0.1334
vn -0.8643 0.2004 0.4613
vn -0.5860 0.7934 0.1645
vn -0.6228 0.7822 0.0163
vn 0.9937 -0.1121 -0.0097
vn 0.8548 0.5170 -0.0453
vn 0.5808 0.5436 0.6059
vn 0.8012 -0.0975 0.5903
vn -0.9847 -0.1612 0.0654
vn -0.7907 0.2758 -0.5466
vn 0.3240 0.9449 -0.0469
vn -0.1522 -0.1156 0.9816
vn -0.6087 -0.2917 0.7378
vn -0.4939 -0.3087 -0.8128
vn -0.3755 -0.1295 -0.9177
vn 0.3721 -0.0835 0.9244
vn 0.2439 0.6486 0.7210
vn 0.0792 -0.6728 0.7355
vn -0.0456 -0.9976 -0.0529
vn 0.2018 -0.7310 -0.6518
vn -0.0583 -0.9961 -0.0656
vn 0.2951 0.1838 -0.9376
vn 0.1723 -0.1250 -0.9771
vn 0.3072 0.4948 -0.8129
vn 0.2534 0.9562 -0.1466
vn 0.1211 0.9922 0.0281
vn 0.9973 -0.0588 0.0448
vn -0.0179 0.9031 0.4290
vn -0.2855 0.3901 0.8754
vn -0.2536 -0.4942 -0.8315
vn 0.2858 -0.1245 -0.9502
vn 0.3494 -0.5114 0.7851
vn 0.0015 -0.9999 -0.0099
vn 0.0850 0.9950 0.0522
vn 0.2566 -0.7684 -0.5863
vn -0.0115 -0.9995 -0.0302
vn -0.2273 0.7590 -0.6101
vn -0.0169 0.9888 0.1483
vn -0.4568 -0.1295 0.8801
vn -0.2754 -0.3021 -0.9126
vn 0.6966 0.2682 -0.6655
vn 0.7445 0.6212 -0.2445
vn 0.7565 -0.1628 0.6334
vn -0.9954 0.0112 0.0947
vn -0.6739 0.0490 -0.7372
vn -0.0164 -0.1605 0.9869
vn -0.3282 -0.2541 0.9098
vn 0.3367 -0.1646 0.9271
vn -0.2052 -0.3628 0.9090
vn 0.5162 -0.6765 0.5252
vn 0.6277 -0.7733 0.0897
vn 0.7051 -0.5691 -0.4229
vn 0.5369 -0.8261 -0.1711
vn -0.2601 0.8597 0.4396
vn -0.3255 0.2802 0.9031
vn -0.2248 0.9744 0.0056
vn -0.2227 0.9513 -0.2131
vn -0.3336 0.4695 -0.8175
vn -0.2552 0.3325 -0.9079
vn -0.1293 0.4148 -0.9007
vn -0.1850 0.1041 -0.9772
vn -0.2184 -0.9403 -0.2610
vn -0.4807 -0.6167 -0.6234
vn 0.0003 -0.9970 -0.0772
vn -0.1645 -0.7545 0.6354
vn -0.2917 -0.0746 0.9536
vn -0.2146 -0.1987 0.9563
vn -0.7157 -0.6662 -0.2095
vn -0.6249 -0.5426 -0.5613
vn -0.7791 -0.5960 0.1944
vn -0.4920 -0.6026 0.6284
vn -0.1469 -0.0856 0.9854
vn 0.0173 0.0031 0.9998
vn -0.2777 -0.2021 0.9392
vn -0.7175 -0.1953 0.6686
vn -0.9675 -0.1192 0.2230
vn -0.9764 -0.2010 -0.0794
vn -0.8567 -0.1679 -0.4878
vn -0.4125 -0.1765 -0.8937
vn -0.2062 -0.0360 -0.9778
vn 0.3452 -0.0119 -0.9384
vn 0.5335 -0.0492 -0.8444
vn 0.3597 -0.0012 -0.9331
vn 0.1882 0.0903 -0.9780
vn 0.3405 0.1096 -0.9338
vn 0.7739 0.0903 -0.6269
vn 0.9599 -0.0023 -0.2803
vn 0.9847 -0.1730 0.0221
vn 0.7032 -0.0697 0.7075
vn 0.1947 0.0188 0.9807
vn 0.0854 -0.0110 0.9963
vn 0.3244 -0.0812 0.9424
vn 0.3348 -0.0394 0.9415
# 156 vertex normals

vt 0.4966 1.0301 0.0000
vt 0.5478 0.5513 0.0000
vt 0.6953 0.4332 0.0000
vt 0.8108 0.8238 0.0000
vt 0.2498 1.1950 0.0000
vt 0.1668 0.9688 0.0000
vt 0.5095 0.9518 0.0000
vt 0.5186 1.0508 0.0000
vt 0.2671 0.4679 0.0000
vt 0.2887 0.0042 0.0000
vt 0.3981 -0.0257 0.0000
vt 0.3988 0.4691 0.0000
vt 0.3065 0.4581 0.0000
vt 0.4001 -0.0314 0.0000
vt 0.7507 0.0271 0.0000
vt 0.7411 0.4604 0.0000
vt 0.3052 0.5020 0.0000
vt 0.1892 -0.0501 0.0000
vt 0.2939 -0.1481 0.0000
vt 0.4630 0.5062 0.0000
vt 0.8442 0.4703 0.0000
vt 0.7529 0.5024 0.0000
vt 0.7549 -0.0522 0.0000
vt 0.8543 -0.0202 0.0000
vt 0.5555 0.7896 0.0000
vt 0.6778 0.7834 0.0000
vt 0.7249 1.0825 0.0000
vt 0.6381 1.1202 0.0000
vt -0.2183 0.6716 0.0000
vt -0.1621 0.7061 0.0000
vt -0.1693 0.8269 0.0000
vt -0.2612 0.9141 0.0000
vt 0.6900 1.0381 0.0000
vt 0.6112 1.2232 0.0000
vt 0.6065 0.9486 0.0000
vt 0.7646 0.9040 0.0000
vt 0.1705 0.7916 0.0000
vt 0.5347 0.7357 0.0000
vt 0.5192 0.9045 0.0000
vt 0.1969 0.9241 0.0000
vt 0.9326 -0.1589 0.0000
vt 1.1171 -0.1481 0.0000
vt 1.0398 -0.0501 0.0000
vt 0.9047 -0.0639 0.0000
vt 0.7095 0.7630 0.0000
vt 0.5738 0.7602 0.0000
vt 0.5199 0.4984 0.0000
vt 0.6173 0.5202 0.0000
vt 0.5480 0.4625 0.0000
vt 0.5420 -0.0754 0.0000
vt 0.6685 -0.0278 0.0000
vt 0.6769 0.4655 0.0000
vt 0.6118 0.5064 0.0000
vt 0.4966 -0.1099 0.0000
vt 0.4004 0.7890 0.0000
vt 0.4603 1.0940 0.0000
vt 0.2270 1.0055 0.0000
vt 0.2304 0.8082 0.0000
vt 0.4078 0.9536 0.0000
vt 0.4270 1.2182 0.0000
vt 0.2228 1.0688 0.0000
vt 0.2359 0.9319 0.0000
vt 0.5023 -0.1939 0.0000
vt -0.0134 0.9684 0.0000
vt 0.1177 1.2612 0.0000
vt -0.2503 1.2232 0.0000
vt -0.1786 1.0381 0.0000
vt -0.2430 0.4680 0.0000
vt -0.0909 0.0065 0.0000
vt -0.0349 -0.0296 0.0000
vt -0.2302 0.5018 0.0000
vt 0.2393 0.4288 0.0000
vt 0.0438 0.4459 0.0000
vt 0.0177 0.0028 0.0000
vt 0.1561 0.0465 0.0000
vt 0.7948 0.7115 0.0000
vt 0.9255 0.6716 0.0000
vt 0.8378 0.9141 0.0000
vt 0.7523 0.9594 0.0000
vt 0.8847 0.8111 0.0000
vt 0.8752 0.9684 0.0000
vt 0.7238 -0.1589 0.0000
vt 0.7993 -0.0639 0.0000
vt 0.7502 -0.0141 0.0000
vt 0.6623 -0.1020 0.0000
vt 0.5757 0.8618 0.0000
vt 0.7347 0.8188 0.0000
vt 0.7772 0.9924 0.0000
vt 0.5730 1.2358 0.0000
vt 0.9572 0.8231 0.0000
vt 0.9475 0.9889 0.0000
vt 0.8543 1.0058 0.0000
vt 0.1732 -0.0060 0.0000
vt 0.0625 0.4364 0.0000
vt 0.0801 0.9957 0.0000
vt 0.0227 0.8094 0.0000
vt 0.1376 0.4876 0.0000
vt 0.2498 0.4905 0.0000
vt 0.1787 0.8332 0.0000
vt 0.0643 0.8196 0.0000
vt 0.9817 0.9495 0.0000
vt 0.9967 0.8024 0.0000
vt 0.9885 0.4797 0.0000
vt 0.8965 0.4680 0.0000
vt 0.9392 0.5018 0.0000
vt 0.9878 0.7061 0.0000
vt 0.6085 0.4399 0.0000
vt 0.9475 -0.0325 0.0000
vt 0.3921 -0.1277 0.0000
vt 0.3711 -0.1918 0.0000
vt 0.4784 0.7465 0.0000
vt 0.3786 0.7502 0.0000
vt 0.4020 0.4814 0.0000
vt 0.4679 0.4837 0.0000
vt 0.4687 -0.0611 0.0000
vt 0.4734 0.4669 0.0000
vt 0.5380 0.5074 0.0000
vt 0.5592 1.1161 0.0000
vt 0.4804 0.7891 0.0000
vt 0.5161 1.2353 0.0000
vt 0.5065 0.9630 0.0000
vt 0.4966 -0.2612 0.0000
vt 0.3758 -0.1980 0.0000
vt 0.3564 0.8823 0.0000
vt 0.4680 0.8566 0.0000
vt 0.4839 1.2612 0.0000
vt 0.3888 1.2503 0.0000
vt 0.3921 1.1450 0.0000
vt 0.2939 1.1171 0.0000
vt 0.2762 0.9326 0.0000
vt 0.3711 1.0085 0.0000
vt 0.3758 0.9314 0.0000
vt 0.3377 0.8060 0.0000
vt 0.5023 1.0486 0.0000
vt 0.8965 0.0065 0.0000
vt 0.0652 0.9465 0.0000
vt 0.0044 0.8019 0.0000
vt 0.5538 0.0978 0.0000
vt 0.3794 0.8069 0.0000
vt 0.5241 1.0529 0.0000
vt 0.2498 0.7859 0.0000
vt 0.2985 0.3958 0.0000
vt 0.4097 0.4508 0.0000
vt 0.8797 0.3922 0.0000
vt 0.1248 1.0134 0.0000
vt 0.0183 0.9716 0.0000
vt 0.4744 0.5002 0.0000
vt 0.5002 -0.1724 0.0000
vt 0.9314 -0.1980 0.0000
vt 0.8060 -0.1020 0.0000
vt 0.4508 -0.1120 0.0000
vt 1.0466 0.9823 0.0000
vt 1.1125 0.8439 0.0000
vt 0.0570 0.0547 0.0000
vt -0.1023 0.4206 0.0000
vt -0.0644 0.9428 0.0000
vt -0.0449 0.7814 0.0000
vt 0.0253 0.4808 0.0000
vt -0.0449 0.8031 0.0000
vt 1.0619 0.8019 0.0000
vt 1.0701 0.9465 0.0000
vt 1.2612 0.4459 0.0000
vt 1.0466 0.0028 0.0000
vt 1.0407 0.4462 0.0000
vt -0.0701 0.9348 0.0000
vt 0.0332 1.0095 0.0000
vt 0.0205 0.9774 0.0000
vt 0.2007 0.9047 0.0000
vt 0.1892 1.0398 0.0000
vt -0.0055 0.5027 0.0000
vt 0.0332 -0.0582 0.0000
vt 0.0146 0.9278 0.0000
vt 0.0179 1.0170 0.0000
vt 1.0268 0.7804 0.0000
vt 0.9821 0.9230 0.0000
vt 1.0430 0.7507 0.0000
vt 0.9979 0.5094 0.0000
vt 0.9563 0.7487 0.0000
vt 0.8442 1.0104 0.0000
vt 0.9902 0.3869 0.0000
vt 0.8470 0.0449 0.0000
vt 0.0249 0.8507 0.0000
vt 0.1040 0.3726 0.0000
vt 0.0205 -0.0966 0.0000
vt 1.2612 0.8378 0.0000
vt 1.1693 0.9583 0.0000
vt -0.2457 0.9594 0.0000
vt -0.0268 0.9705 0.0000
vt -0.0430 0.9969 0.0000
vt 1.2217 0.5241 0.0000
vt 1.2457 0.7523 0.0000
vt 1.1678 0.6927 0.0000
vt 1.0940 0.8529 0.0000
vt 1.1844 0.3831 0.0000
vt 0.9639 0.0642 0.0000
vt 0.3726 -0.1575 0.0000
vt 0.8507 -0.0880 0.0000
vt 0.9774 -0.0966 0.0000
vt 0.3583 0.0191 0.0000
vt 0.4826 0.0266 0.0000
vt 0.1607 0.0217 0.0000
vt 0.0302 0.0440 0.0000
vt -0.0316 0.4001 0.0000
vt 0.0863 0.4514 0.0000
vt 0.0440 0.0920 0.0000
vt 0.1470 0.7053 0.0000
vt 0.3112 0.9777 0.0000
vt 0.8916 0.2535 0.0000
vt 1.2362 0.3112 0.0000
vt 0.6189 0.1654 0.0000
vt 0.5456 0.1577 0.0000
vt 0.8673 1.1595 0.0000
vt 0.8423 1.2169 0.0000
vt 0.5016 1.0844 0.0000
vt 0.5163 1.0549 0.0000
vt 0.4384 0.1091 0.0000
vt 0.5012 0.1327 0.0000
vt 0.2141 0.1529 0.0000
vt 0.0948 0.1487 0.0000
vt -0.0014 0.1145 0.0000
vt 0.9161 0.7985 0.0000
vt 0.8855 0.9856 0.0000
vt 1.0636 0.4664 0.0000
vt 0.9574 0.0802 0.0000
vt 0.8278 0.0151 0.0000
vt 0.9690 0.0426 0.0000
vt 0.7131 0.0394 0.0000
vt 0.6100 0.0573 0.0000
vt 0.5474 0.0423 0.0000
vt 0.3315 -0.2112 0.0000
vt 0.4580 -0.1995 0.0000
vt 0.1530 -0.2461 0.0000
vt 0.0361 -0.2409 0.0000
vt -0.2010 0.3831 0.0000
vt -0.2409 0.0642 0.0000
vt -0.1500 0.6927 0.0000
vt 0.0208 0.8529 0.0000
vt 0.8442 -0.0642 0.0000
vt 1.0940 0.0208 0.0000
vt 0.7249 -0.1678 0.0000
vt 0.6381 -0.1561 0.0000
vt 0.5592 -0.1576 0.0000
vt 0.4603 -0.1659 0.0000
vt 0.2270 -0.1631 0.0000
vt 0.0801 -0.1645 0.0000
vt -0.0644 -0.1824 0.0000
vt 1.2074 0.7814 0.0000
vt 1.1824 0.9428 0.0000
vt 1.2067 0.4206 0.0000
vt 1.2425 0.0547 0.0000
vt 0.8268 -0.2612 0.0000
vt 0.9430 -0.2425 0.0000
vt 0.7113 -0.2322 0.0000
vt 0.6019 -0.1968 0.0000
vt 0.5313 -0.1944 0.0000
# 255 texture coords

o Box004
g Box004
usemtl 02___Default
s off
f 1/1/1 2/2/2 3/3/3 
f 3/3/3 4/4/4 1/1/1 
f 5/5/5 6/6/6 7/7/7 
f 7/7/7 8/8/8 5/5/5 
f 9/9/9 10/10/10 11/11/11 
f 11/11/11 12/12/12 9/9/9 
f 13/13/13 14/14/14 15/15/15 
f 15/15/15 16/16/16 13/13/13 
f 17/17/17 18/18/18 19/19/19 
f 19/19/19 20/20/20 17/17/17 
f 21/21/21 22/22/22 23/23/23 
f 23/23/23 24/24/24 21/21/21 
f 25/25/25 26/26/26 27/27/27 
f 27/27/27 28/28/28 25/25/25 
f 29/29/29 30/30/30 31/31/31 
f 31/31/31 32/32/32 29/29/29 
f 33/33/33 34/34/34 35/35/35 
f 35/35/35 36/36/36 33/33/33 
f 37/37/37 38/38/38 39/39/39 
f 39/39/39 40/40/40 37/37/37 
f 41/41/41 19/42/19 18/43/18 
f 18/43/18 42/44/42 41/41/41 
f 43/45/43 44/46/44 45/47/45 
f 45/47/45 46/48/46 43/45/43 
f 47/49/47 48/50/48 49/51/49 
f 49/51/49 50/52/50 47/49/47 
f 51/53/51 52/54/52 23/23/23 
f 23/23/23 22/22/22 51/53/51 
f 53/55/53 54/56/54 55/57/55 
f 55/57/55 56/58/56 53/55/53 
f 57/59/57 58/60/58 59/61/59 
f 59/61/59 60/62/60 57/59/57 
f 61/63/61 24/24/24 23/23/23 
f 23/23/23 52/54/52 61/63/61 
f 62/64/62 63/65/63 34/66/34 
f 34/66/34 33/67/33 62/64/62 
f 64/68/64 65/69/65 66/70/66 
f 66/70/66 67/71/67 64/68/64 
f 68/72/68 69/73/69 70/74/70 
f 70/74/70 71/75/71 68/72/68 
f 72/76/72 29/77/29 32/78/32 
f 32/78/32 73/79/73 72/76/72 
f 74/80/74 62/81/62 33/33/33 
f 33/33/33 36/36/36 74/80/74 
f 41/82/41 42/83/42 75/84/75 
f 75/84/75 76/85/76 41/82/41 
f 77/86/77 78/87/78 59/88/59 
f 59/88/59 58/89/58 77/86/77 
f 79/90/79 80/91/80 24/92/24 
f 24/92/24 4/4/4 79/90/79 
f 81/93/81 10/10/10 9/9/9 
f 9/9/9 82/94/82 81/93/81 
f 83/95/83 84/96/84 56/58/56 
f 56/58/56 55/57/55 83/95/83 
f 85/97/85 7/98/7 6/99/6 
f 6/99/6 86/100/86 85/97/85 
f 87/101/87 62/81/62 74/80/74 
f 74/80/74 88/102/88 87/101/87 
f 88/102/88 74/80/74 21/21/21 
f 21/21/21 89/103/89 88/102/88 
f 9/9/9 12/12/12 53/55/53 
f 53/55/53 56/58/56 9/9/9 
f 72/76/72 16/16/16 64/104/64 
f 64/104/64 29/77/29 72/76/72 
f 60/62/60 17/17/17 20/20/20 
f 20/20/20 57/59/57 60/62/60 
f 22/22/22 21/21/21 74/80/74 
f 74/80/74 36/36/36 22/22/22 
f 47/49/47 50/52/50 26/26/26 
f 26/26/26 25/25/25 47/49/47 
f 51/53/51 22/22/22 36/36/36 
f 36/36/36 35/35/35 51/53/51 
f 29/77/29 64/104/64 67/105/67 
f 67/105/67 30/106/30 29/77/29 
f 68/72/68 90/107/90 38/38/38 
f 38/38/38 37/37/37 68/72/68 
f 82/94/82 9/9/9 56/58/56 
f 56/58/56 84/96/84 82/94/82 
f 80/108/80 89/103/89 21/21/21 
f 21/21/21 24/24/24 80/108/80 
f 52/54/52 91/109/91 92/110/92 
f 92/110/92 61/63/61 52/54/52 
f 93/111/93 5/112/5 8/113/8 
f 8/113/8 94/114/94 93/111/93 
f 11/11/11 95/115/95 96/116/96 
f 96/116/96 12/12/12 11/11/11 
f 19/19/19 91/109/91 97/117/97 
f 97/117/97 20/20/20 19/19/19 
f 28/28/28 98/118/98 99/119/99 
f 99/119/99 25/25/25 28/28/28 
f 34/34/34 100/120/100 101/121/101 
f 101/121/101 35/35/35 34/34/34 
f 1/122/1 61/63/61 92/110/92 
f 92/110/92 102/123/102 1/122/1 
f 63/124/63 103/125/103 100/126/100 
f 100/126/100 34/127/34 63/124/63 
f 12/12/12 96/116/96 99/119/99 
f 99/119/99 53/55/53 12/12/12 
f 20/20/20 97/117/97 101/121/101 
f 101/121/101 57/59/57 20/20/20 
f 91/128/91 19/129/19 41/130/41 
f 41/130/41 92/131/92 91/128/91 
f 44/46/44 93/111/93 94/114/94 
f 94/114/94 45/47/45 44/46/44 
f 95/115/95 48/50/48 47/49/47 
f 47/49/47 96/116/96 95/115/95 
f 91/109/91 52/54/52 51/53/51 
f 51/53/51 97/117/97 91/109/91 
f 98/118/98 54/56/54 53/55/53 
f 53/55/53 99/119/99 98/118/98 
f 100/120/100 58/60/58 57/59/57 
f 57/59/57 101/121/101 100/120/100 
f 102/132/102 92/131/92 41/130/41 
f 41/130/41 76/133/76 102/132/102 
f 103/125/103 77/86/77 58/89/58 
f 58/89/58 100/126/100 103/125/103 
f 96/116/96 47/49/47 25/25/25 
f 25/25/25 99/119/99 96/116/96 
f 97/117/97 51/53/51 35/35/35 
f 35/35/35 101/121/101 97/117/97 
f 61/134/61 1/1/1 4/4/4 
f 4/4/4 24/92/24 61/134/61 
f 6/6/6 5/5/5 63/65/63 
f 63/65/63 62/64/62 6/6/6 
f 16/16/16 15/15/15 65/135/65 
f 65/135/65 64/104/64 16/16/16 
f 37/37/37 40/40/40 104/136/104 
f 104/136/104 105/137/105 37/37/37 
f 44/46/44 43/45/43 78/87/78 
f 78/87/78 77/86/77 44/46/44 
f 90/107/90 68/72/68 71/75/71 
f 71/75/71 106/138/106 90/107/90 
f 107/139/107 72/76/72 73/79/73 
f 73/79/73 108/140/108 107/139/107 
f 76/133/76 75/141/75 109/142/109 
f 109/142/109 110/143/110 76/133/76 
f 111/144/111 79/90/79 4/4/4 
f 4/4/4 3/3/3 111/144/111 
f 86/100/86 6/99/6 62/145/62 
f 62/145/62 87/146/87 86/100/86 
f 16/16/16 72/76/72 107/139/107 
f 107/139/107 13/13/13 16/16/16 
f 69/73/69 68/72/68 37/37/37 
f 37/37/37 105/137/105 69/73/69 
f 5/112/5 93/111/93 103/125/103 
f 103/125/103 63/124/63 5/112/5 
f 2/2/2 1/1/1 102/132/102 
f 102/132/102 112/147/112 2/2/2 
f 93/111/93 44/46/44 77/86/77 
f 77/86/77 103/125/103 93/111/93 
f 112/148/112 102/149/102 76/150/76 
f 76/150/76 110/151/110 112/148/112 
f 70/152/70 80/91/80 79/90/79 
f 79/90/79 71/153/71 70/152/70 
f 113/154/113 81/93/81 82/94/82 
f 82/94/82 114/155/114 113/154/113 
f 84/96/84 83/95/83 115/156/115 
f 115/156/115 116/157/116 84/96/84 
f 39/158/39 85/97/85 86/100/86 
f 86/100/86 40/159/40 39/158/39 
f 87/101/87 88/102/88 105/160/105 
f 105/160/105 104/161/104 87/101/87 
f 105/160/105 88/102/88 89/103/89 
f 89/103/89 69/162/69 105/160/105 
f 82/94/82 84/96/84 116/157/116 
f 116/157/116 114/155/114 82/94/82 
f 89/103/89 80/108/80 70/163/70 
f 70/163/70 69/162/69 89/103/89 
f 79/90/79 111/144/111 106/164/106 
f 106/164/106 71/153/71 79/90/79 
f 40/159/40 86/100/86 87/146/87 
f 87/146/87 104/165/104 40/159/40 
f 117/166/117 118/167/118 42/168/42 
f 42/168/42 18/169/18 117/166/117 
f 119/170/119 117/171/117 18/18/18 
f 18/18/18 17/17/17 119/170/119 
f 120/172/120 119/170/119 17/17/17 
f 17/17/17 60/62/60 120/172/120 
f 121/173/121 120/172/120 60/62/60 
f 60/62/60 59/61/59 121/173/121 
f 122/174/122 121/175/121 59/88/59 
f 59/88/59 78/87/78 122/174/122 
f 123/176/123 122/174/122 78/87/78 
f 78/87/78 43/45/43 123/176/123 
f 124/177/124 123/176/123 43/45/43 
f 43/45/43 46/48/46 124/177/124 
f 125/178/125 126/179/126 27/27/27 
f 27/27/27 26/26/26 125/178/125 
f 127/180/127 125/178/125 26/26/26 
f 26/26/26 50/52/50 127/180/127 
f 128/181/128 127/180/127 50/52/50 
f 50/52/50 49/51/49 128/181/128 
f 129/182/129 130/183/130 109/142/109 
f 109/142/109 75/141/75 129/182/129 
f 118/167/118 129/182/129 75/141/75 
f 75/141/75 42/168/42 118/167/118 
f 66/70/66 65/69/65 118/184/118 
f 118/184/118 117/171/117 66/70/66 
f 67/71/67 66/70/66 117/171/117 
f 117/171/117 119/170/119 67/71/67 
f 30/30/30 67/71/67 119/170/119 
f 119/170/119 120/172/120 30/30/30 
f 31/31/31 30/30/30 120/172/120 
f 120/172/120 121/173/121 31/31/31 
f 32/185/32 31/186/31 121/175/121 
f 121/175/121 122/174/122 32/185/32 
f 73/187/73 32/32/32 122/188/122 
f 122/188/122 123/189/123 73/187/73 
f 108/190/108 73/191/73 123/176/123 
f 123/176/123 124/177/124 108/190/108 
f 131/192/131 132/193/132 126/179/126 
f 126/179/126 125/178/125 131/192/131 
f 133/194/133 131/192/131 125/178/125 
f 125/178/125 127/180/127 133/194/133 
f 134/195/134 133/194/133 127/180/127 
f 127/180/127 128/181/128 134/195/134 
f 15/15/15 14/14/14 130/196/130 
f 130/196/130 129/197/129 15/15/15 
f 65/135/65 15/15/15 129/197/129 
f 129/197/129 118/198/118 65/135/65 
f 135/199/135 136/200/136 110/143/110 
f 110/143/110 109/142/109 135/199/135 
f 137/201/137 135/199/135 109/142/109 
f 109/142/109 130/183/130 137/201/137 
f 138/202/138 137/201/137 130/183/130 
f 130/183/130 14/203/14 138/202/138 
f 139/204/139 138/205/138 14/14/14 
f 14/14/14 13/13/13 139/204/139 
f 140/206/140 139/204/139 13/13/13 
f 13/13/13 107/139/107 140/206/140 
f 141/207/141 140/206/140 107/139/107 
f 107/139/107 108/140/108 141/207/141 
f 142/208/142 141/209/141 108/190/108 
f 108/190/108 124/177/124 142/208/142 
f 143/210/143 142/208/142 124/177/124 
f 124/177/124 46/48/46 143/210/143 
f 144/211/144 143/210/143 46/48/46 
f 46/48/46 45/47/45 144/211/144 
f 145/212/145 144/213/144 45/214/45 
f 45/214/45 94/215/94 145/212/145 
f 146/216/146 145/217/145 94/114/94 
f 94/114/94 8/113/8 146/216/146 
f 147/218/147 146/216/146 8/113/8 
f 8/113/8 7/98/7 147/218/147 
f 148/219/148 147/218/147 7/98/7 
f 7/98/7 85/97/85 148/219/148 
f 149/220/149 148/219/148 85/97/85 
f 85/97/85 39/158/39 149/220/149 
f 150/221/150 149/222/149 39/39/39 
f 39/39/39 38/38/38 150/221/150 
f 151/223/151 150/221/150 38/38/38 
f 38/38/38 90/107/90 151/223/151 
f 152/224/152 151/223/151 90/107/90 
f 90/107/90 106/138/106 152/224/152 
f 153/225/153 152/226/152 106/164/106 
f 106/164/106 111/144/111 153/225/153 
f 154/227/154 153/225/153 111/144/111 
f 111/144/111 3/3/3 154/227/154 
f 155/228/155 154/227/154 3/3/3 
f 3/3/3 2/2/2 155/228/155 
f 156/229/156 155/228/155 2/2/2 
f 2/2/2 112/147/112 156/229/156 
f 136/200/136 156/229/156 112/147/112 
f 112/147/112 110/143/110 136/200/136 
f 49/230/49 48/231/48 136/200/136 
f 136/200/136 135/199/135 49/230/49 
f 128/232/128 49/230/49 135/199/135 
f 135/199/135 137/201/137 128/232/128 
f 134/233/134 128/232/128 137/201/137 
f 137/201/137 138/202/138 134/233/134 
f 133/234/133 134/235/134 138/205/138 
f 138/205/138 139/204/139 133/234/133 
f 131/236/131 133/234/133 139/204/139 
f 139/204/139 140/206/140 131/236/131 
f 132/237/132 131/236/131 140/206/140 
f 140/206/140 141/207/141 132/237/132 
f 126/238/126 132/239/132 141/209/141 
f 141/209/141 142/208/142 126/238/126 
f 27/240/27 126/238/126 142/208/142 
f 142/208/142 143/210/143 27/240/27 
f 28/241/28 27/240/27 143/210/143 
f 143/210/143 144/211/144 28/241/28 
f 98/242/98 28/241/28 144/211/144 
f 144/211/144 145/217/145 98/242/98 
f 54/243/54 98/242/98 145/217/145 
f 145/217/145 146/216/146 54/243/54 
f 55/244/55 54/243/54 146/216/146 
f 146/216/146 147/218/147 55/244/55 
f 83/245/83 55/244/55 147/218/147 
f 147/218/147 148/219/148 83/245/83 
f 115/246/115 83/245/83 148/219/148 
f 148/219/148 149/220/149 115/246/115 
f 116/247/116 115/248/115 149/222/149 
f 149/222/149 150/221/150 116/247/116 
f 114/249/114 116/247/116 150/221/150 
f 150/221/150 151/223/151 114/249/114 
f 113/250/113 114/249/114 151/223/151 
f 151/223/151 152/224/152 113/250/113 
f 81/251/81 113/252/113 152/226/152 
f 152/226/152 153/225/153 81/251/81 
f 10/253/10 81/251/81 153/225/153 
f 153/225/153 154/227/154 10/253/10 
f 11/254/11 10/253/10 154/227/154 
f 154/227/154 155/228/155 11/254/11 
f 95/255/95 11/254/11 155/228/155 
f 155/228/155 156/229/156 95/255/95 
f 48/231/48 95/255/95 156/229/156 
f 156/229/156 136/200/136 48/231/48 
# 308 faces

