# 3ds Max Wavefront OBJ Exporter v0.99 - (c)2007 guruware
# File Created: 04.01.2023 17:41:27

mtllib ppaq.mtl

#
# object Box001
#

v  -34.3029 0.0000 -1.5329
v  -34.3029 0.0000 -1.6045
v  38.6887 0.0000 -1.6045
v  38.6887 0.0000 -1.5329
v  -34.3029 8.5715 -1.5329
v  38.6887 8.5715 -1.5329
v  38.6887 8.5715 -1.6045
v  -34.3029 8.5715 -1.6045
# 8 vertices

vn 0.0000 -1.0000 -0.0000
vn 0.0000 1.0000 -0.0000
vn 0.0000 0.0000 1.0000
vn 1.0000 0.0000 -0.0000
vn 0.0000 0.0000 -1.0000
vn -1.0000 0.0000 -0.0000
# 6 vertex normals

vt 0.0386 0.3273 0.0000
vt 0.0386 0.2382 0.0000
vt 0.9296 0.2382 0.0000
vt 0.9296 0.3273 0.0000
vt -0.0127 0.8082 0.0000
vt 0.9555 0.8082 0.0000
vt 0.9555 0.8954 0.0000
vt -0.0127 0.8954 0.0000
vt -0.0127 0.4421 0.0000
vt 0.9873 0.4421 0.0000
vt 0.9873 0.5816 0.0000
vt -0.0127 0.5816 0.0000
vt 0.1588 0.6276 0.0000
vt 0.8348 0.6276 0.0000
vt 0.8348 0.7623 0.0000
vt 0.1588 0.7623 0.0000
vt 0.1271 0.8463 0.0000
vt 0.8666 0.8463 0.0000
vt 0.8666 0.9857 0.0000
vt 0.1271 0.9857 0.0000
vt 0.0254 0.0475 0.0000
vt 0.9555 0.0475 0.0000
vt 0.9555 0.1728 0.0000
vt 0.0254 0.1728 0.0000
# 24 texture coords

o Box001
g Box001
usemtl 01___Default
s 2
f 1/1/1 2/2/1 3/3/1 
f 3/3/1 4/4/1 1/1/1 
s 4
f 5/5/2 6/6/2 7/7/2 
f 7/7/2 8/8/2 5/5/2 
s 8
f 1/9/3 4/10/3 6/11/3 
f 6/11/3 5/12/3 1/9/3 
s 16
f 4/13/4 3/14/4 7/15/4 
f 7/15/4 6/16/4 4/13/4 
s 32
f 3/17/5 2/18/5 8/19/5 
f 8/19/5 7/20/5 3/17/5 
s 64
f 2/21/6 1/22/6 5/23/6 
f 5/23/6 8/24/6 2/21/6 
# 12 faces

