# 3ds Max Wavefront OBJ Exporter v0.99 - (c)2007 guruware
# File Created: 21.12.2022 16:11:14

mtllib Tiburon_inf.mtl

#
# object Cube
#

v  0.4086 2.8761 -1.8195
v  0.4086 2.8761 0.1805
v  0.5486 2.8761 0.1805
v  0.5486 2.8761 -1.8195
v  0.4086 0.0000 0.1805
v  0.5486 0.0000 0.1805
v  0.4086 0.0000 -1.8195
v  0.5486 0.0000 -1.8195
# 8 vertices

vn 0.0000 1.0000 -0.0000
vn 0.0000 0.0000 1.0000
vn -1.0000 0.0000 -0.0000
vn 0.0000 -1.0000 -0.0000
vn 1.0000 0.0000 -0.0000
vn 0.0000 0.0000 -1.0000
# 6 vertex normals

vt 0.0096 0.5946 0.0000
vt 0.0096 0.5480 0.0000
vt 0.0410 0.5480 0.0000
vt 0.0410 0.5946 0.0000
vt 0.0405 0.6687 0.0000
vt 0.0057 0.6687 0.0000
vt 0.0057 0.6483 0.0000
vt 0.0405 0.6483 0.0000
vt 0.0788 0.5719 0.0000
vt 0.0496 0.5719 0.0000
vt 0.0496 0.5427 0.0000
vt 0.0788 0.5427 0.0000
vt 0.0369 0.6034 0.0000
vt 0.0369 0.6448 0.0000
vt 0.0108 0.6448 0.0000
vt 0.0108 0.6034 0.0000
vt 0.9955 0.9968 0.0000
vt 0.0046 0.9968 0.0000
vt 0.0046 0.0004 0.0000
vt 0.9955 0.0004 0.0000
vt 0.1343 0.5722 0.0000
vt 0.0951 0.5722 0.0000
vt 0.0951 0.5425 0.0000
vt 0.1343 0.5425 0.0000
# 24 texture coords

o Cube
g Cube
usemtl Tiburon_Tiburon_Material
s off
f 1/1/1 2/2/1 3/3/1 
f 3/3/1 4/4/1 1/1/1 
f 3/5/2 2/6/2 5/7/2 
f 5/7/2 6/8/2 3/5/2 
f 2/9/3 1/10/3 7/11/3 
f 7/11/3 5/12/3 2/9/3 
f 8/13/4 6/14/4 5/15/4 
f 5/15/4 7/16/4 8/13/4 
f 4/17/5 3/18/5 6/19/5 
f 6/19/5 8/20/5 4/17/5 
f 1/21/6 4/22/6 8/23/6 
f 8/23/6 7/24/6 1/21/6 
# 12 faces

