# Blender v2.93.5 OBJ File: ''
# www.blender.org
mtllib KOSHIRO_ABrazo_2.mtl
o AnteBrazo_2_face_Plane.007
v -0.118751 -0.003902 0.010289
v -0.037192 -0.005427 0.012102
v -0.036100 0.012476 0.024793
v -0.118763 0.012883 0.021104
v -0.036341 0.036310 0.015022
v -0.118748 0.033969 0.012227
v -0.036263 0.036099 -0.026747
v -0.118702 0.033932 -0.023896
v -0.118722 0.043752 -0.006468
v -0.036497 0.047937 -0.006489
v -0.118726 -0.006301 -0.008319
v -0.037755 -0.008377 -0.009392
v -0.172020 0.032729 -0.023319
v -0.173860 0.041899 -0.006718
v -0.175142 0.032790 0.010908
v -0.036121 0.019607 -0.032424
v -0.118698 0.019234 -0.028502
v -0.036330 0.000071 -0.029646
v -0.118702 0.001906 -0.025874
v -0.171355 0.018897 -0.027721
v -0.173888 0.012917 0.019509
v -0.173866 -0.003093 0.009211
v -0.173830 -0.005277 -0.008457
v -0.171521 0.002572 -0.025200
v -0.155153 -0.028954 0.012387
v -0.024455 -0.035627 0.017404
v -0.020637 -0.027153 0.035685
v -0.154496 -0.020289 0.030757
v -0.153670 -0.024192 -0.031475
v -0.173930 -0.024889 -0.029770
v -0.170629 0.004991 -0.041193
v -0.151844 0.004755 -0.043334
v -0.150957 0.033218 -0.040759
v -0.015783 0.030417 -0.045448
v -0.016528 -0.002167 -0.046414
v -0.016461 0.052906 -0.020872
v -0.150973 0.050285 -0.018780
v -0.150974 0.050354 0.013500
v -0.015754 0.052744 0.015368
v -0.018943 -0.031635 -0.033632
v -0.028826 -0.033199 -0.034713
v -0.043191 -0.031861 -0.034108
v -0.041307 -0.000447 -0.047193
v -0.027456 -0.001415 -0.048060
v -0.006251 -0.045949 0.021442
v -0.003558 -0.036740 0.048071
v -0.155077 -0.029910 -0.012234
v -0.024995 -0.037588 -0.013495
v 0.000842 0.005501 0.053299
v 0.002158 0.033808 0.040625
v -0.016960 0.008983 0.048394
v -0.152266 0.016859 0.041884
v -0.171041 0.033308 -0.038377
v -0.175504 -0.030313 -0.011559
v -0.175605 0.017308 0.038448
v -0.175511 -0.021254 0.028319
v -0.175508 -0.029536 0.010867
v -0.174106 0.050006 -0.017639
v -0.175550 0.050093 0.012322
v 0.002544 0.052589 0.016229
v 0.001351 0.053541 -0.022563
v 0.003039 0.029887 -0.048773
v 0.002967 -0.005727 -0.051727
v 0.001813 -0.040580 -0.041932
v -0.004904 -0.046334 -0.014674
v -0.035367 0.016929 0.050847
v -0.035455 0.014291 0.051031
v -0.030173 0.018946 0.050032
v -0.032785 0.019204 0.050359
v -0.034889 0.023860 0.047990
v -0.035091 0.021606 0.049361
v -0.040171 0.019206 0.048989
v -0.037673 0.019331 0.049849
v -0.022580 -0.001878 -0.049118
v -0.026964 0.030885 -0.046348
v -0.022167 0.031058 -0.047368
v -0.022155 0.053931 0.016605
v -0.026953 0.053647 0.016095
v -0.027578 0.036927 0.040033
v -0.022924 0.037143 0.041206
v -0.022826 0.055398 -0.022427
v -0.027315 0.054870 -0.021651
v -0.025515 -0.029955 0.037897
v -0.030228 -0.028935 0.036971
v -0.031177 -0.037671 0.017928
v -0.026348 -0.038891 0.018468
v -0.040794 0.037680 0.038569
v -0.041863 0.011276 0.048761
v -0.028386 0.010021 0.050221
v -0.043741 -0.027761 0.035879
v -0.041863 0.010813 0.051405
v -0.047350 0.011354 0.051357
v -0.049247 -0.027737 0.035871
v -0.040568 0.053013 0.015650
v -0.040568 0.054109 -0.020865
v -0.046078 0.054166 -0.020941
v -0.045903 0.053308 0.015793
v -0.044976 -0.036442 0.016985
v -0.045686 -0.038102 -0.013262
v -0.031540 -0.039518 -0.013554
v -0.023667 0.009173 0.054031
v -0.028386 0.009558 0.052805
v -0.045655 0.038475 0.038658
v -0.040571 0.031181 -0.045623
v -0.051449 -0.038113 -0.013241
v -0.048995 -0.031822 -0.034247
v -0.023648 0.009862 0.050502
v -0.026583 -0.040824 -0.013761
v -0.023792 -0.034335 -0.035396
v -0.041298 0.023770 0.047276
v -0.028218 0.022754 0.048645
v -0.034454 0.029689 0.045509
v -0.023619 0.022677 0.049771
v -0.034342 0.035546 0.043743
v -0.050602 -0.036518 0.016792
v -0.046096 0.031505 -0.045894
v -0.046684 0.024474 0.047060
v -0.046927 -0.000160 -0.047409
v -0.046767 0.011733 0.048230
v -0.062207 0.009573 -0.011541
v -0.062268 0.009573 -0.011541
v -0.022237 0.009573 -0.011541
v -0.019536 0.009573 -0.011541
v -0.062789 0.009573 -0.011541
v -0.062144 0.009573 -0.011541
v -0.021151 0.009573 -0.011541
v -0.021172 0.009573 -0.011541
v -0.062180 0.009573 -0.011541
v -0.021687 0.009573 -0.011541
v -0.062229 0.009573 -0.011541
v -0.019291 0.009573 -0.011541
v -0.062418 0.009573 -0.011541
v -0.017483 0.009573 -0.011541
v -0.062608 0.009573 -0.011541
v -0.062513 0.009573 -0.011541
v -0.062785 0.009573 -0.011541
v -0.025494 0.009573 -0.011541
v -0.062388 0.009573 -0.011541
v -0.062179 0.009573 -0.011541
v -0.015264 0.009573 -0.011541
vt 0.689014 0.048682
vt 0.722944 0.048683
vt 0.723483 0.057553
vt 0.689000 0.057747
vt 0.723335 0.066149
vt 0.688879 0.066482
vt 0.723074 0.016734
vt 0.688574 0.016533
vt 0.688247 0.007337
vt 0.722535 0.007337
vt 0.722874 0.078665
vt 0.688458 0.078665
vt 0.688947 0.040166
vt 0.722647 0.040055
vt 0.665679 0.016508
vt 0.664858 0.007337
vt 0.665058 0.078665
vt 0.665178 0.066474
vt 0.723357 0.021976
vt 0.688677 0.021785
vt 0.723469 0.031533
vt 0.688850 0.031497
vt 0.666041 0.021735
vt 0.665213 0.057767
vt 0.665203 0.048615
vt 0.665158 0.040103
vt 0.666032 0.031395
vt 0.163007 0.531435
vt 0.226987 0.525719
vt 0.230754 0.535576
vt 0.163567 0.541132
vt 0.161999 0.642381
vt 0.152205 0.642608
vt 0.154495 0.626806
vt 0.163593 0.627247
vt 0.164620 0.613195
vt 0.231594 0.617719
vt 0.229975 0.635322
vt 0.232114 0.601032
vt 0.165046 0.598361
vt 0.165428 0.582244
vt 0.232768 0.583223
vt 0.226941 0.651595
vt 0.337426 0.974471
vt 0.337426 0.980299
vt 0.321796 0.980299
vt 0.321796 0.974471
vt 0.234270 0.524788
vt 0.239385 0.536465
vt 0.162753 0.519805
vt 0.223143 0.511324
vt 0.242010 0.554191
vt 0.241652 0.568733
vt 0.233082 0.555753
vt 0.165046 0.560191
vt 0.221399 0.660617
vt 0.160858 0.651816
vt 0.154831 0.612402
vt 0.151166 0.651669
vt 0.153429 0.560678
vt 0.153194 0.540335
vt 0.153157 0.530899
vt 0.153194 0.520202
vt 0.153636 0.597787
vt 0.153229 0.582436
vt 0.241332 0.583027
vt 0.240489 0.601674
vt 0.240514 0.618926
vt 0.239428 0.636989
vt 0.236886 0.653565
vt 0.228928 0.663917
vt 0.230704 0.508503
vt 0.044164 0.864664
vt 0.044164 0.882056
vt 0.013166 0.850294
vt 0.029345 0.850332
vt 0.044164 0.818990
vt 0.044164 0.836111
vt 0.075162 0.850294
vt 0.058983 0.850332
vt 0.045200 0.861821
vt 0.032784 0.851477
vt 0.043128 0.839061
vt 0.055545 0.849405
vt 0.308570 0.938793
vt 0.308543 0.942250
vt 0.296217 0.942250
vt 0.296239 0.938793
vt 0.269531 0.938793
vt 0.269649 0.942250
vt 0.259475 0.942250
vt 0.259224 0.938793
vt 0.286633 0.938793
vt 0.286668 0.942250
vt 0.350869 0.938793
vt 0.350722 0.942250
vt 0.340989 0.942250
vt 0.341168 0.938793
vt 0.260819 0.974471
vt 0.260819 0.980299
vt 0.250000 0.980299
vt 0.250000 0.974471
vt 0.350246 0.946775
vt 0.367882 0.946775
vt 0.367733 0.949741
vt 0.349915 0.949741
vt 0.269221 0.946775
vt 0.286806 0.946775
vt 0.286799 0.949741
vt 0.269290 0.949741
vt 0.360851 0.974471
vt 0.360851 0.980299
vt 0.347159 0.980299
vt 0.347159 0.974471
vt 0.368927 0.938793
vt 0.368607 0.942250
vt 0.259363 0.946775
vt 0.259664 0.949741
vt 0.307116 0.974471
vt 0.307116 0.980299
vt 0.295231 0.980299
vt 0.295231 0.974471
vt 0.321649 0.946775
vt 0.330070 0.946775
vt 0.329938 0.949741
vt 0.321637 0.949741
vt 0.249997 0.942250
vt 0.249997 0.938793
vt 0.330177 0.938793
vt 0.330259 0.942250
vt 0.321562 0.942250
vt 0.321412 0.938793
vt 0.273416 0.974471
vt 0.273416 0.980299
vt 0.370057 0.974471
vt 0.370057 0.980299
vt 0.394962 0.980299
vt 0.394962 0.974471
vt 0.397998 0.977583
vt 0.388893 0.974471
vt 0.388893 0.980299
vt 0.377341 0.944337
vt 0.374282 0.942250
vt 0.375046 0.938793
vt 0.380695 0.944394
vt 0.341908 0.946775
vt 0.341545 0.949741
vt 0.296576 0.946775
vt 0.296456 0.949741
vt 0.373989 0.946775
vt 0.373617 0.949741
vt 0.308529 0.949741
vt 0.308676 0.946775
vt 0.249997 0.946775
vt 0.249997 0.949741
vt 0.022625 0.104213
vt 0.018205 0.087849
vt 0.046951 0.080094
vt 0.051977 0.095488
vt 0.007106 0.282570
vt 0.017635 0.264633
vt 0.049565 0.269529
vt 0.046009 0.288079
vt 0.022392 0.246974
vt 0.052615 0.252789
vt 0.024117 0.226772
vt 0.057125 0.234270
vt 0.007332 0.064986
vt 0.042969 0.049703
vt 0.026352 0.209315
vt 0.060343 0.216481
vn -0.0273 -0.8478 0.5295
vn -0.0314 -0.8427 0.5374
vn -0.0427 -0.0933 0.9947
vn -0.0362 -0.0922 0.9951
vn -0.0444 0.6701 0.7410
vn -0.0378 0.6756 0.7363
vn -0.0460 0.6289 -0.7761
vn -0.0346 0.6321 -0.7741
vn -0.0404 0.9991 -0.0153
vn -0.0485 0.9987 -0.0167
vn -0.0236 -0.9888 -0.1472
vn -0.0294 -0.9888 -0.1460
vn -0.0231 0.6426 -0.7658
vn -0.0323 0.9994 0.0103
vn -0.0312 0.6789 0.7336
vn -0.0468 0.0865 -0.9952
vn -0.0314 0.0819 -0.9961
vn -0.0466 -0.5911 -0.8053
vn -0.0319 -0.6032 -0.7970
vn -0.0158 0.0786 -0.9968
vn -0.0298 -0.0755 0.9967
vn -0.0234 -0.8469 0.5313
vn -0.0178 -0.9893 -0.1450
vn -0.0173 -0.6154 -0.7880
vn 0.0055 -0.9706 0.2407
vn -0.2985 -0.9257 0.2325
vn -0.3689 -0.6608 0.6537
vn -0.0424 -0.7206 0.6920
vn -0.0228 -0.8126 -0.5823
vn 0.0794 -0.7691 -0.6342
vn -0.0234 -0.2307 -0.9727
vn -0.0599 -0.0233 -0.9979
vn -0.0457 0.4740 -0.8793
vn -0.1033 0.4342 -0.8949
vn -0.1516 -0.0512 -0.9871
vn -0.0652 0.8824 -0.4659
vn -0.0193 0.9005 -0.4345
vn -0.0173 0.9150 0.4031
vn -0.0317 0.8942 0.4465
vn -0.2901 -0.7645 -0.5757
vn -0.0990 -0.8124 -0.5747
vn -0.0997 -0.8312 -0.5469
vn -0.0600 -0.0543 -0.9967
vn -0.0608 -0.0630 -0.9962
vn -0.5713 -0.8065 0.1523
vn -0.6779 -0.3433 0.6500
vn 0.0117 -0.9919 -0.1262
vn -0.2512 -0.9579 -0.1391
vn -0.4624 0.0254 0.8863
vn -0.4008 0.6008 0.6916
vn -0.1359 0.1695 0.9761
vn -0.0762 0.1842 0.9799
vn -0.0890 0.5026 -0.8599
vn 0.0169 -0.9929 -0.1173
vn -0.0842 0.2139 0.9732
vn 0.0046 -0.6119 0.7909
vn 0.0091 -0.9738 0.2273
vn 0.0490 0.9757 -0.2135
vn -0.0361 0.9090 0.4153
vn -0.1737 0.9281 0.3293
vn -0.1573 0.9546 -0.2530
vn -0.1834 0.3991 -0.8984
vn -0.3920 -0.1611 -0.9058
vn -0.5073 -0.4566 -0.7308
vn -0.4984 -0.8490 -0.1755
vn -0.1016 0.0725 0.9922
vn 0.1471 0.2917 0.9451
vn -0.0749 0.5231 0.8490
vn -0.0750 0.5231 0.8490
vn -0.3240 0.3038 0.8959
vn -0.3237 0.3039 0.8960
vn -0.0909 0.3064 0.9475
vn 0.6330 -0.0561 -0.7721
vn -0.9974 0.0127 0.0716
vn -0.9992 -0.0162 0.0373
vn 0.6140 0.3205 -0.7213
vn 0.7038 0.6343 0.3199
vn -0.9993 0.0371 -0.0054
vn -0.9994 0.0076 -0.0341
vn 0.6551 0.4375 0.6160
vn 0.6618 0.6560 -0.3629
vn -0.9998 0.0192 0.0042
vn 0.5653 -0.6444 0.5150
vn -0.9922 0.1167 -0.0428
vn -0.9934 0.1148 -0.0019
vn 0.5838 -0.7893 0.1904
vn -0.0594 0.6067 0.7927
vn -0.0573 0.6327 0.7723
vn 0.1728 -0.7766 0.6059
vn -0.3975 -0.7602 0.5139
vn 0.9918 -0.1229 0.0357
vn 0.9943 -0.0342 0.1010
vn -0.7350 0.0934 0.6716
vn -0.7319 -0.4987 0.4643
vn 0.9978 0.0576 0.0315
vn 0.9971 0.0696 -0.0323
vn -0.7068 0.6260 -0.3296
vn -0.7074 0.6364 0.3077
vn -0.1052 -0.9621 0.2517
vn -0.1044 -0.9668 0.2333
vn -0.0997 -0.9884 -0.1148
vn -0.1000 -0.9867 -0.1282
vn 0.6007 0.0388 0.7985
vn -0.9952 0.0235 -0.0946
vn 0.9978 0.0202 0.0631
vn -0.6879 0.4749 0.5489
vn -0.0574 0.4094 -0.9105
vn -0.0573 0.4242 -0.9038
vn -0.0507 0.8849 -0.4630
vn -0.0512 0.8807 -0.4709
vn 0.9902 -0.1361 0.0321
vn 0.9920 -0.1225 0.0289
vn -0.7603 -0.6411 -0.1048
vn -0.7102 -0.5469 -0.4434
vn 0.5266 -0.4101 0.7447
vn 0.5715 -0.8178 -0.0675
vn -0.9918 0.1218 -0.0396
vn -0.9911 0.1296 -0.0296
vn 0.5826 -0.6991 -0.4145
vn -0.0387 0.9002 0.4338
vn -0.0387 0.9006 0.4330
vn -0.1211 -0.7522 0.6477
vn -0.1206 -0.7646 0.6331
vn -0.0719 0.3231 0.9436
vn -0.0720 0.3208 0.9444
vn -0.0696 0.3584 0.9310
vn -0.0966 0.0706 0.9928
vn -0.0949 0.0896 0.9914
vn -0.0784 -0.9288 0.3622
vn -0.9435 -0.3273 0.0514
vn 0.6894 0.3676 0.6242
vn 0.0533 0.9491 0.3103
vn 0.9928 -0.1197 -0.0099
vn -0.7477 -0.6375 0.1857
vn 0.9981 0.0178 -0.0593
vn -0.6746 0.3267 -0.6620
vn 0.9029 -0.3677 0.2224
vn -0.7864 0.3912 0.4781
vn -0.7333 -0.0162 -0.6797
vn 0.9971 -0.0235 -0.0728
vn 0.1727 -0.7765 0.6059
vn -0.6687 -0.3721 0.6437
vn 0.0310 0.0195 0.9993
vn 0.0455 -0.1313 -0.9903
vn -0.8400 0.2855 -0.4614
vn -0.0568 -0.7344 0.6764
vn -0.9766 0.1336 -0.1683
vn 0.0320 0.0160 -0.9994
vn -0.6603 -0.1491 -0.7360
vn -0.7088 -0.7045 0.0342
vn -0.0081 0.0801 0.9968
vn 0.0157 0.9998 -0.0097
vn -0.0013 -0.0442 0.9990
vn -0.7003 -0.7124 0.0467
vn -0.0143 0.0022 -0.9999
vn 0.0282 -0.9926 -0.1178
usemtl face.001
s 1
f 1/1/1 2/2/2 3/3/3 4/4/4
f 5/5/5 6/6/6 4/4/4 3/3/3
f 7/7/7 8/8/8 9/9/9 10/10/10
f 6/6/6 5/5/5 10/11/10 9/12/9
f 2/2/2 1/1/1 11/13/11 12/14/12
f 9/9/9 8/8/8 13/15/13 14/16/14
f 6/6/6 9/12/9 14/17/14 15/18/15
f 8/8/8 7/7/7 16/19/16 17/20/17
f 18/21/18 19/22/19 17/20/17 16/19/16
f 19/22/19 18/21/18 12/14/12 11/13/11
f 17/20/17 20/23/20 13/15/13 8/8/8
f 4/4/4 6/6/6 15/18/15 21/24/21
f 1/1/1 4/4/4 21/24/21 22/25/22
f 23/26/23 11/13/11 1/1/1 22/25/22
f 24/27/24 19/22/19 11/13/11 23/26/23
f 19/22/19 24/27/24 20/23/20 17/20/17
usemtl cloth.001
f 25/28/25 26/29/26 27/30/27 28/31/28
f 29/32/29 30/33/30 31/34/31 32/35/32
f 33/36/33 34/37/34 35/38/35 32/35/32
f 36/39/36 37/40/37 38/41/38 39/42/39
f 32/35/32 35/38/35 40/43/40 29/32/29
f 41/44/41 42/45/42 43/46/43 44/47/44
f 37/40/37 36/39/36 34/37/34 33/36/33
f 26/29/26 45/48/45 46/49/46 27/30/27
f 47/50/47 48/51/48 26/29/26 25/28/25
f 49/52/49 50/53/50 51/54/51
f 51/54/51 52/55/52 28/31/28 27/30/27
f 29/32/29 40/43/40 48/56/48 47/57/47
f 52/55/52 51/54/51 39/42/39 38/41/38
f 32/35/32 31/34/31 53/58/53 33/36/33
f 47/57/47 54/59/54 30/33/30 29/32/29
f 52/55/52 55/60/55 56/61/56 28/31/28
f 25/28/25 57/62/57 54/63/54 47/50/47
f 28/31/28 56/61/56 57/62/57 25/28/25
f 33/36/33 53/58/53 58/64/58 37/40/37
f 37/40/37 58/64/58 59/65/59 38/41/38
f 39/42/39 60/66/60 61/67/61 36/39/36
f 36/39/36 61/67/61 62/68/62 34/37/34
f 34/37/34 62/68/62 63/69/63 35/38/35
f 40/43/40 64/70/64 65/71/65 48/56/48
f 39/42/39 50/53/50 60/66/60
f 51/54/51 50/53/50 39/42/39
f 48/51/48 65/72/65 45/48/45 26/29/26
f 38/41/38 59/65/59 55/60/55 52/55/52
f 51/54/51 27/30/27 46/49/46 49/52/49
f 64/70/64 40/43/40 35/38/35 63/69/63
f 66/73/66 67/74/66 68/75/67 69/76/67
f 69/76/67 68/75/67 70/77/68 71/78/69
f 71/78/69 70/77/68 72/79/70 73/80/71
f 66/81/72 69/82/72 71/83/72 73/84/72
f 74/85/73 44/86/74 75/87/75 76/88/76
f 77/89/77 78/90/78 79/91/79 80/92/80
f 81/93/81 82/94/82 78/90/78 77/89/77
f 83/95/83 84/96/84 85/97/85 86/98/86
f 79/99/87 87/100/88 88/101/89 89/102/90
f 90/103/91 91/104/92 92/105/93 93/106/94
f 94/107/95 95/108/96 96/109/97 97/110/98
f 85/111/99 98/112/100 99/113/101 100/114/102
f 101/115/103 102/116/104 84/96/84 83/95/83
f 87/117/105 94/107/95 97/110/98 103/118/106
f 75/119/107 104/120/108 95/121/109 82/122/110
f 42/123/111 99/124/112 105/125/113 106/126/114
f 100/114/102 99/113/101 42/45/42 41/44/41
f 80/92/80 79/91/79 89/127/90 107/128/115
f 108/129/116 100/130/117 41/131/118 109/132/119
f 78/133/120 94/134/121 87/100/88 79/99/87
f 44/47/44 43/46/43 104/120/108 75/119/107
f 84/135/122 90/136/123 98/112/100 85/111/99
f 110/137/124 111/138/125 112/139/126
f 102/140/127 111/138/125 110/137/124 91/141/128
f 112/142/129 111/143/130 113/144/131 114/145/132
f 98/146/133 90/103/91 93/106/94 115/147/134
f 95/108/96 104/148/135 116/149/136 96/109/97
f 76/88/76 75/87/75 82/94/82 81/93/81
f 99/124/112 98/146/133 115/147/134 105/125/113
f 86/98/86 85/97/85 100/130/117 108/129/116
f 91/104/92 110/150/137 117/151/138 92/105/93
f 114/145/132 117/151/138 110/150/137 112/142/129
f 42/123/111 106/126/114 118/152/139 43/153/140
f 109/132/119 41/131/118 44/86/74 74/85/73
f 104/148/135 43/153/140 118/152/139 116/149/136
f 101/115/103 113/144/131 111/143/130 102/116/104
f 102/140/127 91/141/128 90/136/123 84/135/122
f 82/122/110 95/121/109 94/134/121 78/133/120
f 88/154/141 87/117/105 103/118/106 119/155/142
f 73/80/71 72/79/70 67/74/66 66/73/66
f 120/156/143 121/157/144 122/158/145 123/159/146
f 124/160/147 125/161/148 126/162/149 127/163/150
f 125/161/148 128/164/151 129/165/152 126/162/149
f 128/164/151 130/166/153 131/167/154 129/165/152
f 121/157/144 124/168/147 127/169/150 122/158/145
f 130/166/153 132/170/155 133/171/156 131/167/154
l 132 135
l 134 136
l 134 137
l 136 138
l 139 120
l 140 136
l 134 135
l 139 138
