# Blender v2.93.5 OBJ File: ''
# www.blender.org
mtllib KOSHIRO_ABrazo_1.mtl
o AnteBrazo_1_face_Plane.006
v 0.115917 -0.000477 0.008659
v 0.115929 0.016308 0.019474
v 0.033266 0.015901 0.023163
v 0.034358 -0.002002 0.010472
v 0.033507 0.039735 0.013392
v 0.115914 0.037394 0.010597
v 0.033429 0.039524 -0.028377
v 0.033663 0.051362 -0.008119
v 0.115888 0.047177 -0.008098
v 0.115868 0.037357 -0.025526
v 0.034921 -0.004952 -0.011022
v 0.115892 -0.002876 -0.009949
v 0.171026 0.045324 -0.008348
v 0.169186 0.036154 -0.024949
v 0.172308 0.036215 0.009278
v 0.115864 0.022659 -0.030132
v 0.033287 0.023032 -0.034054
v 0.033496 0.003496 -0.031276
v 0.115868 0.005331 -0.027504
v 0.168521 0.022322 -0.029351
v 0.171054 0.016342 0.017879
v 0.171032 0.000332 0.007581
v 0.170996 -0.001852 -0.010087
v 0.168687 0.005997 -0.026830
v 0.152319 -0.025529 0.010757
v 0.151662 -0.016864 0.029127
v 0.017803 -0.023728 0.034055
v 0.021621 -0.032202 0.015774
v 0.150836 -0.020767 -0.033105
v 0.149010 0.008180 -0.044964
v 0.167795 0.008416 -0.042823
v 0.171096 -0.021464 -0.031400
v 0.148123 0.036643 -0.042389
v 0.013694 0.001258 -0.048044
v 0.012949 0.033842 -0.047078
v 0.013627 0.056331 -0.022502
v 0.012920 0.056169 0.013738
v 0.148140 0.053779 0.011870
v 0.148139 0.053710 -0.020410
v 0.016109 -0.028210 -0.035262
v 0.025992 -0.029774 -0.036343
v 0.024622 0.002010 -0.049690
v 0.038473 0.002978 -0.048823
v 0.040357 -0.028436 -0.035738
v 0.000724 -0.033315 0.046441
v 0.003417 -0.042524 0.019812
v 0.152243 -0.026485 -0.013864
v 0.022161 -0.034163 -0.015125
v -0.003676 0.008926 0.051669
v 0.014126 0.012408 0.046764
v -0.004992 0.037233 0.038995
v 0.149432 0.020284 0.040254
v 0.168207 0.036733 -0.040007
v 0.172670 -0.026888 -0.013189
v 0.172677 -0.017829 0.026689
v 0.172771 0.020733 0.036818
v 0.172674 -0.026111 0.009237
v 0.171272 0.053431 -0.019269
v 0.172716 0.053518 0.010692
v -0.004185 0.056966 -0.024193
v -0.005378 0.056014 0.014599
v -0.005873 0.033312 -0.050403
v -0.005801 -0.002302 -0.053357
v 0.002070 -0.042909 -0.016304
v -0.004647 -0.037155 -0.043562
v 0.032533 0.020354 0.049217
v 0.029951 0.022629 0.048729
v 0.027339 0.022371 0.048402
v 0.032621 0.017716 0.049401
v 0.032257 0.025031 0.047731
v 0.032055 0.027285 0.046360
v 0.034839 0.022756 0.048219
v 0.037337 0.022631 0.047359
v 0.019746 0.001547 -0.050748
v 0.019333 0.034483 -0.048998
v 0.024130 0.034310 -0.047978
v 0.019321 0.057356 0.014975
v 0.020090 0.040568 0.039576
v 0.024744 0.040352 0.038403
v 0.024119 0.057072 0.014465
v 0.019992 0.058823 -0.024057
v 0.024481 0.058295 -0.023281
v 0.022681 -0.026530 0.036267
v 0.023514 -0.035466 0.016838
v 0.028343 -0.034246 0.016298
v 0.027394 -0.025510 0.035341
v 0.025552 0.013446 0.048591
v 0.039029 0.014701 0.047131
v 0.037960 0.041105 0.036939
v 0.040907 -0.024336 0.034249
v 0.046413 -0.024312 0.034241
v 0.044516 0.014779 0.049727
v 0.039029 0.014238 0.049775
v 0.037734 0.056438 0.014020
v 0.043069 0.056733 0.014163
v 0.043244 0.057591 -0.022571
v 0.037734 0.057534 -0.022495
v 0.028706 -0.036093 -0.015184
v 0.042852 -0.034677 -0.014892
v 0.042142 -0.033017 0.015355
v 0.020833 0.012598 0.052401
v 0.025552 0.012983 0.051175
v 0.042821 0.041900 0.037028
v 0.037737 0.034606 -0.047253
v 0.046161 -0.028397 -0.035877
v 0.048615 -0.034688 -0.014871
v 0.020814 0.013287 0.048872
v 0.023749 -0.037399 -0.015391
v 0.020958 -0.030910 -0.037026
v 0.038464 0.027195 0.045646
v 0.031620 0.033114 0.043879
v 0.025384 0.026179 0.047015
v 0.031508 0.038971 0.042113
v 0.020785 0.026102 0.048141
v 0.047768 -0.033093 0.015162
v 0.043262 0.034930 -0.047524
v 0.043850 0.027899 0.045430
v 0.044093 0.003265 -0.049039
v 0.043933 0.015158 0.046600
v 0.059345 0.012998 -0.013171
v 0.059373 0.012998 -0.013171
v 0.001939 0.012998 -0.013171
v 0.059774 0.012998 -0.013171
v 0.022660 0.012998 -0.013171
v 0.009929 0.012998 -0.013171
v 0.012430 0.012998 -0.013171
v 0.059951 0.012998 -0.013171
v 0.059554 0.012998 -0.013171
v 0.005162 0.012998 -0.013171
v 0.010362 0.012998 -0.013171
v 0.016702 0.012998 -0.013171
v 0.019403 0.012998 -0.013171
v 0.059434 0.012998 -0.013171
v 0.008919 0.012998 -0.013171
v -0.000881 0.012998 -0.013171
v 0.059955 0.012998 -0.013171
v 0.018338 0.012998 -0.013171
v 0.018317 0.012998 -0.013171
v 0.059310 0.012998 -0.013171
v 0.018853 0.012998 -0.013171
v 0.059346 0.012998 -0.013171
v 0.016457 0.012998 -0.013171
v 0.059395 0.012998 -0.013171
v 0.014649 0.012998 -0.013171
v 0.059584 0.012998 -0.013171
v 0.059679 0.012998 -0.013171
vt 0.810986 0.048682
vt 0.811000 0.057747
vt 0.776517 0.057553
vt 0.777056 0.048683
vt 0.776665 0.066149
vt 0.811121 0.066482
vt 0.776926 0.016734
vt 0.777465 0.007337
vt 0.811753 0.007337
vt 0.811426 0.016533
vt 0.811542 0.078665
vt 0.777126 0.078665
vt 0.777353 0.040055
vt 0.811053 0.040166
vt 0.835142 0.007337
vt 0.834321 0.016508
vt 0.834822 0.066474
vt 0.834942 0.078665
vt 0.811323 0.021785
vt 0.776643 0.021976
vt 0.776531 0.031533
vt 0.811150 0.031497
vt 0.833959 0.021735
vt 0.834787 0.057767
vt 0.834797 0.048615
vt 0.834842 0.040103
vt 0.833968 0.031395
vt 0.336993 0.531435
vt 0.336433 0.541132
vt 0.269246 0.535576
vt 0.273013 0.525719
vt 0.338001 0.642381
vt 0.336407 0.627247
vt 0.345505 0.626806
vt 0.347795 0.642608
vt 0.335380 0.613195
vt 0.270025 0.635322
vt 0.268406 0.617719
vt 0.267886 0.601032
vt 0.267232 0.583223
vt 0.334572 0.582244
vt 0.334954 0.598361
vt 0.273059 0.651595
vt 0.162574 0.974471
vt 0.178204 0.974471
vt 0.178204 0.980299
vt 0.162574 0.980299
vt 0.260615 0.536465
vt 0.265730 0.524788
vt 0.337247 0.519805
vt 0.276857 0.511324
vt 0.257990 0.554191
vt 0.266918 0.555753
vt 0.258348 0.568733
vt 0.334954 0.560191
vt 0.339142 0.651816
vt 0.278601 0.660617
vt 0.345169 0.612402
vt 0.348834 0.651669
vt 0.346806 0.540335
vt 0.346571 0.560678
vt 0.346806 0.520202
vt 0.346843 0.530899
vt 0.346364 0.597787
vt 0.346771 0.582436
vt 0.259511 0.601674
vt 0.258668 0.583027
vt 0.259486 0.618926
vt 0.260572 0.636989
vt 0.271072 0.663917
vt 0.263114 0.653565
vt 0.269296 0.508503
vt 0.455836 0.864664
vt 0.470655 0.850332
vt 0.486834 0.850294
vt 0.455836 0.882056
vt 0.455836 0.836111
vt 0.455836 0.818990
vt 0.441017 0.850332
vt 0.424838 0.850294
vt 0.454800 0.861821
vt 0.444455 0.849405
vt 0.456872 0.839061
vt 0.467216 0.851477
vt 0.191430 0.938793
vt 0.203761 0.938793
vt 0.203783 0.942250
vt 0.191457 0.942250
vt 0.230468 0.938793
vt 0.240776 0.938793
vt 0.240525 0.942250
vt 0.230351 0.942250
vt 0.213367 0.938793
vt 0.213332 0.942250
vt 0.149131 0.938793
vt 0.158832 0.938793
vt 0.159011 0.942250
vt 0.149278 0.942250
vt 0.239180 0.974471
vt 0.250000 0.974471
vt 0.250000 0.980299
vt 0.239180 0.980299
vt 0.149754 0.946775
vt 0.150085 0.949741
vt 0.132267 0.949741
vt 0.132118 0.946775
vt 0.230779 0.946775
vt 0.230710 0.949741
vt 0.213201 0.949741
vt 0.213194 0.946775
vt 0.139149 0.974471
vt 0.152841 0.974471
vt 0.152841 0.980299
vt 0.139149 0.980299
vt 0.131073 0.938793
vt 0.131393 0.942250
vt 0.240637 0.946775
vt 0.240336 0.949741
vt 0.192884 0.974471
vt 0.204769 0.974471
vt 0.204769 0.980299
vt 0.192884 0.980299
vt 0.178351 0.946775
vt 0.178363 0.949741
vt 0.170062 0.949741
vt 0.169930 0.946775
vt 0.250003 0.938793
vt 0.250003 0.942250
vt 0.169823 0.938793
vt 0.178588 0.938793
vt 0.178438 0.942250
vt 0.169741 0.942250
vt 0.226584 0.974471
vt 0.226584 0.980299
vt 0.129943 0.974471
vt 0.129943 0.980299
vt 0.105038 0.980299
vt 0.102002 0.977583
vt 0.105038 0.974471
vt 0.111107 0.974471
vt 0.111107 0.980299
vt 0.122659 0.944337
vt 0.119305 0.944394
vt 0.124954 0.938793
vt 0.125718 0.942250
vt 0.158092 0.946775
vt 0.158455 0.949741
vt 0.203544 0.949741
vt 0.203424 0.946775
vt 0.126383 0.949741
vt 0.126011 0.946775
vt 0.191324 0.946775
vt 0.191471 0.949741
vt 0.250003 0.946775
vt 0.250003 0.949741
vt 0.475660 0.128930
vt 0.477375 0.104213
vt 0.477278 0.129146
vt 0.471737 0.185427
vt 0.444697 0.186428
vt 0.434489 0.184162
vt 0.436628 0.172070
vt 0.472159 0.172200
vt 0.474171 0.151377
vt 0.473652 0.172264
vt 0.431660 0.147424
vt 0.438311 0.121312
vt 0.475794 0.151460
vt 0.448023 0.095488
vt 0.453049 0.080094
vt 0.481795 0.087849
vt 0.434106 0.200836
vt 0.426053 0.197165
vt 0.492894 0.282570
vt 0.453991 0.288079
vt 0.450435 0.269529
vt 0.482365 0.264633
vt 0.447385 0.252789
vt 0.477608 0.246974
vt 0.442875 0.234270
vt 0.475883 0.226772
vt 0.457031 0.049703
vt 0.492668 0.064986
vt 0.439657 0.216481
vt 0.473648 0.209315
vt 0.473016 0.195879
vt 0.473333 0.185434
vt 0.483824 0.263947
vt 0.479115 0.246731
vt 0.478849 0.104399
vt 0.494056 0.281325
vt 0.483234 0.088504
vt 0.477440 0.226627
vt 0.475251 0.209140
vt 0.474550 0.195755
vn 0.0273 -0.8478 0.5295
vn 0.0362 -0.0922 0.9951
vn 0.0427 -0.0933 0.9947
vn 0.0314 -0.8427 0.5374
vn 0.0444 0.6701 0.7410
vn 0.0378 0.6756 0.7363
vn 0.0460 0.6289 -0.7761
vn 0.0485 0.9987 -0.0167
vn 0.0404 0.9991 -0.0153
vn 0.0346 0.6321 -0.7741
vn 0.0294 -0.9888 -0.1460
vn 0.0236 -0.9888 -0.1472
vn 0.0323 0.9994 0.0103
vn 0.0231 0.6426 -0.7658
vn 0.0312 0.6789 0.7336
vn 0.0314 0.0819 -0.9961
vn 0.0468 0.0865 -0.9952
vn 0.0466 -0.5911 -0.8053
vn 0.0319 -0.6032 -0.7970
vn 0.0158 0.0786 -0.9968
vn 0.0298 -0.0755 0.9967
vn 0.0234 -0.8469 0.5313
vn 0.0178 -0.9893 -0.1450
vn 0.0173 -0.6154 -0.7880
vn -0.0055 -0.9706 0.2407
vn 0.0424 -0.7206 0.6920
vn 0.3689 -0.6607 0.6537
vn 0.2985 -0.9257 0.2325
vn 0.0228 -0.8126 -0.5823
vn 0.0599 -0.0233 -0.9979
vn -0.0159 -0.1375 -0.9904
vn -0.0538 -0.7207 -0.6912
vn 0.0457 0.4740 -0.8793
vn 0.1516 -0.0512 -0.9871
vn 0.1033 0.4342 -0.8949
vn 0.0652 0.8824 -0.4659
vn 0.0317 0.8942 0.4465
vn 0.0173 0.9150 0.4031
vn 0.0193 0.9005 -0.4345
vn 0.2901 -0.7645 -0.5757
vn 0.0990 -0.8124 -0.5747
vn 0.0608 -0.0630 -0.9962
vn 0.0600 -0.0543 -0.9967
vn 0.0997 -0.8312 -0.5469
vn 0.6464 -0.3141 0.6954
vn 0.5943 -0.7787 0.2012
vn -0.0117 -0.9919 -0.1262
vn 0.2513 -0.9579 -0.1391
vn 0.4851 0.1014 0.8685
vn 0.1359 0.1695 0.9761
vn 0.3826 0.6247 0.6807
vn 0.0762 0.1842 0.9799
vn 0.0890 0.5026 -0.8599
vn -0.0169 -0.9929 -0.1173
vn -0.0332 -0.6642 0.7468
vn 0.0977 0.1987 0.9752
vn -0.0091 -0.9738 0.2273
vn 0.0299 0.9825 -0.1838
vn 0.0339 0.9053 0.4233
vn 0.2134 0.9136 -0.3460
vn 0.1297 0.9637 0.2332
vn 0.1817 0.3922 -0.9018
vn 0.3559 -0.2064 -0.9114
vn 0.4892 -0.8626 -0.1290
vn 0.5462 -0.4739 -0.6907
vn 0.1016 0.0725 0.9922
vn -0.1471 0.2917 0.9451
vn 0.1016 0.0720 0.9922
vn 0.0745 0.5231 0.8490
vn 0.0749 0.5231 0.8490
vn 0.3237 0.3039 0.8960
vn 0.3237 0.3040 0.8960
vn 0.0909 0.3064 0.9475
vn -0.6330 -0.0561 -0.7721
vn -0.6140 0.3205 -0.7213
vn 0.9992 -0.0162 0.0373
vn 0.9974 0.0127 0.0716
vn -0.7038 0.6343 0.3199
vn -0.6551 0.4375 0.6160
vn 0.9994 0.0076 -0.0341
vn 0.9993 0.0371 -0.0054
vn -0.6618 0.6560 -0.3629
vn 0.9998 0.0192 0.0042
vn -0.5653 -0.6444 0.5150
vn -0.5838 -0.7893 0.1904
vn 0.9934 0.1148 -0.0019
vn 0.9922 0.1167 -0.0428
vn 0.0594 0.6067 0.7927
vn 0.3975 -0.7602 0.5139
vn -0.1728 -0.7766 0.6059
vn 0.0573 0.6327 0.7723
vn -0.9918 -0.1229 0.0357
vn 0.7319 -0.4988 0.4643
vn 0.7350 0.0934 0.6716
vn -0.9943 -0.0341 0.1010
vn -0.9978 0.0576 0.0315
vn 0.7074 0.6364 0.3077
vn 0.7068 0.6260 -0.3296
vn -0.9971 0.0696 -0.0323
vn 0.1052 -0.9621 0.2517
vn 0.1000 -0.9867 -0.1282
vn 0.0997 -0.9884 -0.1148
vn 0.1044 -0.9668 0.2333
vn -0.6007 0.0388 0.7985
vn 0.9952 0.0235 -0.0946
vn -0.9978 0.0202 0.0631
vn 0.6879 0.4749 0.5489
vn 0.0574 0.4094 -0.9105
vn 0.0512 0.8807 -0.4709
vn 0.0507 0.8849 -0.4630
vn 0.0573 0.4242 -0.9038
vn -0.9902 -0.1361 0.0321
vn 0.7102 -0.5469 -0.4434
vn 0.7603 -0.6411 -0.1048
vn -0.9920 -0.1225 0.0289
vn -0.5266 -0.4101 0.7447
vn -0.5715 -0.8178 -0.0675
vn -0.5826 -0.6991 -0.4145
vn 0.9911 0.1296 -0.0296
vn 0.9918 0.1218 -0.0396
vn 0.0387 0.9002 0.4338
vn 0.0387 0.9006 0.4330
vn 0.1211 -0.7522 0.6477
vn 0.1206 -0.7646 0.6331
vn 0.0719 0.3231 0.9436
vn 0.0696 0.3584 0.9310
vn 0.0720 0.3208 0.9444
vn 0.0966 0.0706 0.9928
vn 0.0949 0.0896 0.9914
vn 0.0784 -0.9288 0.3622
vn -0.0533 0.9491 0.3103
vn -0.6894 0.3676 0.6242
vn 0.9435 -0.3273 0.0514
vn -0.9928 -0.1197 -0.0099
vn 0.7477 -0.6375 0.1857
vn 0.6746 0.3267 -0.6620
vn -0.9981 0.0178 -0.0593
vn 0.7864 0.3912 0.4781
vn -0.9029 -0.3677 0.2224
vn -0.9971 -0.0235 -0.0728
vn 0.7333 -0.0162 -0.6797
vn -0.1727 -0.7765 0.6059
vn 0.6687 -0.3721 0.6437
vn -0.0096 0.9995 -0.0295
vn 0.0310 0.9995 -0.0049
vn -0.0235 0.3818 0.9239
vn -0.0306 -0.0172 0.9994
vn 0.0281 -0.0222 0.9994
vn 0.6541 0.7564 -0.0073
vn -0.1376 -0.6435 0.7530
vn -0.0047 -0.0350 0.9994
vn -0.0047 0.0350 -0.9994
vn -0.0375 -0.0014 0.9993
vn 0.1061 -0.5139 -0.8513
vn 0.0375 -0.9993 0.0013
vn 0.5292 0.5253 -0.6663
vn -0.0097 0.7376 0.6751
vn -0.0310 -0.9995 -0.0049
vn -0.4918 0.4676 0.7345
vn -0.7014 -0.5078 0.5001
vn -0.0455 -0.9989 -0.0070
vn -0.5036 -0.5067 0.6997
vn 0.0063 0.6972 0.7168
vn 0.9605 0.1921 -0.2012
vn 0.4954 0.4989 -0.7111
vn 0.6567 0.5323 -0.5342
vn -0.0321 0.9994 0.0094
vn 0.0119 0.7262 -0.6874
vn 0.0081 1.0000 0.0008
vn 0.7020 -0.7111 -0.0380
vn 0.0013 -0.0342 0.9994
vn 0.4702 -0.5340 -0.7027
vn 0.0011 -0.0001 -1.0000
vn -0.0151 0.0082 -0.9999
vn 0.0306 -0.0172 -0.9994
vn -0.0320 0.0009 0.9995
vn -0.0081 -0.0279 0.9996
vn -0.0013 -0.9999 0.0124
vn 0.0455 0.9989 -0.0070
vn -0.0011 0.9997 -0.0239
vn 0.0151 0.0082 0.9999
usemtl face.002
s 1
f 1/1/1 2/2/2 3/3/3 4/4/4
f 5/5/5 3/3/3 2/2/2 6/6/6
f 7/7/7 8/8/8 9/9/9 10/10/10
f 6/6/6 9/11/9 8/12/8 5/5/5
f 4/4/4 11/13/11 12/14/12 1/1/1
f 9/9/9 13/15/13 14/16/14 10/10/10
f 6/6/6 15/17/15 13/18/13 9/11/9
f 10/10/10 16/19/16 17/20/17 7/7/7
f 18/21/18 17/20/17 16/19/16 19/22/19
f 19/22/19 12/14/12 11/13/11 18/21/18
f 16/19/16 10/10/10 14/16/14 20/23/20
f 2/2/2 21/24/21 15/17/15 6/6/6
f 1/1/1 22/25/22 21/24/21 2/2/2
f 23/26/23 22/25/22 1/1/1 12/14/12
f 24/27/24 23/26/23 12/14/12 19/22/19
f 19/22/19 16/19/16 20/23/20 24/27/24
usemtl cloth.002
f 25/28/25 26/29/26 27/30/27 28/31/28
f 29/32/29 30/33/30 31/34/31 32/35/32
f 33/36/33 30/33/30 34/37/34 35/38/35
f 36/39/36 37/40/37 38/41/38 39/42/39
f 30/33/30 29/32/29 40/43/40 34/37/34
f 41/44/41 42/45/42 43/46/43 44/47/44
f 39/42/39 33/36/33 35/38/35 36/39/36
f 28/31/28 27/30/27 45/48/45 46/49/46
f 47/50/47 25/28/25 28/31/28 48/51/48
f 49/52/49 50/53/50 51/54/51
f 50/53/50 27/30/27 26/29/26 52/55/52
f 29/32/29 47/56/47 48/57/48 40/43/40
f 52/55/52 38/41/38 37/40/37 50/53/50
f 30/33/30 33/36/33 53/58/53 31/34/31
f 47/56/47 29/32/29 32/35/32 54/59/54
f 52/55/52 26/29/26 55/60/55 56/61/56
f 25/28/25 47/50/47 54/62/54 57/63/57
f 26/29/26 25/28/25 57/63/57 55/60/55
f 33/36/33 39/42/39 58/64/58 53/58/53
f 39/42/39 38/41/38 59/65/59 58/64/58
f 37/40/37 36/39/36 60/66/60 61/67/61
f 36/39/36 35/38/35 62/68/62 60/66/60
f 35/38/35 34/37/34 63/69/63 62/68/62
f 40/43/40 48/57/48 64/70/64 65/71/65
f 37/40/37 61/67/61 51/54/51
f 50/53/50 37/40/37 51/54/51
f 48/51/48 28/31/28 46/49/46 64/72/64
f 38/41/38 52/55/52 56/61/56 59/65/59
f 50/53/50 49/52/49 45/48/45 27/30/27
f 65/71/65 63/69/63 34/37/34 40/43/40
f 66/73/66 67/74/67 68/75/67 69/76/68
f 67/74/67 70/77/69 71/78/70 68/75/67
f 70/77/69 72/79/71 73/80/72 71/78/70
f 66/81/73 72/82/73 70/83/73 67/84/73
f 74/85/74 75/86/75 76/87/76 42/88/77
f 77/89/78 78/90/79 79/91/80 80/92/81
f 81/93/82 77/89/78 80/92/81 82/94/83
f 83/95/84 84/96/85 85/97/86 86/98/87
f 79/99/88 87/100/89 88/101/90 89/102/91
f 90/103/92 91/104/93 92/105/94 93/106/95
f 94/107/96 95/108/97 96/109/98 97/110/99
f 85/111/100 98/112/101 99/113/102 100/114/103
f 101/115/104 83/95/84 86/98/87 102/116/105
f 89/117/106 103/118/107 95/108/97 94/107/96
f 76/119/108 82/120/109 97/121/110 104/122/111
f 44/123/112 105/124/113 106/125/114 99/126/115
f 98/112/101 41/44/41 44/47/44 99/113/102
f 78/90/79 107/127/116 87/128/89 79/91/80
f 108/129/117 109/130/118 41/131/119 98/132/120
f 80/133/121 79/99/88 89/102/91 94/134/122
f 42/45/42 76/119/108 104/122/111 43/46/43
f 86/135/123 85/111/100 100/114/103 90/136/124
f 110/137/125 111/138/126 112/139/127
f 102/140/128 93/141/129 110/137/125 112/139/127
f 111/142/130 113/143/131 114/144/132 112/145/133
f 100/146/134 115/147/135 91/104/93 90/103/92
f 97/110/99 96/109/98 116/148/136 104/149/137
f 75/86/75 81/93/82 82/94/83 76/87/76
f 99/126/115 106/125/114 115/147/135 100/146/134
f 84/96/85 108/129/117 98/132/120 85/97/86
f 93/106/95 92/105/94 117/150/138 110/151/139
f 113/143/131 111/142/130 110/151/139 117/150/138
f 44/123/112 43/152/140 118/153/141 105/124/113
f 109/130/118 74/85/74 42/88/77 41/131/119
f 104/149/137 116/148/136 118/153/141 43/152/140
f 101/115/104 102/116/105 112/145/133 114/144/132
f 102/140/128 86/135/123 90/136/124 93/141/129
f 82/120/109 80/133/121 94/134/122 97/121/110
f 88/154/142 119/155/143 103/118/107 89/117/106
f 72/79/71 66/73/66 69/76/68 73/80/72
f 120/156/144 121/157/145 122/158/146
f 123/159/147 124/160/148 125/161/149 126/162/150 127/163/151
f 127/163/152 128/164/153 122/165/146
f 129/166/154 128/164/155 127/163/151 126/162/150
f 128/164/155 129/166/154 130/167/156 120/156/157
f 128/164/153 120/156/144 122/168/146
f 121/157/158 131/169/159 132/170/160 133/171/161
f 124/160/148 134/172/162 135/173/163 125/161/149
f 136/174/164 137/175/165 138/176/166 139/177/167
f 139/177/167 138/176/166 140/178/168 141/179/169
f 141/179/169 140/178/168 142/180/170 143/181/171
f 133/171/161 132/170/160 137/182/165 136/183/164
f 143/181/171 142/180/170 144/184/172 145/185/173
f 134/172/162 124/160/148 123/159/147 146/186/174
f 145/185/173 144/184/172 134/172/162 146/186/174
f 123/159/175 127/163/152 122/187/146
f 139/177/176 141/179/177 122/188/146
f 141/179/177 143/181/178 122/189/146
f 121/157/145 133/171/179 122/190/146
f 136/174/164 139/177/176 122/191/146
f 133/171/179 136/183/164 122/192/146
f 143/181/178 145/185/180 122/193/146
f 145/185/180 146/186/181 122/194/146
f 146/186/181 123/159/175 122/195/146
f 130/167/156 131/169/159 121/157/158 120/156/157
