# Blender v2.93.5 OBJ File: ''
# www.blender.org
mtllib KOSHIRO_Pierna_2.mtl
o Pierna_2_face_Plane.005
v -0.012258 0.001919 0.054415
v 0.014148 -0.130374 0.035439
v 0.024865 0.000682 0.047860
v 0.044718 -0.146733 0.014959
v 0.046614 -0.000211 0.026651
v 0.028657 -0.134535 0.029319
v 0.051326 -0.158965 -0.000941
v 0.039548 -0.158510 -0.036219
v 0.054815 -0.003049 -0.049308
v 0.060280 -0.001492 -0.008416
v -0.035237 -0.001254 -0.050603
v 0.010127 -0.004527 -0.067134
v 0.012219 -0.159006 -0.048670
v -0.014718 -0.158181 -0.035681
v -0.034209 0.002305 0.040097
v -0.054503 0.002829 0.017734
v -0.024818 -0.147551 0.010944
v -0.016441 -0.136148 0.024111
v -0.060494 0.002797 -0.011299
v -0.029610 -0.157161 -0.006299
v 0.044911 -0.162915 0.011189
v -0.025121 -0.161028 0.008999
v 0.014020 -0.153105 0.034705
v 0.028502 -0.157518 0.026644
v -0.015563 -0.157972 0.022394
v -0.001137 -0.153012 0.033936
v -0.000772 -0.130340 0.035547
v 0.014625 -0.173018 0.033595
v -0.014499 -0.173303 0.021890
v -0.001347 -0.172985 0.033008
v 0.030192 -0.173856 0.025888
v -0.028243 -0.172891 -0.006907
v -0.024369 -0.173001 0.007682
v 0.044023 -0.173759 0.009269
v 0.049946 -0.173889 -0.001673
vt 0.717738 0.256734
vt 0.724747 0.222749
vt 0.727684 0.256734
vt 0.738628 0.219561
vt 0.735390 0.256734
vt 0.731634 0.221568
vt 0.640733 0.214768
vt 0.656353 0.214768
vt 0.652261 0.256734
vt 0.640733 0.256734
vt 0.680053 0.256734
vt 0.666194 0.256734
vt 0.670036 0.214768
vt 0.683755 0.214768
vt 0.710511 0.256734
vt 0.702309 0.256734
vt 0.705307 0.220342
vt 0.711940 0.222003
vt 0.693942 0.256734
vt 0.698486 0.214768
vt 0.744835 0.214768
vt 0.739768 0.214768
vt 0.705138 0.214768
vt 0.723993 0.216551
vt 0.729197 0.215486
vt 0.715095 0.215663
vt 0.719910 0.216691
vt 0.718835 0.222841
vt 0.724320 0.210481
vt 0.715307 0.210070
vt 0.720380 0.210483
vt 0.729908 0.210024
vt 0.698974 0.210040
vt 0.705324 0.210040
vt 0.740366 0.210040
vt 0.744835 0.210040
vt 0.640733 0.210118
vt 0.744835 0.256734
vn -0.2243 -0.1483 0.9632
vn 0.1958 -0.0977 0.9758
vn 0.4240 -0.0960 0.9006
vn 0.7967 -0.0839 0.5985
vn 0.8100 -0.0591 0.5835
vn 0.5356 -0.0907 0.8396
vn 0.9914 -0.0903 0.0948
vn 0.7896 -0.1079 -0.6040
vn 0.7693 -0.1116 -0.6290
vn 0.9945 -0.0673 0.0803
vn -0.6719 -0.1576 -0.7236
vn -0.0050 -0.1277 -0.9918
vn 0.0079 -0.1275 -0.9918
vn -0.6834 -0.1440 -0.7157
vn -0.6486 -0.1703 0.7418
vn -0.8690 -0.1844 0.4591
vn -0.8826 -0.1204 0.4545
vn -0.6705 -0.1269 0.7309
vn -0.9751 -0.1924 -0.1101
vn -0.9869 -0.1225 -0.1046
vn 0.8107 -0.1159 0.5739
vn -0.9011 -0.0725 0.4275
vn 0.2092 -0.0551 0.9763
vn 0.5556 -0.0494 0.8300
vn -0.7182 -0.0661 0.6927
vn -0.3340 -0.0543 0.9410
vn -0.2904 -0.1164 0.9498
vn 0.2268 -0.0336 0.9734
vn -0.7306 -0.0806 0.6780
vn -0.3608 -0.0521 0.9312
vn 0.5994 -0.0108 0.8004
vn -0.9949 -0.0843 -0.0561
vn -0.9055 -0.1034 0.4115
vn 0.8299 -0.1488 0.5377
vn 0.9860 -0.0978 0.1348
usemtl face.002
s 1
f 1/1/1 2/2/2 3/3/3
f 4/4/4 5/5/5 3/3/3 6/6/6
f 7/7/7 8/8/8 9/9/9 10/10/10
f 11/11/11 12/12/12 13/13/13 14/14/14
f 13/13/13 12/12/12 9/9/9 8/8/8
f 15/15/15 16/16/16 17/17/17 18/18/18
f 19/19/19 20/20/20 17/17/17 16/16/16
f 3/3/3 2/2/2 6/6/6
f 7/21/7 4/4/4 21/22/21
f 14/14/14 20/20/20 19/19/19 11/11/11
f 17/17/17 20/20/20 22/23/22
f 23/24/23 24/25/24 6/6/6 2/2/2
f 25/26/25 26/27/26 27/28/27 18/18/18
f 28/29/28 24/25/24 23/24/23
f 22/23/22 29/30/29 25/26/25
f 25/26/25 30/31/30 26/27/26
f 24/25/24 21/22/21 4/4/4 6/6/6
f 18/18/18 17/17/17 22/23/22 25/26/25
f 28/29/28 23/24/23 26/27/26 30/31/30
f 31/32/31 21/22/21 24/25/24
f 14/14/14 32/33/32 20/20/20
f 20/20/20 33/34/33 22/23/22
f 7/21/7 34/35/34 35/36/35
f 21/22/21 34/35/34 7/21/7
f 33/34/33 20/20/20 32/33/32
f 35/37/35 8/8/8 7/7/7
f 2/2/2 27/28/27 26/27/26 23/24/23
f 4/4/4 7/21/7 10/38/10 5/5/5
f 34/35/34 21/22/21 31/32/31
f 29/30/29 30/31/30 25/26/25
f 33/34/33 29/30/29 22/23/22
f 31/32/31 24/25/24 28/29/28
f 1/1/1 15/15/15 18/18/18 27/28/27
f 27/28/27 2/2/2 1/1/1
