# 3ds Max Wavefront OBJ Exporter v0.99 - (c)2007 guruware
# File Created: 21.12.2022 16:13:59

mtllib Pinguino_inf.mtl

#
# object Cube
#

v  -0.0700 1.0000 2.8761
v  -0.0700 -1.0000 2.8761
v  0.0700 -1.0000 2.8761
v  0.0700 1.0000 2.8761
v  -0.0700 -1.0000 -0.0000
v  0.0700 -1.0000 -0.0000
v  -0.0700 1.0000 -0.0000
v  0.0700 1.0000 -0.0000
# 8 vertices

vn 0.0000 0.0000 1.0000
vn 0.0000 -1.0000 -0.0000
vn -1.0000 0.0000 -0.0000
vn 0.0000 0.0000 -1.0000
vn 1.0000 0.0000 -0.0000
vn 0.0000 1.0000 -0.0000
# 6 vertex normals

vt 0.4221 0.5336 0.0000
vt 0.4221 0.4869 0.0000
vt 0.4534 0.4869 0.0000
vt 0.4534 0.5336 0.0000
vt 0.4620 0.6401 0.0000
vt 0.4271 0.6401 0.0000
vt 0.4271 0.6196 0.0000
vt 0.4620 0.6196 0.0000
vt 0.4960 0.4989 0.0000
vt 0.4650 0.4989 0.0000
vt 0.4650 0.5327 0.0000
vt 0.4960 0.5327 0.0000
vt 0.4595 0.5764 0.0000
vt 0.4595 0.5392 0.0000
vt 0.4212 0.5392 0.0000
vt 0.4212 0.5764 0.0000
vt 0.0049 1.0019 0.0000
vt -0.0006 0.0032 0.0000
vt 1.0037 -0.0023 0.0000
vt 1.0091 0.9964 0.0000
vt 0.4626 0.6135 0.0000
vt 0.4233 0.6135 0.0000
vt 0.4233 0.5838 0.0000
vt 0.4626 0.5838 0.0000
# 24 texture coords

o Cube
g Cube
usemtl Pinguino_01___Default
s off
f 1/1/1 2/2/1 3/3/1 
f 3/3/1 4/4/1 1/1/1 
f 3/5/2 2/6/2 5/7/2 
f 5/7/2 6/8/2 3/5/2 
f 2/9/3 1/10/3 7/11/3 
f 7/11/3 5/12/3 2/9/3 
f 8/13/4 6/14/4 5/15/4 
f 5/15/4 7/16/4 8/13/4 
f 4/17/5 3/18/5 6/19/5 
f 6/19/5 8/20/5 4/17/5 
f 1/21/6 4/22/6 8/23/6 
f 8/23/6 7/24/6 1/21/6 
# 12 faces

